<svg width="48" height="34" viewBox="0 0 48 34" fill="none" xmlns="http://www.w3.org/2000/svg">
<path d="M17.4604 3.00023C17.4796 3.00018 17.4987 3.00014 17.5184 3.00009C17.5396 3.00013 17.5607 3.00017 17.5825 3.00022C17.605 3.00019 17.6275 3.00016 17.6506 3.00014C17.7134 3.00007 17.7761 3.00011 17.8389 3.00017C17.907 3.00022 17.9752 3.00016 18.0433 3.00011C18.1628 3.00005 18.2824 3.00005 18.4019 3.00009C18.5797 3.00016 18.7574 3.00013 18.9352 3.00007C19.2526 2.99998 19.57 2.99999 19.8875 3.00004C20.1652 3.00008 20.443 3.0001 20.7208 3.00007C20.7392 3.00007 20.7576 3.00007 20.7765 3.00007C20.8512 3.00006 20.9259 3.00006 21.0006 3.00005C21.7017 3 22.4028 3.00005 23.1039 3.00014C23.7273 3.00023 24.3507 3.00022 24.9741 3.00014C25.6739 3.00004 26.3737 3 27.0735 3.00006C27.148 3.00006 27.2226 3.00007 27.2971 3.00007C27.3155 3.00008 27.3338 3.00008 27.3528 3.00008C27.6304 3.0001 27.9081 3.00007 28.1857 3.00003C28.5013 2.99998 28.8169 2.99999 29.1325 3.00009C29.3093 3.00014 29.4861 3.00014 29.6629 3.00008C29.7808 3.00004 29.8987 3.00006 30.0166 3.00014C30.0839 3.00018 30.1512 3.0002 30.2185 3.00013C30.2908 3.00006 30.3631 3.00013 30.4354 3.00022C30.4671 3.00015 30.4671 3.00015 30.4995 3.00009C30.5282 3.00016 30.5282 3.00016 30.5575 3.00023C30.5741 3.00023 30.5906 3.00023 30.6077 3.00023C30.6493 3.00247 30.6493 3.00247 30.703 3.02039C30.7325 3.02358 30.762 3.02611 30.7915 3.02824C30.9008 3.03752 31.0074 3.05507 31.1153 3.07416C31.1377 3.07784 31.1602 3.08151 31.1834 3.08529C31.3902 3.1195 31.5929 3.16718 31.7963 3.21754C31.8177 3.22276 31.8391 3.22799 31.8611 3.23337C31.9113 3.24573 31.9613 3.25841 32.0114 3.27131C32.0286 3.2757 32.0459 3.28009 32.0637 3.28461C32.0808 3.28909 32.0979 3.29358 32.1156 3.29819C32.1305 3.30208 32.1454 3.30596 32.1607 3.30996C32.2085 3.32508 32.2085 3.32508 32.2685 3.35098C32.3349 3.37921 32.4017 3.40095 32.4707 3.42141C32.6608 3.47957 32.8428 3.55099 33.0227 3.63585C33.0695 3.6576 33.1164 3.67871 33.1637 3.69928C33.34 3.77597 33.5098 3.85952 33.6782 3.95237C33.6946 3.96115 33.711 3.96993 33.728 3.97897C33.8701 4.05506 34.0088 4.13712 34.1472 4.21976C34.1759 4.23668 34.2049 4.25298 34.2339 4.26916C34.2516 4.28091 34.2516 4.28091 34.2696 4.2929C34.2696 4.30473 34.2696 4.31656 34.2696 4.32874C34.279 4.33004 34.2884 4.33133 34.2981 4.33266C34.3597 4.35262 34.408 4.3898 34.4601 4.42732C34.5327 4.48056 34.5327 4.48056 34.6102 4.52589C34.6102 4.53772 34.6102 4.54955 34.6102 4.56174C34.6226 4.56585 34.635 4.56996 34.6478 4.5742C34.711 4.60264 34.7616 4.64171 34.8152 4.68495C34.8313 4.69779 34.8313 4.69779 34.8478 4.71088C34.941 4.78563 35.0319 4.86312 35.122 4.94174C35.1761 4.98986 35.1761 4.98986 35.2375 5.02772C35.2375 5.03955 35.2375 5.05138 35.2375 5.06357C35.2552 5.06948 35.2729 5.0754 35.2912 5.08149C35.2912 5.09332 35.2912 5.10515 35.2912 5.11734C35.3016 5.12214 35.3119 5.12695 35.3226 5.1319C35.3639 5.15371 35.3991 5.17654 35.4346 5.20695C35.4346 5.21878 35.4346 5.23061 35.4346 5.24279C35.4523 5.24871 35.4701 5.25462 35.4884 5.26072C35.4884 5.27255 35.4884 5.28437 35.4884 5.29656C35.5002 5.29656 35.512 5.29656 35.5242 5.29656C35.6097 5.37367 35.6097 5.37367 35.6317 5.43994C35.6436 5.43994 35.6554 5.43994 35.6676 5.43994C35.6676 5.45177 35.6676 5.4636 35.6676 5.47579C35.6853 5.4817 35.7031 5.48762 35.7214 5.49371C35.7214 5.50554 35.7214 5.51737 35.7214 5.52955C35.7332 5.52955 35.745 5.52955 35.7572 5.52955C35.7572 5.54138 35.7572 5.55321 35.7572 5.5654C35.769 5.5654 35.7809 5.5654 35.7931 5.5654C35.8827 5.66355 35.8827 5.66355 35.8827 5.70878C35.9004 5.71469 35.9182 5.72061 35.9364 5.7267C35.963 5.75596 35.9882 5.7864 36.0126 5.81744C36.0615 5.87874 36.1105 5.93929 36.1627 5.99778C36.3487 6.20855 36.3487 6.20855 36.3487 6.26438C36.3605 6.26438 36.3723 6.26438 36.3845 6.26438C36.4311 6.32705 36.466 6.3879 36.492 6.46153C36.5039 6.46153 36.5157 6.46153 36.5279 6.46153C36.5816 6.54011 36.5816 6.54011 36.5816 6.58699C36.5935 6.58699 36.6053 6.58699 36.6175 6.58699C36.6271 6.60413 36.6367 6.62127 36.6465 6.63893C36.6944 6.7226 36.7461 6.80368 36.7978 6.88495C36.8255 6.92856 36.8532 6.97218 36.8808 7.01589C36.8996 7.04567 36.9187 7.07532 36.9378 7.10492C36.958 7.14259 36.958 7.14259 36.958 7.19635C36.9698 7.19635 36.9817 7.19635 36.9939 7.19635C37.1832 7.57497 37.1832 7.57497 37.204 7.61697C37.2212 7.6511 37.2387 7.68505 37.2564 7.71891C37.3316 7.86462 37.3921 8.01178 37.4475 8.16598C37.4661 8.21722 37.486 8.26796 37.5058 8.31875C37.5777 8.50561 37.6437 8.69215 37.6965 8.88528C37.7088 8.93357 37.7088 8.93357 37.7287 8.97069C37.7294 9.00653 37.7295 9.04239 37.7287 9.07822C37.7405 9.07822 37.7523 9.07822 37.7645 9.07822C37.7693 9.10093 37.7741 9.12364 37.779 9.14704C37.7854 9.1775 37.7917 9.20795 37.7981 9.23841C37.8028 9.26074 37.8028 9.26074 37.8076 9.28353C37.8228 9.35583 37.8382 9.42807 37.8543 9.50017C37.9039 9.7225 37.9493 9.94239 37.9674 10.1698C37.9725 10.2442 37.9725 10.2442 37.9978 10.3133C38.0197 10.3597 38.0199 10.3936 38.0199 10.4448C38.0201 10.4736 38.0201 10.4736 38.0202 10.503C38.0201 10.5241 38.02 10.5453 38.02 10.567C38.02 10.5896 38.0201 10.6121 38.0201 10.6353C38.0203 10.6981 38.0202 10.7609 38.0201 10.8237C38.02 10.8919 38.0201 10.9601 38.0202 11.0283C38.0203 11.148 38.0203 11.2676 38.0202 11.3873C38.0201 11.5652 38.0201 11.7431 38.0203 11.9211C38.0204 12.2388 38.0204 12.5565 38.0203 12.8743C38.0202 13.1523 38.0202 13.4303 38.0202 13.7084C38.0203 13.736 38.0202 13.736 38.0203 13.7642C38.0203 13.839 38.0203 13.9138 38.0203 13.9885C38.0204 14.6904 38.0203 15.3922 38.0201 16.0941C38.0199 16.7181 38.02 17.3421 38.0201 17.9661C38.0203 18.6666 38.0204 19.3671 38.0203 20.0677C38.0203 20.1423 38.0203 20.217 38.0202 20.2916C38.0202 20.31 38.0202 20.3284 38.0202 20.3473C38.0202 20.6252 38.0202 20.9031 38.0203 21.181C38.0204 21.497 38.0204 21.8129 38.0202 22.1288C38.0201 22.3057 38.0201 22.4827 38.0202 22.6596C38.0203 22.7776 38.0203 22.8957 38.0201 23.0137C38.02 23.0811 38.02 23.1484 38.0201 23.2158C38.0203 23.2882 38.0201 23.3606 38.02 23.433C38.02 23.4541 38.0201 23.4752 38.0202 23.497C38.0201 23.5162 38.02 23.5354 38.0199 23.5552C38.0199 23.58 38.0199 23.58 38.0199 23.6054C38.0152 23.6521 38.0023 23.6804 37.9796 23.721C37.9722 23.7571 37.9722 23.7571 37.9695 23.7949C37.9682 23.8089 37.9669 23.823 37.9655 23.8374C37.9643 23.8522 37.963 23.867 37.9617 23.8823C37.9456 24.0502 37.9256 24.2152 37.8822 24.3786C37.8684 24.435 37.8575 24.4918 37.8463 24.5488C37.8217 24.6738 37.794 24.7978 37.7645 24.9218C37.7527 24.9218 37.7409 24.9218 37.7287 24.9218C37.7298 24.9451 37.7298 24.9451 37.7309 24.9688C37.7286 25.0327 37.7137 25.0766 37.6928 25.1368C37.6815 25.1771 37.6703 25.2175 37.6592 25.2578C37.6339 25.347 37.6055 25.4323 37.5697 25.5178C37.544 25.5803 37.5204 25.6436 37.4968 25.707C37.4875 25.732 37.4781 25.7569 37.4687 25.7818C37.4523 25.8258 37.4361 25.8698 37.4202 25.9139C37.3654 26.0622 37.2975 26.2014 37.2253 26.3417C37.2042 26.3828 37.1836 26.424 37.163 26.4654C37.1066 26.5781 37.0502 26.6909 36.9939 26.8036C36.982 26.8036 36.9702 26.8036 36.958 26.8036C36.956 26.8168 36.954 26.83 36.9519 26.8435C36.9397 26.895 36.9229 26.9278 36.8944 26.9721C36.8806 26.9939 36.8806 26.9939 36.8664 27.0161C36.8567 27.031 36.847 27.0459 36.837 27.0613C36.8229 27.0835 36.8229 27.0835 36.8085 27.1061C36.7654 27.1733 36.7214 27.2394 36.6743 27.3039C36.6335 27.3563 36.6335 27.3563 36.6175 27.413C36.6057 27.413 36.5938 27.413 36.5816 27.413C36.5733 27.4341 36.5733 27.4341 36.5648 27.4556C36.5458 27.5026 36.5458 27.5026 36.5279 27.5385C36.516 27.5385 36.5042 27.5385 36.492 27.5385C36.4876 27.551 36.4832 27.5636 36.4786 27.5766C36.4531 27.6352 36.4226 27.6844 36.3845 27.7356C36.3727 27.7356 36.3608 27.7356 36.3487 27.7356C36.3444 27.7452 36.3401 27.7548 36.3358 27.7647C36.3064 27.8192 36.27 27.8671 36.2322 27.916C36.2204 27.9312 36.2204 27.9312 36.2085 27.9467C36.1401 28.0343 36.0668 28.1162 35.9908 28.1973C35.9521 28.2379 35.9521 28.2379 35.9185 28.2912C35.9067 28.2912 35.8949 28.2912 35.8827 28.2912C35.8755 28.3067 35.8755 28.3067 35.8681 28.3226C35.8463 28.3639 35.8235 28.3991 35.7931 28.4346C35.7812 28.4346 35.7694 28.4346 35.7572 28.4346C35.7572 28.4464 35.7572 28.4583 35.7572 28.4704C35.7454 28.4704 35.7335 28.4704 35.7214 28.4704C35.7214 28.4823 35.7214 28.4941 35.7214 28.5063C35.6918 28.5306 35.6619 28.5544 35.6317 28.578C35.6258 28.5898 35.6199 28.6016 35.6138 28.6138C35.602 28.6138 35.5902 28.6138 35.578 28.6138C35.578 28.6257 35.578 28.6375 35.578 28.6497C35.5533 28.6788 35.5533 28.6788 35.5242 28.7034C35.5124 28.7034 35.5006 28.7034 35.4884 28.7034C35.4884 28.7153 35.4884 28.7271 35.4884 28.7393C35.4589 28.7696 35.4589 28.7696 35.42 28.8031C35.4074 28.8142 35.3947 28.8254 35.3816 28.8368C35.345 28.8647 35.345 28.8647 35.2912 28.8827C35.2853 28.9004 35.2794 28.9182 35.2733 28.9364C35.2615 28.9364 35.2496 28.9364 35.2375 28.9364C35.2375 28.9483 35.2375 28.9601 35.2375 28.9723C35.1753 29.0301 35.1071 29.0811 35.0403 29.1336C35.0299 29.1419 35.0194 29.1501 35.0087 29.1587C34.9771 29.1836 34.9454 29.2085 34.9137 29.2333C34.9037 29.2412 34.8937 29.2491 34.8833 29.2573C34.8115 29.3128 34.8115 29.3128 34.7715 29.3128C34.7715 29.3246 34.7715 29.3365 34.7715 29.3487C34.7453 29.3718 34.7453 29.3718 34.711 29.3957C34.6941 29.4077 34.6941 29.4077 34.677 29.4199C34.646 29.4383 34.646 29.4383 34.6102 29.4383C34.6102 29.4501 34.6102 29.4619 34.6102 29.4741C34.5702 29.5038 34.5702 29.5038 34.5172 29.5368C34.4999 29.5477 34.4827 29.5586 34.4649 29.5699C34.4185 29.5965 34.3736 29.6171 34.3234 29.6354C34.3234 29.6472 34.3234 29.6591 34.3234 29.6713C34.3057 29.6713 34.2879 29.6713 34.2696 29.6713C34.2696 29.6831 34.2696 29.6949 34.2696 29.7071C34.2431 29.7276 34.2431 29.7276 34.206 29.7499C34.1857 29.7623 34.1857 29.7623 34.165 29.7749C34.143 29.7879 34.143 29.7879 34.1207 29.8012C34.0983 29.8146 34.0983 29.8146 34.0755 29.8283C33.9684 29.8924 33.8603 29.9537 33.7499 30.0118C33.7244 30.0255 33.699 30.0393 33.6736 30.053C33.5051 30.1436 33.3351 30.2267 33.1593 30.3023C33.1101 30.3236 33.0621 30.3465 33.0143 30.371C32.9467 30.4053 32.8779 30.4329 32.8067 30.4587C32.7944 30.4633 32.7821 30.4678 32.7694 30.4725C32.7318 30.4863 32.6942 30.5 32.6566 30.5136C32.6452 30.5178 32.6337 30.522 32.6219 30.5263C32.5047 30.5693 32.3874 30.6104 32.2673 30.6449C32.2371 30.6538 32.2071 30.6636 32.1772 30.6737C31.9094 30.7618 31.6338 30.8234 31.3574 30.8776C31.3195 30.8851 31.2817 30.8927 31.2439 30.9007C31.1535 30.9198 31.0646 30.9322 30.9724 30.9394C30.9349 30.9418 30.9349 30.9418 30.9002 30.9617C30.8678 30.9653 30.8353 30.9682 30.8027 30.9706C30.7467 30.9748 30.7028 30.9797 30.6493 30.9975C30.6187 30.9992 30.5881 30.9998 30.5575 30.9998C30.5288 30.9998 30.5288 30.9998 30.4995 30.9999C30.4783 30.9999 30.4572 30.9998 30.4354 30.9998C30.4017 30.9998 30.4017 30.9998 30.3673 30.9999C30.3045 30.9999 30.2418 30.9999 30.179 30.9998C30.1109 30.9998 30.0428 30.9998 29.9746 30.9999C29.8551 31 29.7355 31 29.616 30.9999C29.4382 30.9998 29.2605 30.9999 29.0827 30.9999C28.7653 31 28.4479 31 28.1305 31C27.8527 30.9999 27.5749 30.9999 27.2971 30.9999C27.2787 30.9999 27.2603 30.9999 27.2414 30.9999C27.1667 30.9999 27.092 30.9999 27.0173 30.9999C26.3162 31 25.6151 31 24.914 30.9999C24.2906 30.9998 23.6672 30.9998 23.0438 30.9999C22.344 31 21.6442 31 20.9444 30.9999C20.8699 30.9999 20.7953 30.9999 20.7208 30.9999C20.7024 30.9999 20.6841 30.9999 20.6652 30.9999C20.3875 30.9999 20.1099 30.9999 19.8322 31C19.5166 31 19.201 31 18.8854 30.9999C18.7086 30.9999 18.5319 30.9999 18.3551 30.9999C18.2372 31 18.1192 30.9999 18.0013 30.9999C17.934 30.9998 17.8667 30.9998 17.7994 30.9999C17.7271 30.9999 17.6548 30.9999 17.5825 30.9998C17.5508 30.9998 17.5508 30.9998 17.5184 30.9999C17.4993 30.9999 17.4801 30.9998 17.4604 30.9998C17.4439 30.9998 17.4273 30.9998 17.4103 30.9998C17.3686 30.9975 17.3686 30.9975 17.3149 30.9796C17.2595 30.9741 17.204 30.9705 17.1485 30.9667C17.0998 30.9617 17.0998 30.9617 17.064 30.9438C17.0396 30.9401 17.0151 30.9372 16.9905 30.9348C16.9762 30.9333 16.9618 30.9318 16.947 30.9303C16.9166 30.9273 16.8862 30.9243 16.8559 30.9214C16.7432 30.9097 16.7432 30.9097 16.7234 30.89C16.6957 30.8838 16.6678 30.8786 16.6398 30.8738C16.6141 30.8693 16.6141 30.8693 16.5878 30.8647C16.5607 30.86 16.5607 30.86 16.533 30.8553C16.4211 30.836 16.3124 30.8156 16.2037 30.7825C16.1675 30.7733 16.1313 30.7644 16.095 30.7556C16.0224 30.7376 15.9518 30.7175 15.8811 30.6928C15.8509 30.6838 15.8206 30.6748 15.7903 30.666C15.7294 30.6478 15.6711 30.6274 15.6122 30.6032C15.576 30.5912 15.5398 30.5791 15.5036 30.5671C15.4336 30.5437 15.3638 30.5198 15.2941 30.4957C15.281 30.4912 15.2678 30.4868 15.2543 30.4822C15.1826 30.4572 15.1215 30.4283 15.0566 30.3882C15.0248 30.3754 14.9927 30.3635 14.9603 30.3523C14.8833 30.3252 14.8086 30.2958 14.734 30.2627C14.734 30.2509 14.734 30.239 14.734 30.2269C14.7215 30.225 14.7089 30.2231 14.696 30.2211C14.5883 30.1957 14.491 30.1349 14.3935 30.0835C14.3735 30.073 14.3735 30.073 14.3532 30.0623C13.8278 29.7846 13.3097 29.4489 12.8732 29.0432C12.8214 28.9966 12.7666 28.9547 12.7107 28.9132C12.6648 28.8761 12.6248 28.8349 12.5833 28.7931C12.5518 28.7618 12.5203 28.7305 12.4888 28.6992C12.4616 28.6721 12.4345 28.6451 12.4073 28.618C12.3888 28.5996 12.3703 28.5812 12.3518 28.5628C12.2457 28.4576 12.1424 28.3514 12.0456 28.2375C12.0325 28.2229 12.0194 28.2083 12.0059 28.1933C11.9958 28.182 11.9856 28.1707 11.9751 28.159C11.9646 28.1474 11.9541 28.1358 11.9432 28.1239C11.9202 28.0941 11.9202 28.0941 11.9202 28.0582C11.9084 28.0582 11.8965 28.0582 11.8843 28.0582C11.8512 28.0193 11.82 27.9802 11.7891 27.9395C11.772 27.9172 11.7549 27.895 11.7378 27.8727C11.7294 27.8617 11.721 27.8507 11.7123 27.8394C11.6887 27.8092 11.6643 27.78 11.6394 27.7509C11.6021 27.7053 11.5733 27.6609 11.5438 27.6102C11.521 27.5782 11.4978 27.5465 11.4744 27.5149C11.3108 27.2917 11.3108 27.2917 11.3108 27.2338C11.299 27.2338 11.2872 27.2338 11.275 27.2338C11.2646 27.2153 11.2543 27.1968 11.2436 27.1778C11.2184 27.1333 11.1922 27.0923 11.163 27.0501C11.1316 27.0008 11.1316 27.0008 11.1316 26.947C11.1198 26.947 11.1079 26.947 11.0957 26.947C11.0854 26.926 11.075 26.9049 11.0644 26.8832C11.0393 26.8326 11.0127 26.7838 10.9837 26.7353C10.9524 26.6782 10.9524 26.6782 10.9524 26.6244C10.9405 26.6244 10.9287 26.6244 10.9165 26.6244C10.8984 26.5902 10.8805 26.5558 10.8628 26.5214C10.8478 26.4927 10.8478 26.4927 10.8325 26.4634C10.809 26.4094 10.809 26.4094 10.809 26.3377C10.7972 26.3377 10.7853 26.3377 10.7731 26.3377C10.7688 26.3264 10.7645 26.3151 10.76 26.3035C10.7254 26.2151 10.6889 26.1302 10.6429 26.0471C10.6298 26.0151 10.6298 26.0151 10.6298 25.9434C10.6179 25.9434 10.6061 25.9434 10.5939 25.9434C10.397 25.4044 10.397 25.4044 10.352 25.2332C10.3369 25.1763 10.3208 25.1271 10.2971 25.073C10.2687 25.0052 10.2556 24.9409 10.2432 24.8687C10.239 24.8324 10.239 24.8324 10.2175 24.8142C10.215 24.7958 10.2124 24.7773 10.2097 24.7582C10.2014 24.69 10.2014 24.69 10.1827 24.6305C10.1634 24.5619 10.1494 24.4933 10.1369 24.4233C10.1323 24.398 10.1277 24.3726 10.123 24.3473C10.1208 24.3351 10.1186 24.323 10.1163 24.3105C10.1081 24.2665 10.099 24.2228 10.0898 24.1791C10.0755 24.1092 10.0669 24.0396 10.0607 23.9685C10.0578 23.9343 10.0578 23.9343 10.0383 23.9002C10.0347 23.8678 10.0318 23.8353 10.0294 23.8027C10.0252 23.7467 10.0203 23.7028 10.0025 23.6493C10.0008 23.6187 10.0002 23.588 10.0002 23.5574C10.0002 23.5286 10.0002 23.5286 10.0001 23.4993C10.0001 23.4781 10.0002 23.4569 10.0002 23.4351C10.0002 23.4126 10.0002 23.3901 10.0001 23.3669C10.0001 23.3041 10.0001 23.2412 10.0002 23.1784C10.0002 23.1102 10.0002 23.0419 10.0001 22.9737C10 22.854 10 22.7343 10.0001 22.6146C10.0002 22.4366 10.0001 22.2586 10.0001 22.0806C9.99998 21.7628 9.99999 21.4449 10 21.1271C10.0001 20.8489 10.0001 20.5708 10.0001 20.2926C10.0001 20.265 10.0001 20.265 10.0001 20.2368C10.0001 20.162 10.0001 20.0872 10.0001 20.0124C10 19.3104 10 18.6083 10.0001 17.9062C10.0002 17.282 10.0002 16.6578 10.0001 16.0336C10 15.3328 10 14.6321 10.0001 13.9313C10.0001 13.8567 10.0001 13.782 10.0001 13.7074C10.0001 13.6798 10.0001 13.6798 10.0001 13.6517C10.0001 13.3737 10.0001 13.0956 10 12.8176C9.99998 12.5016 9.99999 12.1856 10.0001 11.8696C10.0001 11.6925 10.0001 11.5155 10.0001 11.3385C10 11.2204 10.0001 11.1023 10.0001 10.9843C10.0002 10.9169 10.0002 10.8495 10.0001 10.7821C10.0001 10.7097 10.0001 10.6373 10.0002 10.5649C10.0002 10.5437 10.0001 10.5225 10.0001 10.5007C10.0001 10.4815 10.0002 10.4624 10.0002 10.4426C10.0002 10.426 10.0002 10.4095 10.0002 10.3924C10.0025 10.3507 10.0025 10.3507 10.0204 10.297C10.0258 10.2462 10.0295 10.1954 10.0333 10.1445C10.0383 10.0998 10.0383 10.0998 10.0562 10.064C10.062 10.0169 10.0672 9.96997 10.0719 9.92282C10.0841 9.81072 10.103 9.70455 10.1328 9.5956C10.1517 9.52129 10.1628 9.44616 10.174 9.37038C10.1817 9.32914 10.1817 9.32914 10.1996 9.31122C10.2035 9.28294 10.2035 9.28294 10.2075 9.25409C10.2169 9.19043 10.2328 9.13894 10.2534 9.07822C10.2622 9.04355 10.2707 9.00882 10.2792 8.97405C10.2986 8.89498 10.3208 8.81827 10.3476 8.74141C10.3619 8.69903 10.3743 8.65634 10.3867 8.61336C10.4088 8.53893 10.4356 8.4678 10.4652 8.39605C10.4928 8.3274 10.5187 8.25815 10.5446 8.18882C10.5495 8.17584 10.5543 8.16287 10.5593 8.1495C10.5709 8.11855 10.5824 8.08759 10.5939 8.05664C10.6057 8.05664 10.6176 8.05664 10.6298 8.05664C10.6328 8.03778 10.6328 8.03778 10.636 8.01855C10.6488 7.96199 10.6685 7.91275 10.6914 7.85949C10.7193 7.79402 10.747 7.72855 10.7731 7.66234C10.785 7.66234 10.7968 7.66234 10.809 7.66234C10.812 7.64338 10.812 7.64338 10.8151 7.62405C10.828 7.56782 10.8483 7.52073 10.8728 7.46855C10.881 7.45106 10.8891 7.43357 10.8976 7.41556C10.9069 7.39577 10.9069 7.39577 10.9165 7.37558C10.9284 7.37558 10.9402 7.37558 10.9524 7.37558C10.9544 7.3656 10.9565 7.35562 10.9586 7.34534C10.9719 7.29802 10.9915 7.25799 11.014 7.21428C11.0217 7.19912 11.0295 7.18396 11.0374 7.16835C11.0486 7.14673 11.0486 7.14672 11.0599 7.12466C11.0719 7.10078 11.0838 7.07689 11.0957 7.05297C11.1076 7.05297 11.1194 7.05297 11.1316 7.05297C11.1334 7.04283 11.1353 7.03269 11.1372 7.02224C11.1518 6.97385 11.1742 6.94076 11.2033 6.89951C11.2356 6.85352 11.2571 6.81988 11.275 6.76621C11.2868 6.76621 11.2986 6.76621 11.3108 6.76621C11.3153 6.75401 11.3197 6.74182 11.3243 6.72925C11.351 6.66641 11.3837 6.61 11.4184 6.55114C11.4302 6.55114 11.442 6.55114 11.4542 6.55114C11.459 6.5382 11.4638 6.52527 11.4688 6.51194C11.5236 6.38201 11.5236 6.38201 11.5797 6.35399C11.5977 6.32418 11.6156 6.29429 11.6334 6.26438C11.6652 6.22132 11.6986 6.17959 11.732 6.1378C11.7494 6.11594 11.7667 6.09407 11.7841 6.0722C11.7922 6.06206 11.8003 6.05191 11.8087 6.04146C11.8269 6.01812 11.8443 5.99406 11.8614 5.96985C11.869 5.96058 11.8765 5.95132 11.8843 5.94177C11.8962 5.94177 11.908 5.94177 11.9202 5.94177C11.9246 5.93161 11.9291 5.92144 11.9337 5.91097C11.9595 5.86367 11.9901 5.82907 12.0266 5.78943C12.0485 5.76562 12.0485 5.76562 12.0708 5.74134C12.0938 5.71635 12.0938 5.71635 12.1173 5.69086C12.1318 5.67475 12.1462 5.65865 12.1611 5.64206C12.2612 5.53098 12.3647 5.42375 12.4702 5.31784C12.4827 5.30521 12.4953 5.29257 12.5082 5.27954C12.5901 5.19793 12.675 5.12106 12.7625 5.04565C12.7844 5.026 12.7844 5.026 12.8067 5.00595C12.818 4.99576 12.8293 4.98557 12.841 4.97508C12.8526 4.96456 12.8642 4.95405 12.8761 4.94322C12.9059 4.92019 12.9059 4.92019 12.9418 4.92019C12.9418 4.90836 12.9418 4.89653 12.9418 4.88434C12.9797 4.84948 12.9797 4.84948 13.0291 4.81041C13.0454 4.79743 13.0616 4.78444 13.0783 4.77107C13.121 4.74096 13.121 4.74096 13.1568 4.74096C13.1568 4.72913 13.1568 4.7173 13.1568 4.70512C13.2195 4.65848 13.2804 4.62357 13.354 4.59758C13.354 4.58575 13.354 4.57392 13.354 4.56174C13.3922 4.53193 13.4303 4.50467 13.4705 4.47772C13.4831 4.46916 13.4958 4.4606 13.5088 4.45178C13.9357 4.16523 14.3869 3.86644 14.8698 3.6822C14.9844 3.63845 15.0976 3.59041 15.209 3.53903C15.3049 3.49591 15.4046 3.46476 15.5047 3.43261C15.5316 3.42369 15.5585 3.41474 15.5854 3.40573C15.5983 3.40143 15.6113 3.39714 15.6246 3.39271C15.6539 3.38289 15.6832 3.37288 15.7124 3.36274C15.939 3.28503 16.1703 3.22446 16.4031 3.16826C16.4186 3.16448 16.434 3.1607 16.45 3.15681C16.5205 3.14011 16.5897 3.12583 16.6617 3.11757C16.7203 3.11683 16.7203 3.11683 16.7414 3.09209C16.7948 3.08535 16.848 3.07942 16.9015 3.07416C16.9312 3.07124 16.9609 3.06826 16.9905 3.0652C17.0037 3.06391 17.017 3.06261 17.0306 3.06128C17.0655 3.05776 17.0655 3.05776 17.0998 3.03832C17.1352 3.03465 17.1707 3.03177 17.2062 3.02936C17.2937 3.0234 17.3729 3.00023 17.4604 3.00023ZM17.6375 4.02406C17.5998 4.02696 17.5621 4.02905 17.5244 4.03078C17.4066 4.03736 17.2905 4.05104 17.1737 4.06775C17.1504 4.07103 17.1504 4.07103 17.1267 4.07439C17.039 4.08727 16.953 4.10341 16.8669 4.12397C16.831 4.1316 16.7958 4.13602 16.7593 4.13944C16.692 4.14687 16.6333 4.16706 16.5698 4.18977C16.5219 4.20465 16.4749 4.21315 16.4255 4.22121C16.3447 4.23466 16.2787 4.25957 16.2037 4.2929C16.178 4.29903 16.1523 4.3046 16.1264 4.3097C16.0504 4.3252 15.9832 4.35142 15.912 4.38139C15.8586 4.40219 15.805 4.41816 15.75 4.43404C15.6438 4.46562 15.5464 4.50834 15.4469 4.55691C15.4058 4.57572 15.3696 4.5888 15.3255 4.59758C15.3255 4.60941 15.3255 4.62124 15.3255 4.63343C15.3031 4.63585 15.3031 4.63585 15.2802 4.63833C15.2077 4.6535 15.1475 4.68232 15.0824 4.71632C15.0637 4.72587 15.0637 4.72587 15.0446 4.73562C14.9455 4.78653 14.8473 4.83909 14.7496 4.89253C14.6971 4.92077 14.6441 4.94756 14.5907 4.97396C14.5907 4.98578 14.5907 4.99761 14.5907 5.0098C14.5786 5.011 14.5665 5.0122 14.554 5.01344C14.4822 5.03281 14.4305 5.07052 14.37 5.11286C14.3461 5.12921 14.3223 5.14555 14.2984 5.16186C14.287 5.16968 14.2757 5.1775 14.2639 5.18556C14.2247 5.21202 14.1844 5.23651 14.1437 5.26072C14.1165 5.27846 14.1165 5.27846 14.0888 5.29656C14.0888 5.30839 14.0888 5.32022 14.0888 5.33241C14.0748 5.33795 14.0607 5.3435 14.0463 5.34921C14.0006 5.36697 14.0006 5.36697 13.9634 5.38617C13.9634 5.398 13.9634 5.40983 13.9634 5.42202C13.9397 5.42793 13.916 5.43385 13.8917 5.43994C13.8917 5.45177 13.8917 5.4636 13.8917 5.47579C13.8794 5.4796 13.8671 5.48341 13.8544 5.48734C13.786 5.51908 13.737 5.56359 13.6811 5.61357C13.6588 5.63311 13.6365 5.65262 13.6142 5.6721C13.6034 5.68151 13.5927 5.69092 13.5816 5.70062C13.5311 5.74387 13.4784 5.78392 13.4251 5.82353C13.3802 5.85999 13.3409 5.90075 13.3002 5.94177C13.2698 5.97198 13.2394 6.00218 13.209 6.03237C13.183 6.05827 13.1569 6.08419 13.1309 6.1101C13.1131 6.12777 13.0954 6.14543 13.0776 6.16307C12.9318 6.30667 12.9318 6.30667 12.7984 6.46153C12.7984 6.47336 12.7984 6.48519 12.7984 6.49737C12.7866 6.49737 12.7747 6.49737 12.7625 6.49737C12.7047 6.55957 12.6537 6.62779 12.6012 6.69452C12.5873 6.71201 12.5733 6.7295 12.559 6.74752C12.3836 6.97069 12.2235 7.20586 12.0772 7.44902C12.0465 7.49963 12.0143 7.54902 11.9818 7.59849C11.9231 7.69027 11.8749 7.78564 11.8273 7.88357C11.8058 7.92758 11.7832 7.9707 11.7594 8.01351C11.6773 8.1611 11.6124 8.31021 11.5533 8.46837C11.5331 8.52229 11.5113 8.5747 11.4867 8.6268C11.4491 8.70808 11.4254 8.79305 11.4009 8.87905C11.3825 8.93484 11.3825 8.93484 11.3546 8.99008C11.3303 9.03929 11.3186 9.07823 11.3097 9.13199C11.2981 9.20066 11.2797 9.26328 11.2571 9.32914C11.2145 9.4665 11.1789 9.60199 11.1573 9.74423C11.1495 9.79544 11.1404 9.84621 11.1305 9.89706C11.1263 9.91879 11.1263 9.91879 11.122 9.94096C11.1137 9.97435 11.1137 9.97435 11.0957 9.99227C11.0919 10.0169 11.0891 10.0418 11.0868 10.0666C11.0853 10.0817 11.0838 10.0968 11.0823 10.1123C11.0808 10.1281 11.0794 10.144 11.0778 10.1603C11.0749 10.1914 11.0719 10.2226 11.0689 10.2537C11.0669 10.2745 11.0669 10.2745 11.0649 10.2957C11.0599 10.3328 11.0599 10.3328 11.042 10.3866C11.0383 10.4314 11.0353 10.4761 11.033 10.521C11.0265 10.6481 11.0265 10.6481 11.0061 10.7092C11.0045 10.7383 11.0039 10.7675 11.0039 10.7966C11.0038 10.8148 11.0038 10.8329 11.0038 10.8517C11.0038 10.8717 11.0038 10.8918 11.0039 10.9125C11.0039 10.9338 11.0038 10.9551 11.0038 10.9771C11.0037 11.0366 11.0038 11.0962 11.0038 11.1557C11.0039 11.2204 11.0038 11.2851 11.0038 11.3497C11.0037 11.4631 11.0037 11.5766 11.0038 11.69C11.0038 11.8587 11.0038 12.0273 11.0037 12.196C11.0036 12.4972 11.0037 12.7984 11.0037 13.0996C11.0037 13.3631 11.0038 13.6267 11.0037 13.8903C11.0037 13.9077 11.0037 13.9252 11.0037 13.9432C11.0037 14.014 11.0037 14.0849 11.0037 14.1558C11.0037 14.821 11.0037 15.4862 11.0038 16.1514C11.0039 16.7429 11.0039 17.3344 11.0038 17.9259C11.0037 18.5899 11.0037 19.2539 11.0037 19.9179C11.0037 19.9886 11.0037 20.0593 11.0037 20.1301C11.0037 20.1475 11.0037 20.1649 11.0037 20.1828C11.0038 20.4463 11.0037 20.7097 11.0037 20.9732C11.0036 21.2726 11.0037 21.5721 11.0038 21.8715C11.0038 22.0393 11.0038 22.207 11.0037 22.3748C11.0037 22.4866 11.0037 22.5985 11.0038 22.7104C11.0038 22.7742 11.0039 22.8381 11.0038 22.902C11.0037 22.9705 11.0038 23.0391 11.0039 23.1077C11.0038 23.1278 11.0038 23.1479 11.0038 23.1686C11.0038 23.1958 11.0038 23.1958 11.0039 23.2236C11.0039 23.2393 11.0039 23.255 11.0039 23.2712C11.0037 23.3098 11.0037 23.3098 11.0241 23.3446C11.0274 23.3819 11.0298 23.4192 11.0319 23.4566C11.0406 23.5879 11.0572 23.7165 11.0778 23.8464C11.0799 23.8597 11.082 23.8729 11.0841 23.8866C11.0909 23.9292 11.0978 23.9718 11.1047 24.0144C11.1079 24.0343 11.1079 24.0343 11.1111 24.0545C11.1257 24.1418 11.145 24.2268 11.1674 24.3124C11.1734 24.3361 11.1794 24.3598 11.1854 24.3835C11.1883 24.3951 11.1912 24.4068 11.1943 24.4188C11.217 24.5093 11.2398 24.5997 11.2593 24.691C11.2731 24.7522 11.2903 24.8089 11.3108 24.868C11.3191 24.8964 11.3273 24.9247 11.3355 24.9531C11.3585 25.0308 11.387 25.1047 11.4179 25.1795C11.4374 25.2293 11.4537 25.2796 11.4699 25.3306C11.5026 25.4309 11.5447 25.5245 11.59 25.6196C11.6112 25.6652 11.6295 25.7103 11.6469 25.7574C11.7405 25.9969 11.8794 26.2241 12.0098 26.4452C12.0205 26.4634 12.0313 26.4817 12.0424 26.5004C12.1822 26.7326 12.3385 26.9547 12.4971 27.1744C12.5053 27.1859 12.5135 27.1974 12.5219 27.2093C12.5415 27.2361 12.5623 27.2619 12.5833 27.2876C12.5952 27.2876 12.607 27.2876 12.6192 27.2876C12.631 27.3171 12.6428 27.3467 12.655 27.3772C12.6668 27.3772 12.6787 27.3772 12.6909 27.3772C12.6986 27.3932 12.6986 27.3932 12.7065 27.4097C12.7276 27.4523 12.7276 27.4523 12.7625 27.5026C12.7744 27.5026 12.7862 27.5026 12.7984 27.5026C12.8024 27.5123 12.8064 27.522 12.8106 27.532C12.8417 27.5876 12.8827 27.6313 12.9261 27.6774C12.9354 27.6873 12.9447 27.6973 12.9542 27.7076C13.0342 27.7926 13.116 27.8758 13.1983 27.9585C13.2101 27.9704 13.2218 27.9822 13.234 27.9945C13.3501 28.13 13.3501 28.13 13.4974 28.2016C13.5033 28.2194 13.5092 28.2371 13.5153 28.2554C13.5445 28.2823 13.575 28.3079 13.606 28.3327C13.6238 28.3468 13.6415 28.3609 13.6598 28.3755C13.6772 28.3891 13.6945 28.4027 13.7124 28.4167C13.7269 28.428 13.7413 28.4394 13.7561 28.4511C13.8173 28.5049 13.8173 28.5049 13.8917 28.5242C13.8917 28.536 13.8917 28.5479 13.8917 28.5601C13.9153 28.566 13.939 28.5719 13.9634 28.578C13.9634 28.5898 13.9634 28.6016 13.9634 28.6138C14.0211 28.6553 14.0211 28.6553 14.0888 28.6676C14.0888 28.6794 14.0888 28.6913 14.0888 28.7034C14.1247 28.7306 14.1247 28.7306 14.1717 28.7583C14.2327 28.7958 14.2934 28.8335 14.353 28.873C14.3698 28.8841 14.3698 28.8841 14.3869 28.8953C14.409 28.9099 14.431 28.9245 14.4529 28.9392C14.5163 28.9811 14.5163 28.9811 14.5907 28.9902C14.5907 29.002 14.5907 29.0139 14.5907 29.026C14.621 29.0411 14.621 29.0411 14.6519 29.0564C14.7211 29.0909 14.7894 29.1269 14.8577 29.1632C14.9939 29.2357 15.1303 29.3048 15.2717 29.3666C15.3038 29.3815 15.3359 29.3964 15.368 29.4114C15.5638 29.5075 15.5638 29.5075 15.7735 29.5458C15.7735 29.5576 15.7735 29.5695 15.7735 29.5816C15.7906 29.5864 15.8077 29.5912 15.8253 29.5961C15.8478 29.6024 15.8702 29.6087 15.8934 29.6152C15.9156 29.6215 15.9379 29.6277 15.9608 29.6342C16.0136 29.6501 16.0631 29.6686 16.1141 29.6892C16.146 29.6986 16.1782 29.7076 16.2104 29.7161C16.2644 29.7304 16.3181 29.745 16.3717 29.7609C16.4543 29.7837 16.5377 29.8019 16.6214 29.8203C16.6697 29.8326 16.6697 29.8326 16.6876 29.8505C16.7289 29.8568 16.7704 29.8623 16.8119 29.8673C16.8913 29.8772 16.97 29.8878 17.0483 29.9043C17.2189 29.9399 17.3881 29.9619 17.5621 29.9698C17.6519 29.9742 17.6519 29.9742 17.6913 29.9939C17.7197 29.9956 17.7482 29.9961 17.7767 29.9961C17.7949 29.9962 17.8131 29.9962 17.8318 29.9962C17.862 29.9962 17.862 29.9962 17.8929 29.9961C17.9143 29.9961 17.9356 29.9962 17.9576 29.9962C18.0174 29.9963 18.0771 29.9962 18.1369 29.9962C18.2017 29.9961 18.2666 29.9962 18.3314 29.9962C18.4452 29.9963 18.5589 29.9963 18.6727 29.9962C18.8419 29.9962 19.0111 29.9962 19.1803 29.9963C19.4824 29.9964 19.7845 29.9963 20.0866 29.9963C20.3509 29.9963 20.6153 29.9962 20.8797 29.9963C20.9059 29.9963 20.9059 29.9963 20.9327 29.9963C21.0038 29.9963 21.0749 29.9963 21.146 29.9963C21.8132 29.9963 22.4804 29.9963 23.1476 29.9962C23.7409 29.9961 24.3342 29.9961 24.9275 29.9962C25.5935 29.9963 26.2594 29.9963 26.9254 29.9963C26.9964 29.9963 27.0673 29.9963 27.1382 29.9963C27.1557 29.9963 27.1732 29.9963 27.1912 29.9963C27.4554 29.9962 27.7197 29.9963 27.9839 29.9963C28.2843 29.9964 28.5847 29.9963 28.885 29.9962C29.0533 29.9962 29.2216 29.9962 29.3898 29.9963C29.502 29.9963 29.6142 29.9963 29.7265 29.9962C29.7905 29.9962 29.8546 29.9961 29.9186 29.9962C29.9874 29.9963 30.0562 29.9962 30.125 29.9961C30.1452 29.9962 30.1654 29.9962 30.1861 29.9962C30.2134 29.9962 30.2134 29.9962 30.2412 29.9961C30.257 29.9961 30.2727 29.9961 30.289 29.9961C30.3277 29.9963 30.3277 29.9963 30.3625 29.9759C30.4032 29.9726 30.4439 29.9702 30.4846 29.9681C30.5948 29.9618 30.7023 29.9488 30.8113 29.9306C30.8603 29.9228 30.909 29.917 30.9584 29.9121C31.0219 29.9117 31.0219 29.9117 31.0436 29.8863C31.0823 29.88 31.1212 29.8746 31.1601 29.8695C31.3562 29.8426 31.5407 29.7909 31.7302 29.7351C31.7427 29.7314 31.7552 29.7278 31.768 29.724C31.7938 29.7164 31.8196 29.7088 31.8454 29.7012C31.8731 29.693 31.9008 29.6849 31.9286 29.6768C32.0421 29.6435 32.1534 29.6053 32.2645 29.5648C32.2813 29.5588 32.2981 29.5529 32.3154 29.5467C32.4042 29.5145 32.4885 29.4791 32.5723 29.4356C32.6109 29.4163 32.6502 29.403 32.6913 29.3901C32.8086 29.3489 32.9151 29.2899 33.0239 29.2306C33.0848 29.1975 33.1466 29.1667 33.2088 29.1363C33.3191 29.0815 33.423 29.0191 33.527 28.9532C33.5454 28.9417 33.5638 28.9301 33.5827 28.9181C33.7549 28.8092 33.9245 28.6963 34.0904 28.578C34.1102 28.5643 34.1102 28.5643 34.1304 28.5504C34.1409 28.5418 34.1513 28.5331 34.1621 28.5242C34.1621 28.5124 34.1621 28.5006 34.1621 28.4884C34.1717 28.4839 34.1813 28.4795 34.1912 28.4749C34.2442 28.447 34.2929 28.4161 34.3413 28.3808C34.3413 28.369 34.3413 28.3572 34.3413 28.345C34.3772 28.3271 34.413 28.3091 34.4489 28.2912C34.4489 28.2794 34.4489 28.2676 34.4489 28.2554C34.463 28.2498 34.463 28.2498 34.4774 28.2442C34.5393 28.2089 34.5868 28.161 34.6382 28.112C34.6587 28.0925 34.6793 28.0731 34.6998 28.0537C34.7089 28.0452 34.7179 28.0366 34.7272 28.0277C34.7535 28.0045 34.7535 28.0045 34.8073 27.9686C34.8073 27.9568 34.8073 27.945 34.8073 27.9328C34.8251 27.9269 34.8428 27.9209 34.8611 27.9148C34.8611 27.903 34.8611 27.8912 34.8611 27.879C34.8729 27.879 34.8847 27.879 34.8969 27.879C34.9268 27.8551 34.9268 27.8551 34.9507 27.8252C34.9507 27.8134 34.9507 27.8016 34.9507 27.7894C34.9625 27.7894 34.9743 27.7894 34.9865 27.7894C35.0122 27.7647 35.0122 27.7647 35.0392 27.7311C35.0865 27.6753 35.135 27.6208 35.1849 27.5672C35.2737 27.4718 35.3566 27.3741 35.4346 27.2696C35.4531 27.2455 35.4716 27.2213 35.49 27.1972C35.51 27.1709 35.53 27.1447 35.55 27.1184C35.5597 27.1057 35.5695 27.0929 35.5796 27.0798C35.5886 27.0678 35.5977 27.0558 35.607 27.0434C35.6152 27.0326 35.6235 27.0218 35.6319 27.0107C35.6529 26.9833 35.6529 26.9833 35.6497 26.947C35.6615 26.947 35.6733 26.947 35.6855 26.947C35.7127 26.9112 35.7127 26.9112 35.7404 26.8641C35.7779 26.8032 35.8156 26.7425 35.8551 26.6828C35.8661 26.666 35.8661 26.666 35.8774 26.6489C35.8919 26.6269 35.9066 26.6049 35.9213 26.5829C35.9632 26.5196 35.9632 26.5196 35.9723 26.4452C35.9841 26.4452 35.9959 26.4452 36.0081 26.4452C36.014 26.4156 36.02 26.386 36.026 26.3556C36.0379 26.3556 36.0497 26.3556 36.0619 26.3556C36.0693 26.3408 36.0767 26.326 36.0843 26.3108C36.0946 26.2901 36.105 26.2694 36.1157 26.248C36.1213 26.2368 36.1269 26.2255 36.1327 26.2139C36.1626 26.1539 36.1927 26.094 36.2232 26.0342C36.2966 25.8897 36.365 25.7438 36.4288 25.5947C36.4502 25.545 36.4724 25.4961 36.4954 25.4471C36.532 25.3654 36.5561 25.2804 36.5814 25.1946C36.6027 25.1268 36.6292 25.0623 36.6581 24.9974C36.673 24.9523 36.6736 24.9152 36.6713 24.868C36.6831 24.868 36.6949 24.868 36.7071 24.868C36.7119 24.8475 36.7166 24.8269 36.7215 24.8058C36.7279 24.7783 36.7343 24.7509 36.7407 24.7235C36.7438 24.71 36.7469 24.6965 36.7502 24.6827C36.7739 24.5811 36.8009 24.4811 36.8325 24.3816C36.8581 24.2831 36.8723 24.1834 36.8874 24.0828C36.8936 24.0423 36.8998 24.0019 36.906 23.9614C36.9087 23.9437 36.9114 23.9259 36.9141 23.9076C36.9222 23.8643 36.9222 23.8643 36.9401 23.8285C36.9439 23.7971 36.9467 23.7656 36.9491 23.7341C36.9505 23.7152 36.952 23.6963 36.9535 23.6768C36.9558 23.6471 36.9558 23.6471 36.958 23.6168C36.961 23.5778 36.9639 23.5389 36.967 23.4999C36.9683 23.4826 36.9696 23.4653 36.9709 23.4474C36.9759 23.3984 36.9759 23.3984 36.9851 23.3562C36.9939 23.3086 36.9961 23.2654 36.9961 23.2171C36.9962 23.1989 36.9962 23.1807 36.9963 23.1619C36.9962 23.142 36.9962 23.1221 36.9962 23.1016C36.9962 23.0803 36.9962 23.0589 36.9963 23.037C36.9963 22.9776 36.9963 22.9183 36.9963 22.8589C36.9962 22.7944 36.9963 22.7299 36.9964 22.6655C36.9965 22.5523 36.9965 22.4392 36.9965 22.3261C36.9965 22.1579 36.9965 21.9897 36.9966 21.8215C36.9968 21.5036 36.9968 21.1856 36.9969 20.8677C36.9969 20.6221 36.9969 20.3765 36.997 20.1309C36.997 20.0602 36.997 19.9896 36.997 19.9189C36.997 19.8926 36.997 19.8926 36.997 19.8657C36.9971 19.3714 36.9972 18.8771 36.9972 18.3828C36.9972 18.3641 36.9972 18.3455 36.9972 18.3262C36.9972 18.2317 36.9972 18.1372 36.9972 18.0427C36.9972 18.024 36.9972 18.0052 36.9972 17.9859C36.9972 17.9479 36.9972 17.9099 36.9972 17.872C36.9972 17.2818 36.9973 16.6916 36.9976 16.1014C36.9978 15.4385 36.998 14.7755 36.998 14.1125C36.998 14.0417 36.998 13.971 36.998 13.9003C36.998 13.8829 36.998 13.8654 36.998 13.8475C36.998 13.5674 36.9981 13.2874 36.9982 13.0073C36.9984 12.7257 36.9984 12.444 36.9983 12.1624C36.9982 11.9952 36.9983 11.8279 36.9984 11.6607C36.9985 11.5489 36.9985 11.437 36.9984 11.3251C36.9983 11.2615 36.9983 11.1979 36.9984 11.1342C36.9989 10.8983 36.9984 10.6653 36.9665 10.4312C36.959 10.3756 36.9538 10.3205 36.9502 10.2645C36.9424 10.1737 36.9216 10.0879 36.8999 9.99963C36.8856 9.93537 36.876 9.87157 36.8673 9.80633C36.8559 9.72175 36.8403 9.64369 36.8146 9.56213C36.8059 9.5282 36.7973 9.49422 36.7889 9.4602C36.7821 9.43279 36.7821 9.43279 36.7752 9.40482C36.7704 9.38576 36.7657 9.3667 36.7609 9.34706C36.7508 9.30673 36.7407 9.26641 36.7306 9.22609C36.7228 9.19472 36.7149 9.16336 36.7071 9.13199C36.6953 9.13199 36.6834 9.13199 36.6713 9.13199C36.6695 9.11506 36.6677 9.09812 36.6659 9.08067C36.6532 8.99171 36.6241 8.90875 36.5951 8.82395C36.5894 8.80719 36.5837 8.79044 36.5779 8.77318C36.5084 8.57008 36.4217 8.37657 36.33 8.18273C36.3121 8.14467 36.2944 8.10651 36.2767 8.06833C36.2098 7.9242 36.1407 7.78257 36.0619 7.64442C36.0501 7.64442 36.0382 7.64442 36.026 7.64442C36.0201 7.61485 36.0142 7.58527 36.0081 7.55481C35.9963 7.55481 35.9845 7.55481 35.9723 7.55481C35.9707 7.54522 35.969 7.53563 35.9674 7.52575C35.95 7.46888 35.921 7.42477 35.8894 7.37446C35.883 7.36435 35.8767 7.35424 35.8701 7.34382C35.857 7.32291 35.8438 7.30203 35.8305 7.28117C35.8117 7.25129 35.7933 7.22117 35.7748 7.19103C35.7639 7.1732 35.7529 7.15536 35.7415 7.13699C35.7316 7.12079 35.7217 7.10459 35.7114 7.08791C35.7029 7.07638 35.6943 7.06485 35.6855 7.05297C35.6737 7.05297 35.6619 7.05297 35.6497 7.05297C35.6436 7.03447 35.6436 7.03447 35.6374 7.01559C35.6082 6.9509 35.5675 6.89933 35.5231 6.84462C35.5142 6.83357 35.5054 6.82251 35.4963 6.81112C35.4783 6.78866 35.4602 6.76624 35.4421 6.74386C35.4199 6.7164 35.3979 6.68874 35.376 6.66106C35.2889 6.55209 35.1961 6.44953 35.1002 6.34829C35.0906 6.33816 35.081 6.32803 35.0712 6.31759C35.0626 6.30861 35.0541 6.29964 35.0453 6.29039C35.0224 6.26438 35.0224 6.26438 34.9865 6.21061C34.9747 6.21061 34.9629 6.21061 34.9507 6.21061C34.9448 6.19287 34.9389 6.17513 34.9328 6.15684C34.9209 6.15684 34.9091 6.15684 34.8969 6.15684C34.8969 6.14502 34.8969 6.13319 34.8969 6.121C34.8851 6.121 34.8733 6.121 34.8611 6.121C34.8552 6.10326 34.8492 6.08551 34.8432 6.06723C34.8313 6.06723 34.8195 6.06723 34.8073 6.06723C34.8073 6.0554 34.8073 6.04357 34.8073 6.03139C34.7816 6.00924 34.7557 5.9872 34.7292 5.966C34.6866 5.93095 34.6491 5.89112 34.6102 5.85216C34.5883 5.83214 34.5663 5.81236 34.5441 5.79279C34.5337 5.78362 34.5232 5.77445 34.5125 5.765C34.4856 5.74109 34.4856 5.74109 34.4489 5.74463C34.4489 5.7328 34.4489 5.72097 34.4489 5.70878C34.4016 5.6658 34.4016 5.6658 34.3413 5.65501C34.3413 5.64318 34.3413 5.63135 34.3413 5.61917C34.3106 5.5907 34.3106 5.5907 34.2719 5.56316C34.259 5.5535 34.2461 5.54385 34.2328 5.5339C34.1998 5.50842 34.1998 5.50842 34.1621 5.51163C34.1621 5.4998 34.1621 5.48797 34.1621 5.47579C34.1202 5.44269 34.0783 5.41199 34.0344 5.38169C34.0209 5.37227 34.0074 5.36285 33.9934 5.35314C33.8201 5.23341 33.6422 5.12073 33.4631 5.0098C33.4493 5.00124 33.4356 4.99269 33.4214 4.98387C33.2389 4.87131 33.0513 4.77576 32.8563 4.68684C32.8221 4.67118 32.7881 4.65516 32.7541 4.6391C32.5176 4.52755 32.2763 4.43823 32.0279 4.35787C31.9973 4.34792 31.9669 4.33765 31.9364 4.32734C31.887 4.31118 31.8376 4.29721 31.7874 4.28394C31.7365 4.27049 31.6868 4.25636 31.637 4.2392C31.5539 4.21237 31.4688 4.19695 31.3832 4.17969C31.3303 4.16744 31.3303 4.16744 31.3124 4.14952C31.2676 4.14282 31.223 4.13688 31.178 4.13159C31.046 4.11609 31.046 4.11609 31.0256 4.09575C30.9994 4.09063 30.973 4.08652 30.9465 4.08287C30.9218 4.07945 30.9218 4.07945 30.8966 4.07596C30.8789 4.07362 30.8613 4.07128 30.8431 4.06887C30.8163 4.06525 30.8163 4.06525 30.789 4.06156C30.6683 4.04567 30.5484 4.03402 30.4267 4.02784C30.3804 4.02406 30.3804 4.02406 30.3267 4.00614C30.2974 4.0045 30.2682 4.00389 30.2389 4.00389C30.2206 4.00384 30.2024 4.0038 30.1836 4.00375C30.1634 4.0038 30.1433 4.00384 30.1225 4.00388C30.1011 4.00385 30.0797 4.00383 30.0576 4.0038C29.9978 4.00375 29.938 4.00377 29.8782 4.00383C29.8133 4.00388 29.7484 4.00382 29.6834 4.00378C29.5695 4.00371 29.4556 4.00371 29.3417 4.00376C29.1723 4.00383 29.0029 4.00379 28.8335 4.00374C28.531 4.00364 28.2286 4.00365 27.9261 4.0037C27.6614 4.00375 27.3967 4.00376 27.132 4.00374C27.1145 4.00374 27.097 4.00374 27.0789 4.00373C27.0077 4.00373 26.9366 4.00372 26.8654 4.00372C26.1973 4.00366 25.5293 4.00371 24.8612 4.00381C24.2672 4.00389 23.6732 4.00389 23.0792 4.0038C22.4123 4.0037 21.7455 4.00367 21.0787 4.00372C21.0076 4.00373 20.9366 4.00373 20.8656 4.00374C20.8393 4.00374 20.8393 4.00374 20.8126 4.00374C20.548 4.00376 20.2834 4.00374 20.0188 4.00369C19.7181 4.00364 19.4174 4.00365 19.1167 4.00375C18.9482 4.00381 18.7797 4.00381 18.6113 4.00374C18.4989 4.0037 18.3866 4.00373 18.2742 4.0038C18.2101 4.00385 18.146 4.00386 18.0818 4.0038C18.013 4.00373 17.9441 4.0038 17.8752 4.00388C17.855 4.00384 17.8348 4.0038 17.814 4.00375C17.7867 4.00382 17.7867 4.00382 17.7589 4.00389C17.7352 4.00389 17.7352 4.00389 17.7111 4.00389C17.6723 4.00372 17.6723 4.00372 17.6375 4.02406Z" fill="#ABAFAD"/>
<path d="M13.82 13.8981C14.5002 13.8981 15.1803 13.8981 15.8811 13.8981C15.899 13.916 15.899 13.916 15.9012 13.9627C15.9012 13.9837 15.9012 14.0047 15.9012 14.0263C15.9012 14.038 15.9012 14.0497 15.9012 14.0617C15.9013 14.101 15.9012 14.1403 15.9011 14.1796C15.9011 14.2077 15.9011 14.2358 15.9011 14.2639C15.9011 14.3403 15.901 14.4168 15.9009 14.4933C15.9007 14.5731 15.9007 14.6529 15.9007 14.7327C15.9007 14.884 15.9005 15.0352 15.9003 15.1865C15.9001 15.3908 15.9 15.5951 15.8999 15.7995C15.8997 16.1215 15.8994 16.4436 15.899 16.7657C16.384 16.7716 16.869 16.7775 17.3687 16.7836C17.3687 15.8314 17.3687 14.8792 17.3687 13.8981C18.0548 13.8981 18.7408 13.8981 19.4477 13.8981C19.4477 16.4236 19.4477 18.949 19.4477 21.551C18.7616 21.551 18.0756 21.551 17.3687 21.551C17.3687 20.4746 17.3687 19.3982 17.3687 18.2891C17.3569 18.295 17.345 18.3009 17.3328 18.307C16.8656 18.307 16.3984 18.307 15.917 18.307C15.911 19.3776 15.9051 20.4481 15.899 21.551C15.213 21.551 14.5269 21.551 13.82 21.551C13.82 19.0256 13.82 16.5001 13.82 13.8981Z" fill="#ABAFAD"/>
<path d="M24.3183 14.0592C24.3477 14.0592 24.3477 14.0592 24.3777 14.0592C24.419 14.0592 24.4602 14.0592 24.5014 14.0593C24.564 14.0594 24.6267 14.0593 24.6893 14.0591C24.7296 14.0592 24.7698 14.0592 24.8101 14.0592C24.8286 14.0592 24.8471 14.0591 24.8662 14.0591C25.1081 14.0599 25.3252 14.104 25.5578 14.1669C25.5744 14.1713 25.5909 14.1756 25.608 14.1801C25.7868 14.2285 25.9529 14.3011 26.1212 14.3775C26.1369 14.3846 26.1526 14.3916 26.1688 14.3989C26.2349 14.4288 26.3007 14.4589 26.3654 14.4917C26.3654 14.5036 26.3654 14.5154 26.3654 14.5276C26.3781 14.5292 26.3908 14.5308 26.4039 14.5325C26.4653 14.5481 26.5048 14.5744 26.557 14.6105C26.5849 14.6297 26.5849 14.6297 26.6135 14.6494C26.6415 14.6689 26.6415 14.6689 26.6701 14.6889C26.6879 14.7008 26.7056 14.7127 26.7239 14.725C26.7402 14.736 26.7564 14.747 26.7732 14.7583C26.7878 14.7683 26.8025 14.7782 26.8177 14.7884C26.8281 14.797 26.8386 14.8055 26.8493 14.8143C26.8493 14.8262 26.8493 14.838 26.8493 14.8502C26.8604 14.8557 26.8715 14.8613 26.8829 14.867C26.9076 14.8793 26.9322 14.8916 26.9569 14.904C26.9569 14.9158 26.9569 14.9276 26.9569 14.9398C26.9668 14.9442 26.9768 14.9487 26.9871 14.9532C27.0362 14.9798 27.0765 15.0103 27.1182 15.0473C27.1182 15.0592 27.1182 15.071 27.1182 15.0832C27.1359 15.0891 27.1536 15.095 27.1719 15.1011C27.1719 15.1129 27.1719 15.1248 27.1719 15.137C27.1838 15.137 27.1956 15.137 27.2078 15.137C27.2369 15.1616 27.2369 15.1616 27.2615 15.1907C27.2615 15.2026 27.2615 15.2144 27.2615 15.2266C27.2734 15.2266 27.2852 15.2266 27.2974 15.2266C27.326 15.2576 27.326 15.2576 27.3601 15.3016C27.3728 15.3179 27.3855 15.3342 27.3986 15.351C27.4125 15.3691 27.4264 15.3872 27.4408 15.4058C27.4561 15.4254 27.4715 15.445 27.4869 15.4645C27.7096 15.749 27.7096 15.749 27.7096 15.818C27.7214 15.818 27.7333 15.818 27.7455 15.818C27.7575 15.8407 27.7695 15.8635 27.7813 15.8863C27.788 15.899 27.7946 15.9117 27.8015 15.9248C27.8171 15.9614 27.8171 15.9614 27.8171 16.0152C27.829 16.0152 27.8408 16.0152 27.853 16.0152C27.9683 16.2674 28.0701 16.5166 28.1397 16.7858C28.146 16.8073 28.1523 16.8287 28.1588 16.8508C28.2926 17.3325 28.3113 17.89 28.2114 18.3809C28.2055 18.3869 28.1996 18.3928 28.1935 18.3989C28.1877 18.435 28.1826 18.4712 28.1778 18.5075C28.1656 18.5912 28.1493 18.6639 28.1166 18.7416C28.1028 18.7781 28.0955 18.8131 28.0882 18.8514C28.0664 18.9572 28.0216 19.0531 27.9784 19.1516C27.9684 19.1766 27.9583 19.2016 27.9482 19.2267C27.9247 19.2771 27.9247 19.2771 27.8888 19.295C27.8822 19.3187 27.8763 19.3427 27.8709 19.3667C27.8591 19.3953 27.8468 19.4237 27.8339 19.4518C27.8275 19.4661 27.821 19.4805 27.8143 19.4952C27.8093 19.506 27.8043 19.5168 27.7992 19.528C27.7874 19.528 27.7756 19.528 27.7634 19.528C27.7614 19.5412 27.7595 19.5544 27.7574 19.5679C27.7448 19.6203 27.7277 19.6511 27.6971 19.6952C27.6873 19.7095 27.6774 19.7239 27.6672 19.7386C27.6568 19.7534 27.6464 19.7682 27.6357 19.7834C27.6257 19.7979 27.6157 19.8124 27.6054 19.8273C27.5532 19.9025 27.4995 19.9766 27.4443 20.0497C27.4342 20.0631 27.424 20.0765 27.4136 20.0903C27.4004 20.1047 27.4004 20.1047 27.387 20.1194C27.3752 20.1194 27.3633 20.1194 27.3512 20.1194C27.3467 20.1297 27.3422 20.14 27.3375 20.1507C27.3123 20.1966 27.2834 20.2277 27.2464 20.2648C27.233 20.2783 27.2195 20.2918 27.2056 20.3057C27.1915 20.3197 27.1775 20.3336 27.163 20.3479C27.1419 20.3693 27.1419 20.3693 27.1203 20.391C27.1069 20.4044 27.0934 20.4178 27.0795 20.4317C27.0672 20.444 27.0548 20.4563 27.0421 20.469C27.0106 20.4958 27.0106 20.4958 26.9748 20.4958C26.9748 20.5076 26.9748 20.5195 26.9748 20.5316C26.9341 20.5658 26.8932 20.5977 26.8504 20.6291C26.8377 20.6385 26.825 20.648 26.8119 20.6577C26.7168 20.7274 26.6198 20.7941 26.5211 20.8587C26.5082 20.8673 26.4952 20.8759 26.4819 20.8847C26.3899 20.9439 26.3899 20.9439 26.3296 20.9439C26.3296 20.9557 26.3296 20.9675 26.3296 20.9797C26.3107 20.9879 26.2919 20.9962 26.2725 21.0046C26.2604 21.0099 26.2483 21.0152 26.2358 21.0207C26.2093 21.0323 26.1827 21.0439 26.1562 21.0554C26.09 21.0843 26.0242 21.1138 25.9588 21.1444C25.8762 21.1814 25.7901 21.2061 25.7034 21.2317C25.6595 21.2452 25.618 21.2601 25.5757 21.2777C25.4976 21.3085 25.4166 21.3187 25.3338 21.3305C25.2911 21.3337 25.2911 21.3337 25.2721 21.3561C24.7852 21.4664 24.2117 21.4473 23.7308 21.3202C23.7037 21.3136 23.7037 21.3136 23.676 21.3069C23.6225 21.2937 23.5691 21.2802 23.5157 21.2665C23.5007 21.2626 23.4857 21.2588 23.4703 21.2549C23.3613 21.2247 23.2621 21.1801 23.1601 21.1315C23.1115 21.1089 23.063 21.0892 23.0128 21.0704C22.921 21.035 22.8391 20.9857 22.7552 20.9347C22.7094 20.9061 22.7094 20.9061 22.6554 20.8901C22.6554 20.8783 22.6554 20.8664 22.6554 20.8543C22.6409 20.8517 22.6409 20.8517 22.626 20.8491C22.5712 20.8325 22.529 20.8054 22.4807 20.7747C22.463 20.7637 22.4454 20.7526 22.4272 20.7412C22.4138 20.7312 22.4004 20.7212 22.3866 20.7109C22.3866 20.699 22.3866 20.6872 22.3866 20.675C22.377 20.6706 22.3674 20.6662 22.3575 20.6616C22.3045 20.6337 22.2558 20.6027 22.2074 20.5675C22.2074 20.5557 22.2074 20.5438 22.2074 20.5316C22.1976 20.5276 22.1879 20.5235 22.1778 20.5193C22.1234 20.489 22.0802 20.4495 22.0349 20.4073C22.0256 20.3987 22.0162 20.3901 22.0066 20.3812C21.9131 20.2935 21.8214 20.2019 21.7414 20.1015C21.7414 20.0897 21.7414 20.0778 21.7414 20.0657C21.7296 20.0657 21.7177 20.0657 21.7055 20.0657C21.643 19.9972 21.59 19.9217 21.5622 19.8327C21.5503 19.8327 21.5385 19.8327 21.5263 19.8327C21.4386 19.7102 21.3676 19.5752 21.3022 19.4397C21.2837 19.4017 21.2645 19.364 21.2447 19.3267C21.1369 19.1218 21.0695 18.9078 21.0066 18.6856C20.9977 18.657 20.9977 18.657 20.9886 18.6278C20.9349 18.445 20.9162 18.2646 20.9032 18.0748C20.9008 18.0389 20.9008 18.0389 20.8811 18.0046C20.8796 17.9614 20.879 17.9188 20.8794 17.8756C20.8794 17.8629 20.8794 17.8502 20.8794 17.8372C20.8795 17.7966 20.8798 17.7561 20.88 17.7156C20.8801 17.6881 20.8802 17.6606 20.8802 17.6332C20.8804 17.5658 20.8807 17.4984 20.8811 17.431C20.8929 17.431 20.9048 17.431 20.917 17.431C20.9163 17.415 20.9157 17.3989 20.9151 17.3823C20.9112 17.2064 20.9322 17.0469 20.9707 16.8754C20.9772 16.846 20.9772 16.846 20.9837 16.8159C21.0072 16.7153 21.0376 16.6216 21.078 16.5266C21.0971 16.4788 21.1117 16.4308 21.1264 16.3815C21.1711 16.2446 21.2408 16.1216 21.3102 15.9961C21.3263 15.9666 21.3419 15.9368 21.3572 15.9069C21.4742 15.681 21.6542 15.3917 21.8489 15.2266C21.8608 15.2266 21.8726 15.2266 21.8848 15.2266C21.8892 15.2161 21.8936 15.2056 21.8981 15.1948C21.9241 15.1487 21.9527 15.1234 21.9934 15.0899C22.0457 15.0481 22.0457 15.0482 22.0819 14.9936C22.0937 14.9936 22.1056 14.9936 22.1178 14.9936C22.1178 14.9817 22.1178 14.9699 22.1178 14.9577C22.1432 14.934 22.1432 14.934 22.1787 14.907C22.1917 14.8972 22.2046 14.8873 22.2179 14.8772C22.2388 14.8616 22.2388 14.8616 22.26 14.8457C22.2739 14.8352 22.2879 14.8247 22.3022 14.8139C22.5643 14.6172 22.5643 14.6172 22.6196 14.6172C22.6196 14.6054 22.6196 14.5935 22.6196 14.5814C22.6453 14.5663 22.6711 14.5514 22.6969 14.5365C22.7112 14.5282 22.7256 14.5199 22.7404 14.5113C22.7809 14.4917 22.7809 14.4917 22.8347 14.4917C22.8347 14.4799 22.8347 14.4681 22.8347 14.4559C22.8535 14.4477 22.8723 14.4394 22.8917 14.431C22.9038 14.4257 22.916 14.4204 22.9284 14.4149C22.9549 14.4034 22.9814 14.3918 23.0079 14.3802C23.0755 14.3507 23.1428 14.3208 23.2099 14.2901C23.3391 14.2328 23.472 14.1968 23.609 14.1636C23.6488 14.1538 23.6882 14.1426 23.7274 14.131C23.788 14.1144 23.8479 14.1061 23.91 14.0974C23.9159 14.0915 23.9219 14.0856 23.9279 14.0795C24.0569 14.058 24.188 14.059 24.3183 14.0592ZM25.0929 15.119C25.0787 15.443 25.0724 15.7663 25.073 16.0906C25.073 16.1371 25.073 16.1836 25.0729 16.2301C25.0729 16.3291 25.073 16.4281 25.0731 16.5271C25.0732 16.6702 25.0733 16.8133 25.0733 16.9564C25.0733 17.1887 25.0735 17.421 25.0736 17.6533C25.0738 17.8786 25.0739 18.104 25.074 18.3293C25.074 18.3432 25.074 18.3572 25.074 18.3716C25.074 18.4416 25.0741 18.5116 25.0741 18.5816C25.0743 19.1599 25.0746 19.7383 25.075 20.3166C25.1096 20.3142 25.1442 20.3116 25.1787 20.309C25.198 20.3076 25.2173 20.3062 25.2371 20.3048C25.2896 20.2987 25.3315 20.2858 25.3788 20.262C25.4525 20.2276 25.5305 20.2034 25.6072 20.1765C25.6573 20.1585 25.7068 20.1396 25.756 20.1194C25.756 20.1076 25.756 20.0958 25.756 20.0836C25.7694 20.0814 25.7827 20.0791 25.7964 20.0769C25.8421 20.0665 25.8766 20.0525 25.9174 20.0298C25.9174 20.018 25.9174 20.0062 25.9174 19.994C25.9469 19.9881 25.9765 19.9821 26.007 19.976C26.007 19.9642 26.007 19.9524 26.007 19.9402C26.0268 19.933 26.0268 19.933 26.0471 19.9257C26.1961 19.8614 26.3198 19.7269 26.4371 19.6176C26.4491 19.6066 26.461 19.5956 26.4734 19.5843C26.728 19.3411 26.9072 19.0463 27.0331 18.7198C27.051 18.674 27.0707 18.6289 27.0902 18.5837C27.1157 18.5201 27.1255 18.4682 27.1182 18.3989C27.13 18.3989 27.1418 18.3989 27.154 18.3989C27.2382 18.0043 27.2729 17.5571 27.1719 17.1622C27.1667 17.1397 27.1615 17.1172 27.1562 17.0941C27.009 16.4658 26.613 15.8931 26.0787 15.5312C26.03 15.509 26.03 15.509 25.989 15.4954C25.989 15.4836 25.989 15.4717 25.989 15.4596C25.9556 15.4428 25.9221 15.4261 25.8886 15.4094C25.8603 15.3952 25.832 15.3808 25.8038 15.3663C25.6257 15.2752 25.4483 15.2037 25.2542 15.1549C25.2299 15.1479 25.2056 15.1408 25.1814 15.1336C25.1321 15.1174 25.1321 15.1174 25.0929 15.119ZM23.6053 15.2445C23.5848 15.2521 23.5848 15.2521 23.5639 15.26C23.1271 15.423 22.7365 15.7325 22.4583 16.1048C22.4507 16.1149 22.4431 16.125 22.4353 16.1354C22.2771 16.3267 22.2771 16.3267 22.2074 16.5528C22.1956 16.5528 22.1837 16.5528 22.1715 16.5528C22.1451 16.623 22.1188 16.6932 22.0926 16.7635C22.0761 16.8075 22.0594 16.8513 22.0422 16.895C22.002 16.9986 21.9789 17.0981 21.9635 17.2082C21.9565 17.2518 21.9565 17.2518 21.9385 17.2877C21.9179 17.4298 21.9179 17.5733 21.9184 17.7167C21.9183 17.7362 21.9182 17.7558 21.9182 17.7759C21.9185 18.0233 21.9495 18.2441 22.0181 18.4806C22.0218 18.4933 22.0254 18.506 22.0292 18.5191C22.055 18.6061 22.0851 18.6906 22.1178 18.7752C22.1296 18.7752 22.1414 18.7752 22.1536 18.7752C22.1558 18.7975 22.1558 18.7975 22.158 18.8202C22.1746 18.8969 22.2062 18.9559 22.2443 19.0239C22.2511 19.0362 22.2579 19.0486 22.2648 19.0613C22.2814 19.0915 22.2981 19.1216 22.3149 19.1516C22.3267 19.1516 22.3386 19.1516 22.3508 19.1516C22.3525 19.1618 22.3543 19.1721 22.3561 19.1826C22.3713 19.2318 22.3944 19.2608 22.4269 19.3006C22.4667 19.3501 22.5052 19.3995 22.5412 19.4518C22.5916 19.5231 22.65 19.581 22.7182 19.6355C22.763 19.6714 22.763 19.6714 22.8111 19.7207C22.8472 19.7651 22.8472 19.7651 22.8884 19.761C22.8884 19.7728 22.8884 19.7846 22.8884 19.7968C22.9129 19.819 22.9129 19.819 22.9455 19.8403C22.9637 19.8528 22.9637 19.8528 22.9822 19.8655C22.9953 19.8743 23.0083 19.883 23.0217 19.892C23.0349 19.901 23.0481 19.9099 23.0617 19.9191C23.1509 19.979 23.2406 20.0351 23.3365 20.0836C23.3501 20.0908 23.3638 20.0981 23.3778 20.1056C23.5854 20.2137 23.8169 20.3166 24.0534 20.3166C24.0593 18.6014 24.0652 16.8862 24.0713 15.119C23.9097 15.119 23.7519 15.1816 23.6053 15.2445Z" fill="#ABAFAD"/>
<path d="M29.7531 13.9356C31.3322 13.9356 32.9114 13.9356 34.5384 13.9356C34.5384 14.4205 34.5384 14.9055 34.5384 15.4052C33.6335 15.4052 32.7286 15.4052 31.7963 15.4052C31.8022 15.417 31.8081 15.4289 31.8142 15.4411C31.8158 15.4886 31.8164 15.5357 31.8162 15.5833C31.8162 15.5982 31.8162 15.6132 31.8162 15.6286C31.8162 15.677 31.8161 15.7254 31.8159 15.7739C31.8159 15.8037 31.8159 15.8336 31.8159 15.8635C31.8158 15.9743 31.8155 16.0852 31.8153 16.196C31.8149 16.4437 31.8146 16.6914 31.8142 16.9465C32.654 16.9525 33.4939 16.9584 34.3592 16.9645C34.3592 17.4435 34.3592 17.9226 34.3592 18.4162C33.0994 18.4251 33.0994 18.4251 31.8142 18.4341C31.8144 18.6549 31.8146 18.8758 31.8148 19.1033C31.8149 19.2428 31.815 19.3823 31.815 19.5218C31.8152 19.7435 31.8153 19.9651 31.8155 20.1868C31.8157 20.3482 31.8158 20.5096 31.8159 20.671C31.8159 20.7565 31.8159 20.842 31.8161 20.9275C31.8162 21.0079 31.8162 21.0883 31.8162 21.1687C31.8162 21.1983 31.8162 21.2279 31.8163 21.2575C31.8164 21.2977 31.8164 21.338 31.8163 21.3782C31.8163 21.4008 31.8164 21.4234 31.8164 21.4466C31.8142 21.4989 31.8142 21.4989 31.7963 21.5347C31.5325 21.5351 31.2687 21.5355 31.005 21.5357C30.8825 21.5357 30.7601 21.5359 30.6376 21.5361C30.5196 21.5363 30.4015 21.5364 30.2834 21.5364C30.2383 21.5365 30.1931 21.5365 30.148 21.5366C30.085 21.5368 30.022 21.5368 29.9589 21.5368C29.9401 21.5368 29.9212 21.5369 29.9018 21.537C29.8847 21.5369 29.8676 21.5369 29.85 21.5369C29.8277 21.5369 29.8277 21.5369 29.8048 21.5369C29.771 21.5347 29.771 21.5347 29.7531 21.5168C29.7513 21.4766 29.7509 21.4364 29.7509 21.3962C29.7509 21.3834 29.7508 21.3706 29.7508 21.3573C29.7508 21.3138 29.7508 21.2703 29.7509 21.2268C29.7509 21.1955 29.7509 21.1643 29.7509 21.133C29.7508 21.0466 29.7509 20.9602 29.751 20.8738C29.7511 20.7808 29.751 20.6878 29.751 20.5948C29.751 20.4335 29.7511 20.2722 29.7512 20.1109C29.7513 19.8777 29.7514 19.6445 29.7514 19.4113C29.7514 19.033 29.7516 18.6547 29.7517 18.2764C29.7519 17.9088 29.752 17.5412 29.7521 17.1736C29.7521 17.1393 29.7521 17.1393 29.7521 17.1043C29.7521 16.9255 29.7522 16.7466 29.7522 16.5677C29.7524 15.6903 29.7527 14.813 29.7531 13.9356Z" fill="#ABAFAD"/>
</svg>
