<svg width="90" height="75" viewBox="0 0 90 75" fill="none" xmlns="http://www.w3.org/2000/svg">
<path d="M45.0459 39.8955C44.8096 39.8955 44.5785 39.7926 44.3711 39.6846C44.3572 39.6772 44.3436 39.6703 44.3301 39.6631C44.2342 39.6146 44.1438 39.5579 44.0547 39.498C44.0413 39.489 44.0277 39.4805 44.0146 39.4717C44.0013 39.4628 43.9885 39.454 43.9756 39.4453C43.9571 39.4326 43.9566 39.4324 43.9385 39.4199C43.9062 39.3988 43.9062 39.3981 43.8818 39.376V39.3408C43.8408 39.345 43.8407 39.3442 43.8047 39.2998C43.7568 39.2508 43.7566 39.2506 43.7119 39.2148C43.6438 39.1603 43.5855 39.1025 43.5352 39.0312C43.4993 38.9791 43.4606 38.9302 43.4209 38.8809C43.3884 38.8411 43.3648 38.8118 43.3496 38.7627C43.3478 38.7522 43.3465 38.7417 43.3447 38.7314H43.3086C43.2919 38.7016 43.2753 38.6716 43.2588 38.6416C43.2518 38.6289 43.245 38.6158 43.2383 38.6035C43.2003 38.5357 43.1689 38.4769 43.1523 38.4004C43.1501 38.3777 43.1496 38.3777 43.1475 38.3555H43.1113C43.0787 38.271 43.0492 38.1865 43.0234 38.0996C43.0197 38.0866 43.0154 38.0741 43.0117 38.0615C42.9432 37.8251 42.9124 37.6037 42.9121 37.3564C42.9122 37.3365 42.912 37.3172 42.9121 37.2979C42.9116 37.1547 42.912 37.0112 42.9326 36.8691C42.9505 36.8334 42.951 36.8332 42.958 36.79C42.9733 36.68 42.996 36.5801 43.0361 36.4766C43.0534 36.4329 43.0705 36.3887 43.0869 36.3447C43.113 36.2747 43.1397 36.2047 43.166 36.1348H43.2012C43.2708 35.9089 43.2708 35.9086 43.4287 35.7178L43.4521 35.6865C43.7301 35.3147 44.1204 35.0057 44.5566 34.8428C44.5776 34.835 44.5781 34.8348 44.5986 34.8271C44.7448 34.7644 44.9023 34.7023 45.0635 34.7021C45.0574 36.4679 45.0518 38.1817 45.0459 39.8955Z" fill="white"/>
<path d="M46.1729 34.7168C46.1971 34.724 46.2218 34.7303 46.2461 34.7373C46.44 34.7861 46.617 34.8582 46.7949 34.9492C46.8231 34.9637 46.8516 34.978 46.8799 34.9922C46.9133 35.0089 46.947 35.0253 46.9805 35.042V35.0781C47.0211 35.0916 47.021 35.0921 47.0693 35.1143C47.6033 35.4759 47.9994 36.048 48.1465 36.6758C48.1518 36.6987 48.157 36.7209 48.1621 36.7432C48.263 37.1378 48.2287 37.5853 48.1445 37.9795H48.1084C48.1157 38.0487 48.1065 38.1006 48.0811 38.1641C48.0617 38.2092 48.0414 38.2541 48.0234 38.2998C47.8976 38.626 47.7183 38.9211 47.4639 39.1641L47.4277 39.1973C47.3106 39.3064 47.1869 39.4407 47.0381 39.5049C47.0179 39.5122 47.0179 39.5124 46.998 39.5195V39.5557C46.9677 39.5617 46.9377 39.5673 46.9082 39.5732V39.6094C46.8678 39.6318 46.8335 39.6459 46.7881 39.6562L46.7471 39.6631V39.6982C46.6979 39.7184 46.6487 39.7379 46.5986 39.7559C46.5221 39.7827 46.4437 39.8064 46.3701 39.8408C46.3229 39.8645 46.2809 39.8777 46.2285 39.8838C46.2089 39.8852 46.1899 39.8863 46.1709 39.8877C46.1363 39.8903 46.101 39.8931 46.0664 39.8955C46.066 39.3177 46.0666 38.7399 46.0664 38.1621C46.0664 38.0922 46.0655 38.0221 46.0654 37.9521V36.1094C46.0653 36.0106 46.0644 35.9113 46.0645 35.8125C46.0645 35.766 46.0645 35.7193 46.0645 35.6729C46.0639 35.3489 46.0707 35.0259 46.085 34.7021C46.1239 34.7006 46.1239 34.7008 46.1729 34.7168Z" fill="white"/>
<path fill-rule="evenodd" clip-rule="evenodd" d="M49.5 23C54.7467 23 59 27.2533 59 32.5V41.5C59 46.7467 54.7467 51 49.5 51H40.5C35.2533 51 31 46.7467 31 41.5V32.5C31 27.2533 35.2533 23 40.5 23H49.5ZM34.5 41.1475H36.5771C36.5832 40.0453 36.5898 38.975 36.5957 37.9053H38.0107L38.0459 37.8877V41.1475H40.124V33.5H38.0459V36.3838C37.5466 36.3777 37.0617 36.3711 36.5771 36.3652C36.5775 36.0436 36.578 35.722 36.5781 35.4004C36.5782 35.1962 36.5789 34.9913 36.5791 34.7871V33.7812C36.5792 33.742 36.5801 33.7024 36.5801 33.6631V33.5645C36.5779 33.5179 36.5775 33.5179 36.5596 33.5H34.5V41.1475ZM51.0156 33.5254C51.0153 34.402 51.0148 35.2786 51.0146 36.1553V38.9971C51.0146 39.2301 51.0138 39.4633 51.0137 39.6963V40.9805C51.0137 41.0205 51.0139 41.0606 51.0156 41.1006C51.0335 41.1185 51.0338 41.1189 51.0674 41.1211H51.5459C51.6637 41.121 51.7816 41.1203 51.8994 41.1201C52.0217 41.1199 52.1443 41.1202 52.2666 41.1201C52.5302 41.1199 52.7941 41.1196 53.0576 41.1191C53.0755 41.0834 53.0759 41.0832 53.0781 41.0312C53.0781 41.0081 53.0772 40.9853 53.0771 40.9629V39.7725C53.0769 39.551 53.0763 39.3289 53.0762 39.1074C53.0761 38.9681 53.0763 38.8288 53.0762 38.6895C53.076 38.4621 53.0754 38.2412 53.0752 38.0205C54.3593 38.0115 54.3598 38.0118 55.6182 38.0029V36.5518C54.7537 36.5457 53.9143 36.5401 53.0752 36.5342C53.0756 36.2792 53.0758 36.0317 53.0762 35.7842C53.0764 35.6735 53.0771 35.5628 53.0771 35.4521V35.1719C53.0774 35.1243 53.0769 35.0768 53.0752 35.0293L53.0576 34.9941H55.7979V33.5254H51.0156ZM45.3105 33.6426C45.1805 33.6423 45.0496 33.6417 44.9209 33.6631C44.9148 33.6692 44.9082 33.6748 44.9023 33.6807C44.8405 33.6893 44.781 33.6983 44.7207 33.7148C44.6815 33.7264 44.6413 33.7372 44.6016 33.7471C44.4647 33.7802 44.3321 33.8169 44.2031 33.874C44.1361 33.9046 44.0685 33.9344 44.001 33.9639C43.9747 33.9754 43.9482 33.9865 43.9219 33.998C43.9094 34.0035 43.8969 34.0094 43.8848 34.0146C43.8656 34.023 43.8468 34.0309 43.8281 34.0391V34.0752C43.7746 34.0752 43.7745 34.0753 43.7344 34.0947C43.7196 34.1033 43.7048 34.1118 43.6904 34.1201C43.6647 34.1349 43.6389 34.15 43.6133 34.165V34.2002C43.558 34.2002 43.5578 34.2009 43.2959 34.3975L43.2119 34.46C43.1986 34.4701 43.1858 34.4804 43.1729 34.4902C43.1373 34.5172 43.1367 34.5173 43.1113 34.541V34.5762H43.0762C43.04 34.6307 43.0395 34.6311 42.9873 34.6729C42.9468 34.7062 42.9184 34.7316 42.8926 34.7773C42.888 34.7881 42.8833 34.7991 42.8789 34.8096H42.8428C42.6483 34.9747 42.4684 35.2636 42.3516 35.4893C42.3362 35.519 42.3208 35.5487 42.3047 35.5781C42.2353 35.7036 42.1657 35.8271 42.1211 35.9639C42.1064 36.0129 42.0923 36.0609 42.0732 36.1084C42.0329 36.2033 42.0019 36.297 41.9785 36.3975C41.972 36.4275 41.9722 36.4277 41.9658 36.457C41.9274 36.6284 41.9063 36.788 41.9102 36.9639C41.9108 36.9803 41.9115 36.9967 41.9121 37.0127H41.876C41.8756 37.0798 41.8752 37.1468 41.875 37.2139C41.8749 37.2413 41.8751 37.2694 41.875 37.2969C41.8748 37.3372 41.8741 37.3776 41.874 37.418C41.874 37.4309 41.874 37.4435 41.874 37.4561C41.8737 37.499 41.8744 37.542 41.876 37.585C41.8956 37.6192 41.896 37.6197 41.8984 37.6553C41.9114 37.8449 41.9297 38.0254 41.9834 38.208C41.9924 38.237 41.9922 38.2374 42.001 38.2656C42.0638 38.4875 42.1317 38.7016 42.2393 38.9062C42.2591 38.9436 42.2784 38.9816 42.2969 39.0195C42.3621 39.1548 42.4329 39.2898 42.5205 39.4121H42.5566C42.5844 39.501 42.6377 39.5761 42.7002 39.6445H42.7354V39.6807C42.8153 39.781 42.9075 39.8723 43.001 39.96C43.0106 39.9688 43.02 39.9777 43.0293 39.9863C43.0745 40.0284 43.1176 40.0684 43.1719 40.0986C43.1818 40.1028 43.1916 40.1063 43.2012 40.1104V40.1465C43.2496 40.1817 43.2986 40.2124 43.3516 40.2402C43.3614 40.2448 43.3713 40.2495 43.3809 40.2539V40.29C43.3945 40.3002 43.4076 40.3104 43.4209 40.3203C43.4391 40.3317 43.457 40.3425 43.4746 40.3535C43.5228 40.3842 43.5654 40.4112 43.6201 40.4277C43.6346 40.4302 43.635 40.4301 43.6494 40.4326V40.4688C43.7031 40.4846 43.7034 40.4851 43.749 40.5137C43.8327 40.5646 43.9144 40.614 44.0059 40.6494C44.056 40.6681 44.1047 40.6874 44.1533 40.71C44.255 40.7585 44.3542 40.8029 44.4629 40.833C44.4783 40.837 44.4938 40.8409 44.5088 40.8447C44.5621 40.8585 44.6155 40.8726 44.6689 40.8857C44.6964 40.8925 44.6967 40.8918 44.7236 40.8984C45.2041 41.0253 45.7772 41.0447 46.2637 40.9346C46.2826 40.9122 46.2829 40.9123 46.3252 40.9092C46.4079 40.8974 46.4894 40.8872 46.5674 40.8564C46.6097 40.8389 46.6515 40.824 46.6953 40.8105C46.7819 40.785 46.8677 40.7596 46.9502 40.7227C47.0155 40.6921 47.0814 40.6626 47.1475 40.6338C47.1738 40.6223 47.2002 40.6111 47.2266 40.5996C47.239 40.5942 47.2516 40.5883 47.2637 40.583C47.2829 40.5746 47.3017 40.5667 47.3203 40.5586V40.5225C47.3805 40.5225 47.381 40.5228 47.4727 40.4639C47.4859 40.4551 47.4988 40.446 47.5117 40.4375C47.6103 40.3729 47.7077 40.306 47.8027 40.2363C47.8157 40.2267 47.8282 40.2173 47.8408 40.208C47.8835 40.1766 47.9242 40.1444 47.9648 40.1104V40.0752C48.0006 40.0752 48.0009 40.0746 48.0322 40.0479C48.0449 40.0352 48.058 40.023 48.0703 40.0107C48.0841 39.997 48.097 39.9831 48.1104 39.9697C48.1319 39.948 48.1322 39.9481 48.1533 39.9268C48.1678 39.9125 48.1823 39.8986 48.1963 39.8848C48.21 39.871 48.223 39.8571 48.2363 39.8438C48.2733 39.8067 48.3029 39.7754 48.3281 39.7295C48.3327 39.7191 48.3374 39.7084 48.3418 39.6982H48.377C48.3901 39.6838 48.3906 39.6839 48.4033 39.6699C48.4137 39.6561 48.4245 39.6423 48.4346 39.6289C48.4897 39.556 48.5436 39.4823 48.5957 39.4072C48.6059 39.3924 48.616 39.3777 48.626 39.3633C48.6367 39.3481 48.6469 39.3331 48.6572 39.3184C48.6674 39.3036 48.6776 39.2888 48.6875 39.2744C48.7179 39.2306 48.7345 39.1997 48.7471 39.1475C48.7491 39.1339 48.751 39.1206 48.7529 39.1074H48.7891C48.7941 39.0965 48.7988 39.0858 48.8037 39.0752C48.8104 39.0604 48.8177 39.0456 48.8242 39.0312C48.837 39.0033 48.8486 38.9747 48.8604 38.9463C48.8658 38.9223 48.8723 38.8986 48.8789 38.875C48.9146 38.8572 48.915 38.8569 48.9385 38.8066C48.9485 38.7817 48.9577 38.7564 48.9678 38.7314C49.0109 38.633 49.0564 38.5374 49.0781 38.4316C49.0853 38.3935 49.0927 38.3586 49.1064 38.3223C49.1391 38.2446 49.1548 38.1715 49.167 38.0879C49.1717 38.0516 49.1778 38.0156 49.1836 37.9795L49.2012 37.9619C49.301 37.4714 49.2821 36.9139 49.1484 36.4326C49.142 36.4105 49.1362 36.3886 49.1299 36.3672C49.0603 36.0983 48.9579 35.8496 48.8428 35.5977H48.8066C48.8066 35.5439 48.8067 35.5434 48.791 35.5068C48.7843 35.494 48.778 35.4813 48.7715 35.4688C48.7596 35.4459 48.7474 35.4231 48.7354 35.4004H48.6992C48.6992 35.3314 48.6991 35.3311 48.4766 35.0469C48.4613 35.0275 48.4459 35.0077 48.4307 34.9883C48.4164 34.9698 48.4025 34.9516 48.3887 34.9336C48.3757 34.917 48.3631 34.9009 48.3506 34.8848C48.3166 34.8409 48.3163 34.8403 48.2881 34.8096H48.252V34.7734C48.2274 34.7444 48.2273 34.7443 48.1982 34.7197H48.1621V34.6836C48.1439 34.6775 48.126 34.6719 48.1084 34.666V34.6299C48.0669 34.593 48.0264 34.5626 47.9775 34.5361C47.9673 34.5316 47.9572 34.5269 47.9473 34.5225V34.4873L47.8398 34.4336V34.3975C47.8293 34.3888 47.8189 34.3805 47.8086 34.3721C47.7935 34.3619 47.7783 34.3517 47.7637 34.3418C47.7471 34.3306 47.731 34.3195 47.7148 34.3086C47.6967 34.2964 47.6788 34.2843 47.6611 34.2725C47.6326 34.2526 47.6324 34.2519 47.6045 34.2324C47.576 34.2128 47.5758 34.2126 47.5479 34.1934C47.4958 34.1574 47.4559 34.1318 47.3945 34.1162C47.3816 34.1146 47.369 34.1129 47.3564 34.1113V34.0752C47.2918 34.0425 47.2262 34.0122 47.1602 33.9824C47.144 33.9751 47.128 33.968 47.1123 33.9609C46.9441 33.8846 46.7783 33.812 46.5996 33.7637C46.5825 33.7592 46.5654 33.7553 46.5488 33.751C46.3166 33.6881 46.1 33.6434 45.8584 33.6426H45.3105Z" fill="white"/>
<g filter="url(#filter0_f_472_15729)">
<ellipse cx="45" cy="37" rx="24" ry="17" fill="#00CC66" fill-opacity="0.7"/>
</g>
<defs>
<filter id="filter0_f_472_15729" x="0.183672" y="-0.816328" width="89.6327" height="75.6327" filterUnits="userSpaceOnUse" color-interpolation-filters="sRGB">
<feFlood flood-opacity="0" result="BackgroundImageFix"/>
<feBlend mode="normal" in="SourceGraphic" in2="BackgroundImageFix" result="shape"/>
<feGaussianBlur stdDeviation="10.4082" result="effect1_foregroundBlur_472_15729"/>
</filter>
</defs>
</svg>
