<svg width="48" height="34" viewBox="0 0 48 34" fill="none" xmlns="http://www.w3.org/2000/svg">
<path d="M14 20.9992C14 20.7231 14.2239 20.4992 14.5 20.4992H18.7154C18.9916 20.4992 19.2154 20.7231 19.2154 20.9992V28.8439H14V20.9992Z" stroke="#ABAFAD" stroke-width="1.2"/>
<path d="M21.3016 17.87C21.3016 17.5938 21.5255 17.37 21.8016 17.37H26.0171C26.2932 17.37 26.5171 17.5938 26.5171 17.87V28.8439H21.3016V17.87Z" stroke="#ABAFAD" stroke-width="1.2"/>
<path d="M28.4874 24.8487C28.4874 24.5725 28.7112 24.3487 28.9874 24.3487H33.7824C34.0585 24.3487 34.2824 24.5725 34.2824 24.8487V28.6949H28.4874V24.8487Z" stroke="#ABAFAD" stroke-width="1.2"/>
<path d="M23.8818 5.14901C23.9975 4.95033 24.2846 4.95033 24.4003 5.14901L25.7359 7.44215C25.7642 7.49067 25.8116 7.52507 25.8664 7.53695L28.4601 8.0986C28.6848 8.14726 28.7735 8.42024 28.6203 8.59169L26.8521 10.5706C26.8147 10.6124 26.7966 10.6681 26.8023 10.724L27.0696 13.3642C27.0928 13.593 26.8606 13.7617 26.6502 13.669L24.2217 12.5988C24.1703 12.5762 24.1118 12.5762 24.0604 12.5988L21.6319 13.669C21.4215 13.7617 21.1893 13.593 21.2125 13.3642L21.4798 10.724C21.4855 10.6681 21.4674 10.6124 21.43 10.5706L19.6618 8.59169C19.5086 8.42024 19.5973 8.14726 19.822 8.0986L22.4157 7.53695C22.4705 7.52507 22.5179 7.49067 22.5462 7.44215L23.8818 5.14901Z" stroke="#ABAFAD" stroke-width="1.2"/>
</svg>
