<svg width="89" height="75" viewBox="0 0 89 75" fill="none" xmlns="http://www.w3.org/2000/svg">
<path d="M34 41.2951C34 41.019 34.2239 40.7951 34.5 40.7951H38.7154C38.9916 40.7951 39.2154 41.019 39.2154 41.2951V49.1398H34V41.2951Z" fill="white"/>
<path d="M41.3016 38.1659C41.3016 37.8897 41.5255 37.6659 41.8016 37.6659H46.0171C46.2932 37.6659 46.5171 37.8897 46.5171 38.1659V49.1398H41.3016V38.1659Z" fill="white"/>
<path d="M48.4874 45.1446C48.4874 44.8684 48.7112 44.6446 48.9874 44.6446H53.7824C54.0585 44.6446 54.2824 44.8684 54.2824 45.1446V48.9908H48.4874V45.1446Z" fill="white"/>
<path d="M43.8818 25.4449C43.9975 25.2462 44.2846 25.2462 44.4003 25.4449L45.7359 27.738C45.7642 27.7866 45.8116 27.821 45.8664 27.8329L48.4601 28.3945C48.6848 28.4432 48.7735 28.7161 48.6203 28.8876L46.8521 30.8665C46.8147 30.9083 46.7966 30.964 46.8023 31.0199L47.0696 33.6601C47.0928 33.8889 46.8606 34.0576 46.6502 33.9649L44.2217 32.8947C44.1703 32.8721 44.1118 32.8721 44.0604 32.8947L41.6319 33.9649C41.4215 34.0576 41.1893 33.8889 41.2125 33.6601L41.4798 31.0199C41.4855 30.964 41.4674 30.9083 41.43 30.8665L39.6618 28.8876C39.5086 28.7161 39.5973 28.4432 39.822 28.3945L42.4157 27.8329C42.4705 27.821 42.5179 27.7866 42.5462 27.738L43.8818 25.4449Z" fill="white"/>
<g filter="url(#filter0_f_472_15731)">
<ellipse cx="44" cy="37" rx="24" ry="17" fill="#00CC66" fill-opacity="0.7"/>
</g>
<defs>
<filter id="filter0_f_472_15731" x="-0.816328" y="-0.816328" width="89.6327" height="75.6327" filterUnits="userSpaceOnUse" color-interpolation-filters="sRGB">
<feFlood flood-opacity="0" result="BackgroundImageFix"/>
<feBlend mode="normal" in="SourceGraphic" in2="BackgroundImageFix" result="shape"/>
<feGaussianBlur stdDeviation="10.4082" result="effect1_foregroundBlur_472_15731"/>
</filter>
</defs>
</svg>
