<?xml version="1.0" encoding="UTF-8"?>
<svg width="18" height="18" viewBox="0 0 18 18" xmlns="http://www.w3.org/2000/svg">
    <path fill="#FFFFFF" d="M14.537 14.062c-.69 1.025-1.43 2.044-2.577 2.064-1.126.02-1.489-.668-2.778-.668-1.29 0-1.692.647-2.76.688-1.107.042-1.95-1.107-2.65-2.127C2.114 11.909 1.5 8.902 2.86 6.975c.677-.962 1.887-1.57 3.2-1.587 1.147-.018 2.231.772 2.931.772.7 0 2.015-.956 3.395-.815.578.024 2.201.234 3.241 1.757-.083.052-1.935 1.13-1.915 3.378.024 2.69 2.368 3.584 2.397 3.598-.02.068-.372 1.27-1.235 2.51l-.337.474zM11.831 3.21c.62-.752.961-1.79.855-2.827-.945.038-2.084.63-2.757 1.424-.605.7-.961 1.724-.841 2.742 1.054.082 2.128-.537 2.743-1.339z"/>
</svg> 