<svg width="22" height="26" viewBox="0 0 22 26" fill="none" xmlns="http://www.w3.org/2000/svg">
<path d="M1 17.2954C1 17.0193 1.22386 16.7954 1.5 16.7954H5.71544C5.99158 16.7954 6.21544 17.0193 6.21544 17.2954V25.1401H1V17.2954Z" stroke="white" stroke-opacity="0.7" stroke-width="1.2"/>
<path d="M8.30176 14.166C8.30176 13.8899 8.52562 13.666 8.80176 13.666H13.0172C13.2933 13.666 13.5172 13.8899 13.5172 14.166V25.14H8.30176V14.166Z" stroke="white" stroke-opacity="0.7" stroke-width="1.2"/>
<path d="M15.4873 21.1445C15.4873 20.8684 15.7112 20.6445 15.9873 20.6445H20.7823C21.0585 20.6445 21.2823 20.8684 21.2823 21.1445V24.9907H15.4873V21.1445Z" stroke="white" stroke-opacity="0.7" stroke-width="1.2"/>
<path d="M10.8816 1.44507C10.9973 1.24639 11.2843 1.24639 11.4001 1.44507L12.7357 3.7382C12.764 3.78672 12.8113 3.82113 12.8662 3.83301L15.4599 4.39465C15.6846 4.44331 15.7733 4.71629 15.6201 4.88775L13.8519 6.86662C13.8145 6.90849 13.7964 6.96416 13.8021 7.02002L14.0694 9.66026C14.0926 9.88902 13.8603 10.0577 13.6499 9.96501L11.2215 8.89489C11.1701 8.87225 11.1116 8.87225 11.0602 8.89489L8.63171 9.96501C8.42131 10.0577 8.1891 9.88902 8.21226 9.66026L8.47959 7.02002C8.48525 6.96416 8.46716 6.90849 8.42975 6.86662L6.66155 4.88775C6.50835 4.7163 6.59705 4.44331 6.82177 4.39465L9.41544 3.83301C9.47032 3.82113 9.51768 3.78672 9.54594 3.7382L10.8816 1.44507Z" stroke="white" stroke-opacity="0.7" stroke-width="1.2"/>
</svg>
