<svg width="40" height="40" viewBox="0 0 40 40" fill="none" xmlns="http://www.w3.org/2000/svg">
<g clip-path="url(#clip0_532_13019)">
<path fill-rule="evenodd" clip-rule="evenodd" d="M20 2.5C17.6794 2.5 15.4538 3.42187 13.8128 5.06282C12.1719 6.70376 11.25 8.92936 11.25 11.25V16.25C9.92392 16.25 8.65215 16.7768 7.71447 17.7145C6.77678 18.6521 6.25 19.9239 6.25 21.25V32.5C6.25 33.8261 6.77678 35.0979 7.71447 36.0355C8.65215 36.9732 9.92392 37.5 11.25 37.5H28.75C30.0761 37.5 31.3479 36.9732 32.2855 36.0355C33.2232 35.0979 33.75 33.8261 33.75 32.5V21.25C33.75 19.9239 33.2232 18.6521 32.2855 17.7145C31.3479 16.7768 30.0761 16.25 28.75 16.25V11.25C28.75 6.41667 24.8333 2.5 20 2.5ZM26.25 16.25V11.25C26.25 9.5924 25.5915 8.00269 24.4194 6.83058C23.2473 5.65848 21.6576 5 20 5C18.3424 5 16.7527 5.65848 15.5806 6.83058C14.4085 8.00269 13.75 9.5924 13.75 11.25V16.25H26.25Z" fill="white"/>
</g>
<defs>
<clipPath id="clip0_532_13019">
<rect width="40" height="40" fill="white"/>
</clipPath>
</defs>
</svg>
