<?xml version="1.0" encoding="UTF-8"?>
<svg version="1.1" xmlns="http://www.w3.org/2000/svg" width="2250" height="2250">
<path d="M0 0 C3.6810648 0.00462259 7.36211265 -0.00250656 11.04317379 -0.00795984 C18.2134445 -0.01675345 25.38367284 -0.01497734 32.55394506 -0.00913456 C38.39260258 -0.00457792 44.2312484 -0.00402223 50.06990719 -0.00618219 C50.90771398 -0.00648866 51.74552078 -0.00679513 52.60871565 -0.00711088 C54.31184149 -0.00775047 56.01496733 -0.0083989 57.71809316 -0.00905606 C73.6081607 -0.01472996 89.49820499 -0.008248 105.38826871 0.00254467 C118.95914143 0.01147748 132.52997991 0.00992461 146.10085201 0.00070715 C161.94240473 -0.01004787 177.78393719 -0.01418091 193.62549305 -0.00806832 C195.32160473 -0.00743137 197.0177164 -0.00680262 198.71382809 -0.00618219 C199.96490886 -0.00571937 199.96490886 -0.00571937 201.24126399 -0.00524719 C207.05833629 -0.00353586 212.87539551 -0.00640119 218.69246578 -0.0111413 C225.80237446 -0.01680875 232.91223911 -0.01511272 240.02214289 -0.00457981 C243.63472534 0.00059941 247.24723499 0.00287018 250.85981655 -0.00387812 C273.83839131 -0.04319677 296.90296542 0.45481258 319.57936764 4.51144934 C320.82363522 4.7283341 322.06790279 4.94521887 323.34987545 5.1686759 C368.63398141 13.30846789 410.64291114 30.75746159 448.60671139 56.66769934 C449.26252193 57.1119425 449.91833248 57.55618567 450.59401608 58.01389074 C452.14587863 59.09075354 453.654516 60.22942022 455.15358639 61.37863684 C459.91935727 64.14956755 464.98365173 65.39458994 470.26686764 66.88644934 C508.84731963 78.32450775 544.5107586 97.93050209 574.16530514 125.21848059 C576.2061469 127.09104241 578.28650461 128.89974468 580.39186764 130.69894934 C587.9630491 137.30652588 594.97208177 144.5346412 601.39186764 152.26144934 C601.81161861 152.76208899 602.23136959 153.26272863 602.66384029 153.77853918 C634.13896685 191.4939517 654.91079569 236.52774958 663.64186764 284.82394934 C663.79309078 285.64782141 663.94431393 286.47169348 664.10011959 287.32053137 C664.60047176 290.29439188 665.00108147 293.2709714 665.39186764 296.26144934 C665.47521122 296.89484543 665.55855481 297.52824152 665.64442396 298.18083143 C668.05164935 317.43603628 667.67895623 336.8036618 667.65331697 356.16953564 C667.64874598 361.28755062 667.65579902 366.40555253 667.66127682 371.52356482 C667.67012339 381.52096501 667.66827006 391.51833501 667.66245154 401.51573634 C667.65791628 409.64812942 667.65733016 417.78051409 667.65949917 425.91290808 C667.65980563 427.07477784 667.6601121 428.2366476 667.66042785 429.43372554 C667.66106737 431.7947797 667.6617158 434.15583386 667.66237304 436.51688802 C667.66806245 458.60448089 667.66154029 480.6920571 667.6507723 502.77964723 C667.64183806 521.69058179 667.6433905 540.60149178 667.65260983 559.5124259 C667.66333706 581.52640229 667.66751326 603.54036411 667.6613853 625.55434275 C667.66074827 627.90622536 667.66011952 630.25810798 667.65949917 632.6099906 C667.65919062 633.76685973 667.65888207 634.92372887 667.65856417 636.11565465 C667.65684457 644.22882149 667.65973638 652.34197901 667.66445827 660.45514441 C667.67009444 670.35589511 667.66849354 680.25661415 667.65789679 690.15736127 C667.65267667 695.19912074 667.6505201 700.24082761 667.65719509 705.28258657 C667.70505911 744.68161515 667.70505911 744.68161515 665.39186764 762.26144934 C665.16045008 764.03236441 665.16045008 764.03236441 664.92435741 765.83905554 C664.5548071 768.47346994 664.12209337 771.08265291 663.64186764 773.69894934 C663.47195309 774.63883703 663.30203854 775.57872473 663.12697506 776.54709387 C651.10999198 840.54191746 615.9567448 903.6333312 563.39186764 943.26144934 C562.23089993 944.17317741 561.07080732 945.08602046 559.91139889 945.99973059 C527.54294919 971.21064986 490.14882603 988.22563929 450.26686764 997.44894934 C448.75987301 997.80618078 448.75987301 997.80618078 447.22243404 998.17062902 C422.26919758 1003.68485732 397.3046948 1003.702485 371.89675772 1003.65362334 C366.60083536 1003.64675621 361.30494114 1003.65735149 356.00902462 1003.66556311 C345.66844866 1003.67882165 335.32793846 1003.6760582 324.98736005 1003.66732518 C316.5752093 1003.66051813 308.16307683 1003.65964489 299.75092411 1003.66289663 C298.54840785 1003.66335633 297.34589158 1003.66381603 296.10693543 1003.66428966 C293.66318233 1003.66524895 291.21942923 1003.66622159 288.77567614 1003.66720743 C265.92354233 1003.67573815 243.07144477 1003.66596354 220.21931691 1003.64980634 C200.65808196 1003.63640357 181.09690045 1003.63873545 161.53566647 1003.65256262 C138.75731356 1003.66865659 115.97899233 1003.67491619 93.20063454 1003.66572583 C90.76675483 1003.66477029 88.33287512 1003.66382718 85.8989954 1003.66289663 C84.701831 1003.66243381 83.50466659 1003.66197098 82.27122448 1003.66149413 C73.87943376 1003.6589158 65.48766332 1003.6632501 57.09587574 1003.67033529 C46.85451561 1003.67879298 36.61322435 1003.67638106 26.371872 1003.66049306 C21.15767542 1003.65266764 15.94359323 1003.64941959 10.72939777 1003.65944052 C-35.26849106 1003.74033919 -78.48434316 998.01826161 -120.60813236 978.26144934 C-121.44537846 977.87231359 -122.28262455 977.48317785 -123.14524174 977.08225012 C-147.42376041 965.69411329 -170.14539565 950.75272415 -189.60813236 932.26144934 C-190.93541351 931.10861086 -192.2684123 929.96230867 -193.60813236 928.82394934 C-202.52041418 921.04165008 -210.25245833 912.50896039 -217.60813236 903.26144934 C-218.68321049 901.98721106 -218.68321049 901.98721106 -219.78000736 900.68723059 C-240.16672576 876.50511248 -257.96033864 845.87399483 -266.65720463 815.34689856 C-269.55759141 805.30479456 -274.639271 798.16505379 -281.01828861 789.96848059 C-286.56796712 782.81722687 -291.10064909 775.09588455 -295.60813236 767.26144934 C-296.08991947 766.43338781 -296.57170658 765.60532629 -297.0680933 764.75217199 C-316.20162038 731.65751894 -328.37246703 695.67845464 -334.85813236 658.07394934 C-335.08484623 656.77844152 -335.08484623 656.77844152 -335.31614017 655.45676184 C-338.55973972 635.39476918 -338.90895876 615.28091327 -338.88424075 595.00947738 C-338.881736 591.14693967 -338.89083347 587.28442449 -338.89827824 583.4218955 C-338.91092625 575.88430633 -338.91283131 568.34675293 -338.91047797 560.80915493 C-338.90868297 554.67005978 -338.91046954 548.53097534 -338.91470242 542.39188147 C-338.9152976 541.51263297 -338.91589279 540.63338448 -338.91650602 539.72749209 C-338.91771799 537.94030078 -338.91893212 536.15310947 -338.9201484 534.36591816 C-338.93098644 517.66268187 -338.9288796 500.95946585 -338.92276355 484.25622845 C-338.9176013 469.04596536 -338.92883826 453.83576646 -338.94786177 438.62551606 C-338.9673345 422.93331648 -338.97547952 407.24114712 -338.97173852 391.54893541 C-338.96984024 382.76887094 -338.97217786 373.98886099 -338.98645306 365.20880651 C-338.99848921 357.73140793 -338.99963744 350.2540974 -338.98766289 342.77669734 C-338.98185766 338.97742078 -338.9804355 335.17830426 -338.99266529 331.37903929 C-339.22653337 253.22262425 -316.37128923 179.23683977 -266.60813236 118.26144934 C-265.97463871 117.47133459 -265.97463871 117.47133459 -265.32834721 116.66525793 C-258.42850185 108.09015239 -250.79938076 100.24552493 -243.04563236 92.44894934 C-242.56275761 91.96080755 -242.07988285 91.47266577 -241.58237553 90.96973181 C-234.93942267 84.27081485 -228.00873953 78.11581483 -220.60813236 72.26144934 C-219.43897836 71.30847453 -218.27081477 70.35428155 -217.10422611 69.39816809 C-198.84582124 54.77745307 -178.82938849 42.31038074 -157.70676517 32.26340246 C-156.2983464 31.59097917 -154.89405285 30.90985176 -153.49387455 30.22043371 C-128.9871481 18.18165565 -102.40209589 10.2162237 -75.60813236 5.26144934 C-74.7297974 5.09709387 -73.85146244 4.9327384 -72.94651127 4.76340246 C-48.88632192 0.3947883 -24.38384249 -0.04554898 0 0 Z " fill="#009D4D" transform="translate(966.6081323623657,624.7385506629944)"/>
<path d="M0 0 C1.74378357 -0.00446723 3.48756512 -0.00978605 5.23134381 -0.01586872 C9.96459898 -0.02988207 14.69778798 -0.03171523 19.43106091 -0.03127182 C24.55962961 -0.03293501 29.6881722 -0.04602937 34.81672668 -0.0574646 C46.00567812 -0.08020124 57.19461046 -0.08822338 68.38358188 -0.09329104 C75.38939171 -0.0965622 82.39519613 -0.10309324 89.40100288 -0.11029243 C108.8531282 -0.12984585 128.30524852 -0.14625667 147.7573843 -0.14916897 C148.99939555 -0.14935654 150.2414068 -0.14954411 151.52105475 -0.14973736 C154.03820169 -0.15010358 156.55534863 -0.15046728 159.07249557 -0.15082847 C160.32176799 -0.15101128 161.5710404 -0.1511941 162.85816956 -0.15138245 C164.10899313 -0.151563 165.3598167 -0.15174354 166.64854402 -0.15192956 C186.87945782 -0.15546509 207.11026477 -0.18245428 227.34114157 -0.21988034 C248.1838713 -0.25812501 269.02654824 -0.27732763 289.86931378 -0.27762848 C301.54258267 -0.27820953 313.21572416 -0.28647131 324.88895988 -0.31562614 C334.83590087 -0.34035768 344.78266803 -0.34727845 354.7296316 -0.33237862 C359.78739126 -0.32529679 364.84480926 -0.32568016 369.90252876 -0.34878922 C401.0784197 -0.48272981 432.86100849 0.71759149 462.82276917 10.27415466 C464.22849182 10.72202332 464.22849182 10.72202332 465.66261292 11.17893982 C500.50590244 22.54112577 533.57068762 40.15180819 560.11573792 65.68431091 C562.29601736 67.77020597 564.50378502 69.72386969 566.82276917 71.64915466 C577.77140351 81.19764918 586.85791824 92.65845115 595.39698792 104.34788513 C596.35193023 105.63803836 597.3343849 106.9082491 598.34230042 108.15745544 C600.34645129 110.71302386 601.77174576 112.55765573 602.00636292 115.85227966 C600.31518932 119.31276688 597.7499908 121.54617649 594.88526917 124.02415466 C594.00173767 124.81294006 594.00173767 124.81294006 593.10035706 125.61766052 C591.90558835 126.68286234 590.70663646 127.74339174 589.50343323 128.79905701 C587.23564072 130.7894699 584.99869292 132.81332375 582.76026917 134.83665466 C581.96233948 135.55208435 581.16440979 136.26751404 580.34230042 137.00462341 C575.47066671 141.3928702 570.65064592 145.83789275 565.82276917 150.27415466 C559.37180109 156.2018503 552.905582 162.11009186 546.38526917 167.96165466 C543.51676507 170.5503047 540.66800266 173.16000612 537.82276917 175.77415466 C533.3694143 179.86581573 528.88617062 183.92238412 524.38526917 187.96165466 C520.99878595 191.01774927 517.64032102 194.10401078 514.2815094 197.19041443 C511.16643792 200.05017671 508.03425242 202.88930825 504.88526917 205.71165466 C500.99906319 209.19863563 497.1543411 212.72747452 493.32276917 216.27415466 C488.69924305 220.55390422 484.04184582 224.79174074 479.35011292 228.99681091 C476.49194713 231.57225242 473.65566655 234.1710123 470.82276917 236.77415466 C466.36944299 240.86584673 461.88617028 244.92238443 457.38526917 248.96165466 C453.99878595 252.01774927 450.64032102 255.10401078 447.2815094 258.19041443 C444.16643792 261.05017671 441.03425242 263.88930825 437.88526917 266.71165466 C433.99906319 270.19863563 430.1543411 273.72747452 426.32276917 277.27415466 C421.69924305 281.55390422 417.04184582 285.79174074 412.35011292 289.99681091 C409.49194713 292.57225242 406.65566655 295.1710123 403.82276917 297.77415466 C399.36944299 301.86584673 394.88617028 305.92238443 390.38526917 309.96165466 C387.51676507 312.5503047 384.66800266 315.16000612 381.82276917 317.77415466 C378.17347392 321.12706045 374.51107348 324.46413797 370.82276917 327.77415466 C365.11615222 332.89734751 359.46961563 338.08535405 353.82276917 343.27415466 C347.37180109 349.2018503 340.905582 355.11009186 334.38526917 360.96165466 C331.51676382 363.55030582 328.66813118 366.16014493 325.82276917 368.77415466 C322.02040781 372.26457738 318.21245653 375.74841974 314.38526917 379.21165466 C313.62343323 379.9013031 312.86159729 380.59095154 312.07667542 381.30149841 C309.71479691 383.36865378 307.28737276 385.3311603 304.82276917 387.27415466 C301.41068055 385.79532619 299.17295512 383.84946405 296.51026917 381.27415466 C280.91768481 367.07213704 262.17103528 358.28355605 241.82276917 353.27415466 C240.57495667 352.95446716 239.32714417 352.63477966 238.04151917 352.30540466 C220.86834676 348.47337446 202.85145416 349.08106986 185.82276917 353.27415466 C184.64456604 353.51778748 183.46636292 353.76142029 182.25245667 354.01243591 C151.58629703 361.00008136 125.02480821 381.9723437 108.27980042 408.18431091 C92.09589618 434.49028128 85.21929596 467.0243034 91.84230042 497.40306091 C96.89843579 517.36573087 103.40677406 536.62997105 117.45167542 552.18821716 C118.82276917 554.27415466 118.82276917 554.27415466 118.74073792 556.36009216 C117.64773301 558.63912367 116.53986842 559.68725106 114.57276917 561.27415466 C110.7563883 564.46131144 107.08656906 567.76317461 103.44776917 571.14915466 C98.78167185 575.47521792 94.07993752 579.75682277 89.34230042 584.00462341 C84.47066671 588.3928702 79.65064592 592.83789275 74.82276917 597.27415466 C68.37180109 603.2018503 61.905582 609.11009186 55.38526917 614.96165466 C52.51676507 617.5503047 49.66800266 620.16000612 46.82276917 622.77415466 C42.3694143 626.86581573 37.88617062 630.92238412 33.38526917 634.96165466 C30.51676507 637.5503047 27.66800266 640.16000612 24.82276917 642.77415466 C21.17347392 646.12706045 17.51107348 649.46413797 13.82276917 652.77415466 C8.11615222 657.89734751 2.46961563 663.08535405 -3.17723083 668.27415466 C-9.62819891 674.2018503 -16.094418 680.11009186 -22.61473083 685.96165466 C-25.48323493 688.5503047 -28.33199734 691.16000612 -31.17723083 693.77415466 C-35.6305857 697.86581573 -40.11382938 701.92238412 -44.61473083 705.96165466 C-48.00121405 709.01774927 -51.35967898 712.10401078 -54.7184906 715.19041443 C-57.83356208 718.05017671 -60.96574758 720.88930825 -64.11473083 723.71165466 C-68.00093681 727.19863563 -71.8456589 730.72747452 -75.67723083 734.27415466 C-80.30075695 738.55390422 -84.95815418 742.79174074 -89.64988708 746.99681091 C-92.50805287 749.57225242 -95.34433345 752.1710123 -98.17723083 754.77415466 C-102.63055701 758.86584673 -107.11382972 762.92238443 -111.61473083 766.96165466 C-115.00121405 770.01774927 -118.35967898 773.10401078 -121.7184906 776.19041443 C-124.83356208 779.05017671 -127.96574758 781.88930825 -131.11473083 784.71165466 C-135.00093681 788.19863563 -138.8456589 791.72747452 -142.67723083 795.27415466 C-147.29536238 799.54891076 -151.9464159 803.78277228 -156.63426208 807.98118591 C-158.51585488 809.67779877 -160.38769107 811.38237649 -162.25144958 813.09837341 C-162.77924011 813.58426941 -163.30703064 814.07016541 -163.85081482 814.57078552 C-165.34097144 815.94462823 -166.82946517 817.32027397 -168.31785583 818.69602966 C-171.21225129 821.30573049 -174.16786176 823.79899311 -177.17723083 826.27415466 C-181.49571011 824.65082269 -184.21000205 821.34976241 -187.23973083 818.02415466 C-187.81046326 817.40226257 -188.38119568 816.78037048 -188.96922302 816.13963318 C-238.74472809 761.24424343 -254.72848213 694.88965903 -254.55474579 622.5152477 C-254.54577222 617.37891186 -254.55438449 612.24259801 -254.56060791 607.10626221 C-254.57002152 597.085269 -254.56356249 587.06434859 -254.55134497 577.04336085 C-254.53761946 565.34315962 -254.53937198 553.64297508 -254.5414783 541.94276784 C-254.54465715 521.0528084 -254.53306291 500.16288323 -254.51341248 479.27293396 C-254.49440088 459.056452 -254.48732953 438.84001016 -254.49290466 418.6235199 C-254.4989771 396.53880481 -254.49875956 374.45410729 -254.48741883 352.36939365 C-254.4862117 350.01000361 -254.48500571 347.65061357 -254.48380089 345.29122353 C-254.48319735 344.13073681 -254.48259381 342.97025009 -254.48197198 341.7745971 C-254.478111 333.64079267 -254.47847931 325.50699483 -254.48038673 317.37318993 C-254.48251967 307.4495535 -254.47720174 297.52595198 -254.46277318 287.60232534 C-254.45558347 282.55027618 -254.45140523 277.49827758 -254.45601654 272.44622421 C-254.49625247 222.216444 -254.49625247 222.216444 -249.98973083 202.27415466 C-249.77542419 201.29470886 -249.56111755 200.31526306 -249.34031677 199.30613708 C-241.98851648 166.81315552 -228.73074253 135.35562089 -209.17723083 108.27415466 C-208.72412537 107.63461853 -208.2710199 106.9950824 -207.80418396 106.33616638 C-200.3629086 95.8658122 -192.1365371 86.4630028 -183.17723083 77.27415466 C-182.56444275 76.63558533 -181.95165466 75.99701599 -181.32029724 75.33909607 C-172.82586231 66.49044963 -164.05768946 58.54083866 -154.17723083 51.27415466 C-153.60649841 50.84795837 -153.03576599 50.42176208 -152.44773865 49.98265076 C-143.70629121 43.46724027 -134.64227149 37.67811379 -125.17723083 32.27415466 C-123.47566833 31.28995544 -123.47566833 31.28995544 -121.73973083 30.28587341 C-99.47094847 17.72375454 -74.94930869 9.3816433 -49.92723083 4.46165466 C-48.93545837 4.26660339 -47.94368591 4.07155212 -46.92185974 3.87059021 C-31.35275824 1.00804738 -15.80283516 -0.02606987 0 0 Z " fill="#007135" transform="translate(965.1772308349609,704.7258453369141)"/>
<path d="M0 0 C3.6810648 0.00462259 7.36211265 -0.00250656 11.04317379 -0.00795984 C18.2134445 -0.01675345 25.38367284 -0.01497734 32.55394506 -0.00913456 C38.39260258 -0.00457792 44.2312484 -0.00402223 50.06990719 -0.00618219 C50.90771398 -0.00648866 51.74552078 -0.00679513 52.60871565 -0.00711088 C54.31184149 -0.00775047 56.01496733 -0.0083989 57.71809316 -0.00905606 C73.6081607 -0.01472996 89.49820499 -0.008248 105.38826871 0.00254467 C118.95914143 0.01147748 132.52997991 0.00992461 146.10085201 0.00070715 C161.94240473 -0.01004787 177.78393719 -0.01418091 193.62549305 -0.00806832 C195.32160473 -0.00743137 197.0177164 -0.00680262 198.71382809 -0.00618219 C199.96490886 -0.00571937 199.96490886 -0.00571937 201.24126399 -0.00524719 C207.05833629 -0.00353586 212.87539551 -0.00640119 218.69246578 -0.0111413 C225.80237446 -0.01680875 232.91223911 -0.01511272 240.02214289 -0.00457981 C243.63472534 0.00059941 247.24723499 0.00287018 250.85981655 -0.00387812 C273.83839131 -0.04319677 296.90296542 0.45481258 319.57936764 4.51144934 C320.82363522 4.7283341 322.06790279 4.94521887 323.34987545 5.1686759 C368.63398141 13.30846789 410.64291114 30.75746159 448.60671139 56.66769934 C449.26252193 57.1119425 449.91833248 57.55618567 450.59401608 58.01389074 C452.14587863 59.09075354 453.654516 60.22942022 455.15358639 61.37863684 C459.91935727 64.14956755 464.98365173 65.39458994 470.26686764 66.88644934 C508.84731963 78.32450775 544.5107586 97.93050209 574.16530514 125.21848059 C576.2061469 127.09104241 578.28650461 128.89974468 580.39186764 130.69894934 C587.9630491 137.30652588 594.97208177 144.5346412 601.39186764 152.26144934 C601.81161861 152.76208899 602.23136959 153.26272863 602.66384029 153.77853918 C634.13896685 191.4939517 654.91079569 236.52774958 663.64186764 284.82394934 C663.79309078 285.64782141 663.94431393 286.47169348 664.10011959 287.32053137 C664.60047176 290.29439188 665.00108147 293.2709714 665.39186764 296.26144934 C665.47521122 296.89484543 665.55855481 297.52824152 665.64442396 298.18083143 C668.05164935 317.43603628 667.67895623 336.8036618 667.65331697 356.16953564 C667.64874598 361.28755062 667.65579902 366.40555253 667.66127682 371.52356482 C667.67012339 381.52096501 667.66827006 391.51833501 667.66245154 401.51573634 C667.65791628 409.64812942 667.65733016 417.78051409 667.65949917 425.91290808 C667.65980563 427.07477784 667.6601121 428.2366476 667.66042785 429.43372554 C667.66106737 431.7947797 667.6617158 434.15583386 667.66237304 436.51688802 C667.66806245 458.60448089 667.66154029 480.6920571 667.6507723 502.77964723 C667.64183806 521.69058179 667.6433905 540.60149178 667.65260983 559.5124259 C667.66333706 581.52640229 667.66751326 603.54036411 667.6613853 625.55434275 C667.66074827 627.90622536 667.66011952 630.25810798 667.65949917 632.6099906 C667.65919062 633.76685973 667.65888207 634.92372887 667.65856417 636.11565465 C667.65684457 644.22882149 667.65973638 652.34197901 667.66445827 660.45514441 C667.67009444 670.35589511 667.66849354 680.25661415 667.65789679 690.15736127 C667.65267667 695.19912074 667.6505201 700.24082761 667.65719509 705.28258657 C667.70505911 744.68161515 667.70505911 744.68161515 665.39186764 762.26144934 C665.16045008 764.03236441 665.16045008 764.03236441 664.92435741 765.83905554 C664.5548071 768.47346994 664.12209337 771.08265291 663.64186764 773.69894934 C663.47195309 774.63883703 663.30203854 775.57872473 663.12697506 776.54709387 C651.10999198 840.54191746 615.9567448 903.6333312 563.39186764 943.26144934 C562.23089993 944.17317741 561.07080732 945.08602046 559.91139889 945.99973059 C527.54294919 971.21064986 490.14882603 988.22563929 450.26686764 997.44894934 C448.75987301 997.80618078 448.75987301 997.80618078 447.22243404 998.17062902 C422.26919758 1003.68485732 397.3046948 1003.702485 371.89675772 1003.65362334 C366.60083536 1003.64675621 361.30494114 1003.65735149 356.00902462 1003.66556311 C345.66844866 1003.67882165 335.32793846 1003.6760582 324.98736005 1003.66732518 C316.5752093 1003.66051813 308.16307683 1003.65964489 299.75092411 1003.66289663 C298.54840785 1003.66335633 297.34589158 1003.66381603 296.10693543 1003.66428966 C293.66318233 1003.66524895 291.21942923 1003.66622159 288.77567614 1003.66720743 C265.92354233 1003.67573815 243.07144477 1003.66596354 220.21931691 1003.64980634 C200.65808196 1003.63640357 181.09690045 1003.63873545 161.53566647 1003.65256262 C138.75731356 1003.66865659 115.97899233 1003.67491619 93.20063454 1003.66572583 C90.76675483 1003.66477029 88.33287512 1003.66382718 85.8989954 1003.66289663 C84.701831 1003.66243381 83.50466659 1003.66197098 82.27122448 1003.66149413 C73.87943376 1003.6589158 65.48766332 1003.6632501 57.09587574 1003.67033529 C46.85451561 1003.67879298 36.61322435 1003.67638106 26.371872 1003.66049306 C21.15767542 1003.65266764 15.94359323 1003.64941959 10.72939777 1003.65944052 C-35.26849106 1003.74033919 -78.48434316 998.01826161 -120.60813236 978.26144934 C-121.44537846 977.87231359 -122.28262455 977.48317785 -123.14524174 977.08225012 C-147.42376041 965.69411329 -170.14539565 950.75272415 -189.60813236 932.26144934 C-190.93541351 931.10861086 -192.2684123 929.96230867 -193.60813236 928.82394934 C-202.52041418 921.04165008 -210.25245833 912.50896039 -217.60813236 903.26144934 C-218.68321049 901.98721106 -218.68321049 901.98721106 -219.78000736 900.68723059 C-240.16672576 876.50511248 -257.96033864 845.87399483 -266.65720463 815.34689856 C-269.55759141 805.30479456 -274.639271 798.16505379 -281.01828861 789.96848059 C-286.56796712 782.81722687 -291.10064909 775.09588455 -295.60813236 767.26144934 C-296.08991947 766.43338781 -296.57170658 765.60532629 -297.0680933 764.75217199 C-316.20162038 731.65751894 -328.37246703 695.67845464 -334.85813236 658.07394934 C-335.08484623 656.77844152 -335.08484623 656.77844152 -335.31614017 655.45676184 C-338.55973972 635.39476918 -338.90895876 615.28091327 -338.88424075 595.00947738 C-338.881736 591.14693967 -338.89083347 587.28442449 -338.89827824 583.4218955 C-338.91092625 575.88430633 -338.91283131 568.34675293 -338.91047797 560.80915493 C-338.90868297 554.67005978 -338.91046954 548.53097534 -338.91470242 542.39188147 C-338.9152976 541.51263297 -338.91589279 540.63338448 -338.91650602 539.72749209 C-338.91771799 537.94030078 -338.91893212 536.15310947 -338.9201484 534.36591816 C-338.93098644 517.66268187 -338.9288796 500.95946585 -338.92276355 484.25622845 C-338.9176013 469.04596536 -338.92883826 453.83576646 -338.94786177 438.62551606 C-338.9673345 422.93331648 -338.97547952 407.24114712 -338.97173852 391.54893541 C-338.96984024 382.76887094 -338.97217786 373.98886099 -338.98645306 365.20880651 C-338.99848921 357.73140793 -338.99963744 350.2540974 -338.98766289 342.77669734 C-338.98185766 338.97742078 -338.9804355 335.17830426 -338.99266529 331.37903929 C-339.22653337 253.22262425 -316.37128923 179.23683977 -266.60813236 118.26144934 C-265.97463871 117.47133459 -265.97463871 117.47133459 -265.32834721 116.66525793 C-258.42850185 108.09015239 -250.79938076 100.24552493 -243.04563236 92.44894934 C-242.56275761 91.96080755 -242.07988285 91.47266577 -241.58237553 90.96973181 C-234.93942267 84.27081485 -228.00873953 78.11581483 -220.60813236 72.26144934 C-219.43897836 71.30847453 -218.27081477 70.35428155 -217.10422611 69.39816809 C-198.84582124 54.77745307 -178.82938849 42.31038074 -157.70676517 32.26340246 C-156.2983464 31.59097917 -154.89405285 30.90985176 -153.49387455 30.22043371 C-128.9871481 18.18165565 -102.40209589 10.2162237 -75.60813236 5.26144934 C-74.7297974 5.09709387 -73.85146244 4.9327384 -72.94651127 4.76340246 C-48.88632192 0.3947883 -24.38384249 -0.04554898 0 0 Z M-43.60813236 83.26144934 C-45.4866334 83.56497513 -47.36524677 83.86780651 -49.24397278 84.16993666 C-97.50513396 91.99805556 -142.56343017 116.5452122 -177.60813236 150.26144934 C-178.23510014 150.86118567 -178.86206791 151.46092199 -179.50803471 152.07883215 C-188.15790952 160.39593897 -196.18769516 168.86758761 -203.3180933 178.52707434 C-204.62271991 180.28106137 -205.9593362 182.00633891 -207.30344486 183.73019934 C-233.89681509 218.2783239 -250.82259018 261.88569425 -254.60813236 305.26144934 C-254.69027194 306.05907973 -254.77241151 306.85671013 -254.85704017 307.67851114 C-255.71998777 316.66013976 -255.75398078 325.60128857 -255.74857426 334.6127677 C-255.75116262 336.35208498 -255.75417708 338.09140168 -255.75757766 339.83071756 C-255.76559614 344.58381848 -255.76743434 349.33690425 -255.76817513 354.09001112 C-255.7700348 359.22740214 -255.77758685 364.36478547 -255.78431034 369.50217199 C-255.79785923 380.72612289 -255.80391348 391.9500702 -255.808321 403.17402792 C-255.81109021 410.19430888 -255.81532888 417.21458849 -255.81982517 424.23486853 C-255.83201515 443.70474171 -255.84231382 463.1746138 -255.84570026 482.64449072 C-255.84591983 483.8892927 -255.8461394 485.13409468 -255.84636562 486.41661793 C-255.84658389 487.66426582 -255.84680217 488.9119137 -255.84702706 490.1973691 C-255.84747052 492.7252396 -255.84791708 495.25311009 -255.84836674 497.78098059 C-255.84858817 499.03487054 -255.8488096 500.28876049 -255.84903774 501.58064711 C-255.85297977 521.86587811 -255.87041682 542.15107305 -255.89372626 562.43629014 C-255.91751177 583.30587569 -255.92990544 604.17544321 -255.93106818 625.04504251 C-255.9319811 636.74495487 -255.93763581 648.44482027 -255.95588779 660.1447196 C-255.97138653 670.11435049 -255.97635233 680.08391994 -255.96814969 690.05356061 C-255.96427698 695.12842687 -255.96500449 700.20316978 -255.97920704 705.27802038 C-256.16628158 776.38278486 -239.81817949 841.1768511 -190.84641361 894.80051184 C-189.36829191 896.42567183 -187.90685975 898.0661884 -186.46360111 899.72238684 C-145.30299242 946.74189298 -82.07277494 973.62285086 -20.60813236 978.26144934 C-14.50072943 978.5673705 -8.39001727 978.54147835 -2.27663517 978.52887487 C-0.51620139 978.53262346 1.24423074 978.53722972 3.00466031 978.54260552 C7.78370739 978.55470214 12.56268379 978.55459103 17.34174263 978.55221677 C22.51927401 978.55180517 27.69678374 978.56288023 32.87430477 978.57233191 C42.99711734 978.58887018 53.1199066 978.59443822 63.24273155 978.59555666 C71.48191721 978.5965107 79.72109526 978.60063864 87.96027851 978.60695791 C111.38051983 978.62455191 134.8007429 978.63379984 158.22099087 978.63229696 C159.48080062 978.63221705 160.74061036 978.63213714 162.03859615 978.63205481 C163.29996543 978.63197304 164.56133471 978.63189128 165.86092731 978.63180704 C186.28017431 978.630995 206.6993474 978.65011688 227.11857305 978.67833154 C248.14433538 978.70715223 269.17006179 978.72086675 290.19584435 978.71914399 C301.97621168 978.71848318 313.75650154 978.72383874 325.53685093 978.74550009 C335.57068417 978.76383341 345.60440485 978.76796067 355.63824771 978.75448124 C360.74382191 978.74801187 365.84918096 978.74761188 370.95473385 978.76518774 C393.46373839 978.83786132 415.16454085 978.12548531 437.39186764 974.26144934 C438.2707954 974.11070416 439.14972316 973.95995899 440.0552851 973.80464578 C475.47791728 967.60587093 510.92245252 951.01364898 539.39186764 929.26144934 C539.95389889 928.84073156 540.51593014 928.42001379 541.09499264 927.98654699 C550.80518257 920.71210572 559.66304725 912.67712818 568.39186764 904.26144934 C569.2594067 903.43516027 570.12694576 902.60887121 571.02077389 901.75754309 C576.63285222 896.30162693 581.54821895 890.40221072 586.39186764 884.26144934 C587.17303951 883.29723059 587.95421139 882.33301184 588.75905514 881.33957434 C605.54912997 860.20446416 618.57247838 836.15467328 627.51686764 810.72165442 C628.12402912 809.01452096 628.75043893 807.3141593 629.39186764 805.61960363 C642.04239613 772.04359158 643.0104353 735.92642491 642.91476631 700.52304232 C642.90555585 695.45882942 642.91976313 690.394667 642.930686 685.33046484 C642.94830896 675.45637909 642.94470444 665.58241615 642.93303543 655.70832593 C642.92393614 647.67017583 642.92280489 639.63205972 642.9271307 631.59390593 C642.9280501 629.86622364 642.9280501 629.86622364 642.92898807 628.10363869 C642.9302672 625.7624969 642.93156406 623.42135513 642.93287843 621.08021336 C642.94423684 599.21731677 642.93124567 577.35448768 642.90967697 555.49160217 C642.89181275 536.80653375 642.89491382 518.1215648 642.91335201 499.43649817 C642.93484716 477.64390222 642.94313615 455.85136518 642.93090296 434.05876011 C642.929629 431.72677625 642.92837152 429.39479239 642.9271307 427.06280851 C642.9265136 425.91596531 642.92589649 424.7691221 642.92526069 423.58752607 C642.92183343 415.57658292 642.92757894 407.5656777 642.93704891 399.55474043 C642.94836709 389.76686624 642.94502578 379.97912004 642.92392594 370.19126017 C642.91354533 365.21484832 642.90906592 360.23864837 642.92252254 355.26223898 C643.02107127 315.38281222 640.0014456 276.49654778 624.39186764 239.26144934 C624.0542944 238.45304602 623.71672115 237.6446427 623.36891842 236.81174231 C612.11567745 210.20053127 597.16574909 185.8858543 577.55593014 164.61301184 C576.11225647 163.04425453 574.69014426 161.45538048 573.29030514 159.84738684 C545.96547656 128.54803774 507.94488933 105.93418734 468.74196529 93.03879309 C466.60090164 92.33059169 464.47066942 91.5970297 462.34108639 90.85519934 C452.19674479 87.40287577 441.89665728 85.45080873 431.33331597 83.74282146 C429.54649452 83.45040563 427.76089554 83.15018859 425.9778136 82.83577371 C406.47955727 79.42097523 386.86343961 79.83032535 367.14340484 79.86927533 C361.99332425 79.87613609 356.84327277 79.86555019 351.6931982 79.85733557 C341.63442485 79.84406984 331.57571905 79.84684389 321.51694316 79.85557349 C313.33357741 79.86237841 305.15023045 79.86325469 296.96686268 79.86000204 C295.79737977 79.85954234 294.62789686 79.85908264 293.42297507 79.85860901 C291.0463829 79.85764973 288.66979074 79.85667709 286.29319858 79.85569124 C264.06294169 79.84715822 241.83272206 79.85693839 219.60247128 79.87309234 C200.57448776 79.88649184 181.54655916 79.88416637 162.51857662 79.87033606 C140.36356849 79.85424017 118.20859292 79.84798385 96.05357975 79.85717285 C93.68594929 79.85812838 91.31831883 79.8590715 88.95068836 79.86000204 C87.78610331 79.86046487 86.62151825 79.86092769 85.42164274 79.86140455 C77.25930553 79.86398257 69.09698917 79.85964918 60.93465519 79.85256338 C50.97138916 79.84410341 41.00819393 79.84652218 31.04493589 79.86240561 C25.9725208 79.87022855 20.90022325 79.87348352 15.82780933 79.86345816 C-4.18754923 79.82720448 -23.8105406 79.90137716 -43.60813236 83.26144934 Z " fill="#FDFEFD" transform="translate(966.6081323623657,624.7385506629944)"/>
<path d="M0 0 C3.6810648 0.00462259 7.36211265 -0.00250656 11.04317379 -0.00795984 C18.2134445 -0.01675345 25.38367284 -0.01497734 32.55394506 -0.00913456 C38.39260258 -0.00457792 44.2312484 -0.00402223 50.06990719 -0.00618219 C50.90771398 -0.00648866 51.74552078 -0.00679513 52.60871565 -0.00711088 C54.31184149 -0.00775047 56.01496733 -0.0083989 57.71809316 -0.00905606 C73.6081607 -0.01472996 89.49820499 -0.008248 105.38826871 0.00254467 C118.95914143 0.01147748 132.52997991 0.00992461 146.10085201 0.00070715 C161.94240473 -0.01004787 177.78393719 -0.01418091 193.62549305 -0.00806832 C195.32160473 -0.00743137 197.0177164 -0.00680262 198.71382809 -0.00618219 C199.96490886 -0.00571937 199.96490886 -0.00571937 201.24126399 -0.00524719 C207.05833629 -0.00353586 212.87539551 -0.00640119 218.69246578 -0.0111413 C225.80237446 -0.01680875 232.91223911 -0.01511272 240.02214289 -0.00457981 C243.63472534 0.00059941 247.24723499 0.00287018 250.85981655 -0.00387812 C273.83839131 -0.04319677 296.90296542 0.45481258 319.57936764 4.51144934 C320.82363522 4.7283341 322.06790279 4.94521887 323.34987545 5.1686759 C365.84427516 12.8070198 426.13460281 29.93916287 456.39186764 63.26144934 C446.78342617 62.50905713 437.36479282 60.77482469 427.88600826 59.07785559 C426.62594967 58.86000402 425.36589108 58.64215246 424.06764889 58.41769934 C422.95301266 58.21982824 421.83837643 58.02195715 420.68996334 57.81808996 C408.52743072 56.04717304 396.17228566 56.11488763 383.91188717 56.12773657 C382.19529102 56.12586395 380.47869529 56.12356146 378.76210022 56.12087125 C374.08593338 56.11480248 369.40978455 56.11488098 364.73361468 56.11606562 C359.67408366 56.11627089 354.61455824 56.11073891 349.55502987 56.10600805 C339.65727624 56.09772782 329.75952857 56.0949544 319.86177176 56.09439567 C311.80931304 56.09391923 303.75685626 56.09185807 295.70439816 56.08869505 C272.83378029 56.07989534 249.96316711 56.07527456 227.09254754 56.07602552 C225.24596733 56.07608546 225.24596733 56.07608546 223.36208248 56.0761466 C222.12951178 56.07618748 220.89694109 56.07622836 219.62701976 56.07627048 C199.66516979 56.07667667 179.7033387 56.06711216 159.74149418 56.05300824 C139.20519154 56.03861387 118.6688981 56.03173975 98.13259029 56.03260201 C86.61901202 56.03293294 75.10545355 56.03023159 63.59187984 56.01942396 C53.78687726 56.01027855 43.98190344 56.00817665 34.17689842 56.01493338 C29.18366766 56.01817842 24.19049196 56.01832908 19.19726658 56.00958014 C-5.58105047 55.96890355 -29.99604747 56.15550372 -54.42063236 60.88644934 C-55.41806461 61.07669683 -55.41806461 61.07669683 -56.43564701 61.27078772 C-83.08764475 66.39726208 -108.66374649 75.50608264 -132.60813236 88.26144934 C-133.32710697 88.64027258 -134.04608158 89.01909582 -134.7868433 89.40939856 C-154.61290443 99.90731943 -172.74535765 112.73073295 -189.17453861 128.01535559 C-191.21218512 129.89600847 -193.28905842 131.6778953 -195.42063236 133.44894934 C-207.39014053 143.92837588 -217.28805387 156.44198698 -226.60813236 169.26144934 C-227.03465092 169.84668371 -227.46116947 170.43191809 -227.90061283 171.03488684 C-243.53895825 192.6557717 -255.50431495 216.22353794 -264.60813236 241.26144934 C-264.86820072 241.95931555 -265.12826908 242.65718176 -265.3962183 243.37619543 C-269.27696699 253.83161059 -271.6657407 264.57329154 -274.00144291 275.45822668 C-274.33954775 277.02044793 -274.68328773 278.58157795 -275.04860342 280.13766104 C-280.49330363 303.64820042 -280.04674 327.52919962 -280.00030637 351.50293028 C-279.9934384 356.76204256 -280.00403492 362.02112651 -280.01224613 367.28023291 C-280.02550381 377.54861861 -280.02274163 387.81693809 -280.01400821 398.08532626 C-280.00720081 406.4388386 -280.00632807 414.79233252 -280.00957966 423.14584684 C-280.01003936 424.34003702 -280.01049906 425.53422721 -280.01097269 426.76460497 C-280.01193197 429.19144707 -280.01290462 431.61828917 -280.01389046 434.04513126 C-280.02242092 456.7384598 -280.01264697 479.43175183 -279.99648936 502.12507438 C-279.9830866 521.54986411 -279.98541851 540.97460003 -279.99924564 560.39938879 C-280.01534005 583.01952862 -280.02159897 605.63963655 -280.01240885 628.2597813 C-280.01145332 630.67681006 -280.0105102 633.09383883 -280.00957966 635.5108676 C-280.00911683 636.69973967 -280.00865401 637.88861174 -280.00817715 639.11351024 C-280.00559895 647.44669102 -280.00993284 655.77985138 -280.01701832 664.113029 C-280.02547649 674.2830236 -280.02306309 684.45294884 -280.00717609 694.6229356 C-279.99935131 699.80067765 -279.99610148 704.97830452 -280.00612354 710.15604544 C-280.07511929 740.32576914 -280.07511929 740.32576914 -276.60813236 770.26144934 C-276.48639739 770.97394878 -276.36466241 771.68644821 -276.2392385 772.42053854 C-275.58670836 776.19908084 -274.85129446 779.95020616 -274.04563236 783.69894934 C-273.83744877 784.70764074 -273.62926517 785.71633215 -273.41477299 786.75558996 C-272.20111867 792.60319712 -270.91579247 798.43422663 -269.60813236 804.26144934 C-274.15227066 800.04856598 -277.63348024 795.33533802 -281.17063236 790.26144934 C-281.78052006 789.3871427 -282.39040775 788.51283606 -283.01877689 787.61203527 C-322.48042668 730.14440832 -339.18538617 663.35607578 -339.00030637 594.19701803 C-338.99336771 590.33937073 -339.00406847 586.48175967 -339.01224613 582.62412024 C-339.02543214 575.11086533 -339.02277433 567.59770143 -339.01400821 560.08444328 C-339.00717093 553.96553499 -339.00634068 547.8466518 -339.00957966 541.72774076 C-339.01026921 540.41029067 -339.01026921 540.41029067 -339.01097269 539.06622542 C-339.01193208 537.28072484 -339.01290472 535.49522427 -339.01389046 533.7097237 C-339.02240015 517.05317902 -339.01268049 500.39668425 -338.99648936 483.74014776 C-338.9830926 469.51927737 -338.98541764 455.29848051 -338.99924564 441.07761145 C-339.01538436 424.47314307 -339.02157414 407.8687182 -339.01240885 391.26424307 C-339.01145343 389.48581994 -339.01051032 387.70739681 -339.00957966 385.92897367 C-339.00911683 385.05447029 -339.00865401 384.1799669 -339.00817715 383.27896341 C-339.00561181 377.184248 -339.00990452 371.08956073 -339.01701832 364.99484968 C-339.02552659 357.54323311 -339.0229613 350.09171102 -339.00717609 342.64010496 C-338.99941599 338.85496111 -338.9959849 335.06997339 -339.00612354 331.28483152 C-339.19746084 253.16017626 -316.35194394 179.21313575 -266.60813236 118.26144934 C-265.97463871 117.47133459 -265.97463871 117.47133459 -265.32834721 116.66525793 C-258.42850185 108.09015239 -250.79938076 100.24552493 -243.04563236 92.44894934 C-242.56275761 91.96080755 -242.07988285 91.47266577 -241.58237553 90.96973181 C-234.93942267 84.27081485 -228.00873953 78.11581483 -220.60813236 72.26144934 C-219.43897836 71.30847453 -218.27081477 70.35428155 -217.10422611 69.39816809 C-198.84582124 54.77745307 -178.82938849 42.31038074 -157.70676517 32.26340246 C-156.2983464 31.59097917 -154.89405285 30.90985176 -153.49387455 30.22043371 C-128.9871481 18.18165565 -102.40209589 10.2162237 -75.60813236 5.26144934 C-74.7297974 5.09709387 -73.85146244 4.9327384 -72.94651127 4.76340246 C-48.88632192 0.3947883 -24.38384249 -0.04554898 0 0 Z " fill="#007135" transform="translate(966.6081323623657,624.7385506629944)"/>
<path d="M0 0 C0.61601074 0.28182129 1.23202148 0.56364258 1.86669922 0.85400391 C31.29931737 14.70239868 54.03012178 39.75752071 65.6328125 70.08984375 C77.57690002 103.58179705 75.04229273 138.34210351 60.015625 170.375 C45.94376569 198.64555561 21.2300019 219.83531108 -8 231 C-9.15757812 231.45246094 -10.31515625 231.90492188 -11.5078125 232.37109375 C-42.52174822 243.65802284 -76.19643604 240.43534949 -105.95410156 226.96630859 C-115.48036917 222.46690917 -124.0478112 216.92694793 -132 210 C-133.24716797 208.93458984 -133.24716797 208.93458984 -134.51953125 207.84765625 C-158.5935385 186.80601243 -174.15489807 157.05693833 -177 125 C-178.87515457 89.14311991 -168.18319005 56.49587977 -144.53515625 29.31640625 C-108.49058335 -10.63543742 -48.75804138 -22.30990434 0 0 Z " fill="#FCFDFC" transform="translate(1231,1065)"/>
<path d="M0 0 C22.77 0 45.54 0 69 0 C69 32.34 69 64.68 69 98 C85.83 98 102.66 98 120 98 C120 65.66 120 33.32 120 0 C143.1 0 166.2 0 190 0 C190 85.47 190 170.94 190 259 C167.23 259 144.46 259 121 259 C121 222.37 121 185.74 121 148 C103.51 148 86.02 148 68 148 C68 184.63 68 221.26 68 259 C45.56 259 23.12 259 0 259 C0 173.53 0 88.06 0 0 Z " fill="#FEFEFE" transform="translate(813,1049)"/>
<path d="M0 0 C53.13 0 106.26 0 161 0 C161 16.17 161 32.34 161 49 C130.31 49 99.62 49 68 49 C68 67.15 68 85.3 68 104 C96.71 104 125.42 104 155 104 C155 119.84 155 135.68 155 152 C126.29 152 97.58 152 68 152 C68 186.98 68 221.96 68 258 C45.56 258 23.12 258 0 258 C0 172.86 0 87.72 0 0 Z " fill="#FEFEFE" transform="translate(1357,1050)"/>
<path d="M0 0 C0 59.4 0 118.8 0 180 C-23.34772844 175.33045431 -44.29338429 163.04693095 -58.22802734 143.25585938 C-63.715517 135.01475135 -68.0453948 126.47791002 -71 117 C-71.31839844 116.00742188 -71.63679688 115.01484375 -71.96484375 113.9921875 C-74.11305206 105.93393143 -74.27699571 98.05393012 -74.3125 89.75 C-74.31805908 88.64889893 -74.32361816 87.54779785 -74.3293457 86.41333008 C-74.27030564 79.7135449 -73.59274227 73.50581208 -72 67 C-71.80881592 66.19546387 -71.61763184 65.39092773 -71.4206543 64.56201172 C-66.0731151 43.12878749 -50.65443785 23.39419265 -32 12 C-22.2899579 6.21487682 -11.57517899 0 0 0 Z " fill="#007135" transform="translate(1162,1089)"/>
<path d="M0 0 C21.88733488 2.73591686 41.63563806 16.08594147 55.4375 32.984375 C60.30784723 39.30286491 64.16534733 45.84892793 67.4375 53.125 C67.75525391 53.82802246 68.07300781 54.53104492 68.40039062 55.25537109 C73.04505377 66.13536966 74.5107804 76.52908876 74.375 88.3125 C74.36412354 89.59342529 74.35324707 90.87435059 74.34204102 92.1940918 C73.90596291 118.05763758 64.06637535 139.4504201 45.54492188 157.58447266 C33.0046387 169.07444766 16.83544081 177.59493703 0 180 C0 120.6 0 61.2 0 0 Z " fill="#009D4D" transform="translate(1196,1089)"/>
<path d="M0 0 C0 25.74 0 51.48 0 78 C-18.78179286 74.24364143 -32.66772246 66.63562163 -47 54 C-48.42699219 52.75089844 -48.42699219 52.75089844 -49.8828125 51.4765625 C-50.58148437 50.65929688 -51.28015625 49.84203125 -52 49 C-51.69786724 45.60789239 -50.36473741 44.03488059 -47.90234375 41.79296875 C-47.26989746 41.21015137 -46.63745117 40.62733398 -45.98583984 40.02685547 C-45.3098877 39.41986816 -44.63393555 38.81288086 -43.9375 38.1875 C-43.24865723 37.55730957 -42.55981445 36.92711914 -41.85009766 36.27783203 C-37.97250716 32.74133013 -34.05549661 29.25212317 -30.078125 25.828125 C-27.21485393 23.30930759 -24.42223044 20.7167229 -21.625 18.125 C-17.5783778 14.37808424 -13.52566881 10.63919495 -9.4375 6.9375 C-8.67308594 6.24527344 -7.90867187 5.55304688 -7.12109375 4.83984375 C-1.54140127 0 -1.54140127 0 0 0 Z " fill="#009D4D" transform="translate(1162,1191)"/>
<path d="M0 0 C18.08559398 2.26069925 35.34323148 11.89842491 48 25 C46.40224425 29.20409482 43.27027877 31.76819164 40 34.6875 C39.41549072 35.21786865 38.83098145 35.7482373 38.22875977 36.29467773 C36.49108311 37.86905409 34.74647489 39.43539622 33 41 C32.12214844 41.79148437 31.24429687 42.58296875 30.33984375 43.3984375 C28.73748989 44.8418587 27.1333189 46.28326523 25.52734375 47.72265625 C22.66917584 50.29809967 19.83309811 52.89707425 17 55.5 C13.11008466 59.06899419 9.21949878 62.63720296 5.3125 66.1875 C4.50425781 66.92355469 3.69601562 67.65960937 2.86328125 68.41796875 C1 70 1 70 0 70 C0 46.9 0 23.8 0 0 Z " fill="#007135" transform="translate(1196,1089)"/>
</svg>
