<svg width="9" height="9" viewBox="0 0 9 9" fill="none" xmlns="http://www.w3.org/2000/svg">
<path fill-rule="evenodd" clip-rule="evenodd" d="M2.89504 0.705874C3.08733 0.484054 3.32509 0.306208 3.59219 0.184412C3.8593 0.0626158 4.14948 -0.000278117 4.44304 9.24461e-07C5.06142 9.24461e-07 5.61555 0.273419 5.99104 0.705874C6.28392 0.684963 6.57786 0.72733 6.85291 0.8301C7.12796 0.932869 7.37766 1.09363 7.58507 1.30147C7.79282 1.50884 7.95353 1.75847 8.0563 2.03343C8.15906 2.30839 8.20148 2.60224 8.18066 2.89504C8.4024 3.08737 8.58016 3.32515 8.70188 3.59225C8.82359 3.85935 8.88642 4.14951 8.88608 4.44304C8.88636 4.7366 8.82346 5.02678 8.70167 5.29389C8.57987 5.56099 8.40203 5.79875 8.18021 5.99104C8.20102 6.28384 8.15861 6.57769 8.05584 6.85264C7.95308 7.1276 7.79236 7.37724 7.58461 7.58461C7.37724 7.79236 7.12761 7.95307 6.85265 8.05584C6.57769 8.1586 6.28384 8.20102 5.99104 8.1802C5.79876 8.40202 5.56099 8.57987 5.29389 8.70167C5.02678 8.82346 4.7366 8.88636 4.44304 8.88608C4.14948 8.88636 3.8593 8.82346 3.59219 8.70167C3.32509 8.57987 3.08733 8.40202 2.89504 8.1802C2.6022 8.20117 2.30828 8.15888 2.03323 8.05619C1.75818 7.9535 1.50846 7.79282 1.30101 7.58507C1.0932 7.37764 0.932455 7.12793 0.829687 6.85289C0.726919 6.57785 0.684538 6.28391 0.705419 5.99104C0.483682 5.79871 0.305921 5.56093 0.184205 5.29383C0.0624885 5.02673 -0.000334304 4.73656 1.33786e-06 4.44304C1.33786e-06 3.82466 0.273419 3.27053 0.705875 2.89504C0.68503 2.60224 0.72743 2.30838 0.830198 2.03342C0.932965 1.75845 1.09369 1.50882 1.30147 1.30147C1.50882 1.09369 1.75846 0.932965 2.03342 0.830197C2.30838 0.72743 2.60224 0.685029 2.89504 0.705874ZM6.0881 3.61641C6.11545 3.57997 6.13523 3.53844 6.14629 3.49426C6.15735 3.45007 6.15947 3.40412 6.15252 3.3591C6.14557 3.31408 6.12969 3.27091 6.10581 3.23212C6.08193 3.19332 6.05054 3.1597 6.01349 3.13321C5.97643 3.10672 5.93445 3.08791 5.89002 3.07788C5.84558 3.06785 5.7996 3.0668 5.75475 3.07479C5.70991 3.08279 5.66712 3.09967 5.62889 3.12444C5.59066 3.14921 5.55777 3.18138 5.53215 3.21904L4.05752 5.28334L3.31747 4.54329C3.25268 4.48292 3.16699 4.45006 3.07845 4.45162C2.98991 4.45318 2.90543 4.48905 2.84281 4.55167C2.78019 4.61429 2.74432 4.69877 2.74276 4.78731C2.7412 4.87585 2.77406 4.96154 2.83443 5.02633L3.85975 6.05165C3.89483 6.0867 3.93713 6.11371 3.98369 6.13078C4.03026 6.14785 4.07998 6.15458 4.12941 6.1505C4.17884 6.14643 4.22679 6.13164 4.26993 6.10717C4.31308 6.08271 4.35038 6.04914 4.37924 6.00881L6.0881 3.61641Z" fill="#423404"/>
</svg>
