<svg width="31" height="30" viewBox="0 0 31 30" fill="none" xmlns="http://www.w3.org/2000/svg">
<path d="M9.18873 2.00022C9.20723 2.00017 9.22564 2.00013 9.24462 2.00009C9.26505 2.00012 9.28538 2.00016 9.30639 2.00021C9.32807 2.00018 9.34975 2.00015 9.37201 2.00013C9.43252 2.00007 9.49293 2.00011 9.55345 2.00016C9.61907 2.00021 9.68479 2.00015 9.75041 2.00011C9.86555 2.00005 9.9808 2.00005 10.0959 2.00009C10.2673 2.00015 10.4385 2.00012 10.6098 2.00007C10.9157 1.99998 11.2215 1.99999 11.5274 2.00004C11.795 2.00008 12.0627 2.0001 12.3304 2.00007C12.3481 2.00007 12.3659 2.00007 12.3841 2.00007C12.4561 2.00006 12.528 2.00006 12.6 2.00005C13.2756 2 13.9512 2.00005 14.6267 2.00013C15.2274 2.00022 15.8281 2.00021 16.4288 2.00013C17.1031 2.00004 17.7774 2 18.4518 2.00006C18.5235 2.00006 18.5954 2.00007 18.6672 2.00007C18.685 2.00008 18.7026 2.00008 18.7209 2.00008C18.9884 2.0001 19.256 2.00007 19.5235 2.00003C19.8276 1.99998 20.1317 1.99999 20.4358 2.00009C20.6061 2.00013 20.7765 2.00013 20.9469 2.00008C21.0605 2.00004 21.1741 2.00006 21.2877 2.00013C21.3525 2.00017 21.4174 2.00019 21.4822 2.00012C21.5519 2.00006 21.6216 2.00012 21.6912 2.00021C21.7218 2.00014 21.7218 2.00014 21.753 2.00009C21.7807 2.00015 21.7807 2.00015 21.8089 2.00022C21.8249 2.00022 21.8408 2.00022 21.8573 2.00022C21.8973 2.00238 21.8973 2.00238 21.9491 2.01966C21.9775 2.02274 22.0059 2.02518 22.0344 2.02723C22.1397 2.03618 22.2424 2.0531 22.3464 2.07151C22.368 2.07506 22.3896 2.0786 22.412 2.08224C22.6113 2.11523 22.8066 2.16121 23.0026 2.20977C23.0232 2.2148 23.0438 2.21985 23.065 2.22503C23.1134 2.23695 23.1616 2.24918 23.2098 2.26162C23.2264 2.26585 23.2431 2.27009 23.2602 2.27444C23.2767 2.27876 23.2932 2.28309 23.3103 2.28754C23.3246 2.29129 23.339 2.29503 23.3537 2.29889C23.3998 2.31347 23.3998 2.31347 23.4576 2.33844C23.5216 2.36567 23.5859 2.38663 23.6524 2.40636C23.8356 2.46244 24.011 2.53131 24.1843 2.61314C24.2294 2.63411 24.2746 2.65447 24.3202 2.67431C24.4901 2.74826 24.6537 2.82882 24.8159 2.91836C24.8318 2.92682 24.8476 2.93529 24.8639 2.94401C25.0009 3.01738 25.1345 3.09651 25.2679 3.1762C25.2955 3.19251 25.3235 3.20823 25.3514 3.22383C25.3685 3.23516 25.3685 3.23516 25.3858 3.24672C25.3858 3.25813 25.3858 3.26954 25.3858 3.28128C25.3949 3.28254 25.4039 3.28378 25.4133 3.28506C25.4726 3.30431 25.5192 3.34016 25.5694 3.37634C25.6393 3.42768 25.6393 3.42768 25.714 3.47139C25.714 3.4828 25.714 3.49421 25.714 3.50596C25.726 3.50993 25.7379 3.51389 25.7502 3.51798C25.8111 3.5454 25.8599 3.58308 25.9115 3.62477C25.9271 3.63715 25.9271 3.63715 25.943 3.64978C26.0328 3.72186 26.1204 3.79658 26.2072 3.87239C26.2593 3.91879 26.2593 3.91879 26.3185 3.9553C26.3185 3.96671 26.3185 3.97812 26.3185 3.98987C26.3355 3.99557 26.3526 4.00128 26.3702 4.00715C26.3702 4.01856 26.3702 4.02997 26.3702 4.04172C26.3802 4.04635 26.3902 4.05099 26.4005 4.05576C26.4403 4.07679 26.4742 4.09881 26.5084 4.12813C26.5084 4.13954 26.5084 4.15094 26.5084 4.16269C26.5254 4.1684 26.5426 4.1741 26.5602 4.17998C26.5602 4.19139 26.5602 4.20278 26.5602 4.21454C26.5716 4.21454 26.583 4.21454 26.5947 4.21454C26.6771 4.2889 26.6771 4.2889 26.6983 4.3528C26.7098 4.3528 26.7211 4.3528 26.7329 4.3528C26.7329 4.36421 26.7329 4.37561 26.7329 4.38737C26.75 4.39307 26.7671 4.39878 26.7847 4.40465C26.7847 4.41606 26.7847 4.42746 26.7847 4.43921C26.7961 4.43921 26.8075 4.43921 26.8192 4.43921C26.8192 4.45062 26.8192 4.46202 26.8192 4.47378C26.8306 4.47378 26.8421 4.47378 26.8538 4.47378C26.9402 4.56842 26.9402 4.56842 26.9402 4.61204C26.9572 4.61774 26.9743 4.62344 26.9919 4.62932C27.0175 4.65752 27.0418 4.68689 27.0653 4.71682C27.1125 4.77593 27.1597 4.83431 27.21 4.89072C27.3892 5.09396 27.3892 5.09396 27.3892 5.14779C27.4006 5.14779 27.4119 5.14779 27.4237 5.14779C27.4686 5.20823 27.5022 5.2669 27.5273 5.3379C27.5387 5.3379 27.5501 5.3379 27.5619 5.3379C27.6136 5.41368 27.6136 5.41368 27.6136 5.45888C27.6251 5.45888 27.6365 5.45888 27.6482 5.45888C27.6575 5.47541 27.6667 5.49194 27.6762 5.50897C27.7223 5.58965 27.7721 5.66783 27.8219 5.7462C27.8486 5.78825 27.8753 5.83032 27.9019 5.87247C27.92 5.90118 27.9384 5.92977 27.9568 5.95832C27.9763 5.99464 27.9763 5.99464 27.9763 6.04648C27.9877 6.04648 27.9991 6.04648 28.0109 6.04648C28.1933 6.41158 28.1933 6.41158 28.2134 6.45208C28.2299 6.48499 28.2468 6.51773 28.2638 6.55038C28.3363 6.69087 28.3946 6.83279 28.448 6.98148C28.4659 7.03089 28.4851 7.07982 28.5042 7.12879C28.5734 7.30898 28.637 7.48886 28.6879 7.67509C28.6998 7.72166 28.6998 7.72166 28.7189 7.75745C28.7196 7.79201 28.7197 7.82659 28.7189 7.86114C28.7303 7.86114 28.7417 7.86114 28.7534 7.86114C28.7581 7.88304 28.7627 7.90494 28.7674 7.9275C28.7736 7.95687 28.7797 7.98624 28.7858 8.01561C28.7903 8.03714 28.7903 8.03714 28.795 8.05912C28.8096 8.12884 28.8245 8.1985 28.84 8.26802C28.8878 8.48241 28.9315 8.69445 28.949 8.91374C28.9539 8.98548 28.9539 8.98548 28.9782 9.05211C28.9993 9.09685 28.9995 9.12954 28.9995 9.17891C28.9997 9.20669 28.9997 9.20669 28.9998 9.23504C28.9997 9.25538 28.9996 9.27583 28.9996 9.29675C28.9996 9.31854 28.9997 9.34024 28.9997 9.36261C28.9999 9.42317 28.9998 9.48372 28.9997 9.54428C28.9996 9.61005 28.9997 9.67581 28.9998 9.74157C28.9999 9.857 28.9999 9.97233 28.9998 10.0878C28.9997 10.2593 28.9997 10.4308 28.9999 10.6025C29 10.9088 29 11.2152 28.9999 11.5216C28.9998 11.7897 28.9998 12.0578 28.9998 12.326C28.9999 12.3526 28.9999 12.3526 28.9999 12.3798C28.9999 12.4519 28.9999 12.524 28.9999 12.5961C29 13.2729 28.9999 13.9496 28.9997 14.6265C28.9995 15.2282 28.9996 15.8299 28.9997 16.4316C28.9999 17.1071 29 17.7826 28.9999 18.4581C28.9999 18.5301 28.9999 18.6021 28.9998 18.674C28.9998 18.6918 28.9998 18.7095 28.9998 18.7278C28.9998 18.9957 28.9998 19.2637 28.9999 19.5317C29 19.8364 29 20.141 28.9998 20.4456C28.9997 20.6162 28.9997 20.7869 28.9998 20.9575C28.9999 21.0713 28.9999 21.1851 28.9997 21.2989C28.9996 21.3639 28.9996 21.4288 28.9997 21.4938C28.9999 21.5636 28.9997 21.6334 28.9996 21.7033C28.9996 21.7236 28.9997 21.7439 28.9998 21.765C28.9997 21.7835 28.9996 21.802 28.9995 21.8211C28.9995 21.845 28.9995 21.845 28.9995 21.8695C28.995 21.9145 28.9826 21.9418 28.9607 21.981C28.9536 22.0158 28.9536 22.0158 28.951 22.0522C28.9497 22.0657 28.9485 22.0793 28.9471 22.0932C28.946 22.1075 28.9447 22.1217 28.9435 22.1365C28.9279 22.2984 28.9087 22.4575 28.8669 22.6151C28.8536 22.6695 28.8431 22.7242 28.8323 22.7792C28.8086 22.8997 28.7819 23.0193 28.7534 23.1389C28.7421 23.1389 28.7307 23.1389 28.7189 23.1389C28.72 23.1613 28.72 23.1613 28.7211 23.1842C28.7188 23.2458 28.7045 23.2882 28.6844 23.3462C28.6735 23.3851 28.6627 23.424 28.652 23.4629C28.6276 23.5489 28.6002 23.6311 28.5657 23.7136C28.541 23.7739 28.5182 23.8349 28.4955 23.896C28.4865 23.9201 28.4775 23.9442 28.4684 23.9682C28.4526 24.0106 28.437 24.053 28.4217 24.0955C28.3689 24.2386 28.3034 24.3728 28.2339 24.5081C28.2135 24.5477 28.1937 24.5874 28.1738 24.6274C28.1195 24.736 28.0652 24.8448 28.0109 24.9535C27.9994 24.9535 27.9881 24.9535 27.9763 24.9535C27.9744 24.9662 27.9725 24.9789 27.9704 24.9919C27.9587 25.0416 27.9425 25.0732 27.915 25.116C27.9017 25.137 27.9017 25.137 27.888 25.1584C27.8787 25.1728 27.8694 25.1871 27.8597 25.202C27.8461 25.2234 27.8461 25.2234 27.8323 25.2452C27.7907 25.31 27.7483 25.3737 27.7029 25.4359C27.6636 25.4864 27.6636 25.4864 27.6482 25.5411C27.6368 25.5411 27.6254 25.5411 27.6136 25.5411C27.6056 25.5615 27.6056 25.5615 27.5974 25.5822C27.5791 25.6275 27.5791 25.6275 27.5619 25.6621C27.5504 25.6621 27.539 25.6621 27.5273 25.6621C27.523 25.6742 27.5188 25.6863 27.5144 25.6989C27.4898 25.7554 27.4604 25.8028 27.4237 25.8522C27.4123 25.8522 27.4009 25.8522 27.3892 25.8522C27.3851 25.8614 27.3809 25.8707 27.3768 25.8802C27.3484 25.9328 27.3134 25.979 27.2769 26.0261C27.2656 26.0408 27.2656 26.0408 27.2541 26.0557C27.1882 26.1402 27.1176 26.2192 27.0443 26.2974C27.007 26.3365 27.007 26.3365 26.9747 26.3879C26.9633 26.3879 26.9519 26.3879 26.9402 26.3879C26.9332 26.4029 26.9332 26.4029 26.9261 26.4182C26.9051 26.458 26.8831 26.492 26.8538 26.5262C26.8424 26.5262 26.831 26.5262 26.8192 26.5262C26.8192 26.5376 26.8192 26.5491 26.8192 26.5607C26.8079 26.5607 26.7964 26.5607 26.7847 26.5607C26.7847 26.5722 26.7847 26.5836 26.7847 26.5954C26.7562 26.6188 26.7274 26.6417 26.6983 26.6645C26.6926 26.6759 26.6869 26.6873 26.6811 26.699C26.6697 26.699 26.6583 26.699 26.6466 26.699C26.6466 26.7105 26.6466 26.7219 26.6466 26.7336C26.6228 26.7617 26.6228 26.7617 26.5947 26.7854C26.5834 26.7854 26.572 26.7854 26.5602 26.7854C26.5602 26.7969 26.5602 26.8083 26.5602 26.82C26.5318 26.8493 26.5318 26.8493 26.4943 26.8816C26.4822 26.8923 26.4699 26.9031 26.4573 26.9141C26.422 26.941 26.422 26.941 26.3702 26.9583C26.3645 26.9754 26.3588 26.9925 26.353 27.0101C26.3416 27.0101 26.3301 27.0101 26.3185 27.0101C26.3185 27.0216 26.3185 27.033 26.3185 27.0447C26.2585 27.1005 26.1928 27.1496 26.1284 27.2003C26.1184 27.2083 26.1083 27.2162 26.098 27.2245C26.0675 27.2485 26.037 27.2725 26.0065 27.2964C25.9968 27.304 25.9872 27.3116 25.9772 27.3195C25.908 27.3731 25.908 27.3731 25.8694 27.3731C25.8694 27.3844 25.8694 27.3959 25.8694 27.4077C25.8442 27.43 25.8442 27.43 25.8111 27.453C25.7949 27.4646 25.7949 27.4646 25.7784 27.4763C25.7485 27.4941 25.7485 27.4941 25.714 27.4941C25.714 27.5055 25.714 27.5168 25.714 27.5286C25.6755 27.5572 25.6755 27.5572 25.6244 27.5891C25.6077 27.5996 25.5912 27.6101 25.574 27.621C25.5293 27.6466 25.486 27.6665 25.4377 27.6841C25.4377 27.6955 25.4377 27.707 25.4377 27.7188C25.4206 27.7188 25.4034 27.7188 25.3858 27.7188C25.3858 27.7301 25.3858 27.7415 25.3858 27.7533C25.3603 27.773 25.3603 27.773 25.3245 27.7945C25.305 27.8065 25.305 27.8065 25.285 27.8187C25.2638 27.8312 25.2638 27.8312 25.2423 27.844C25.2208 27.8569 25.2208 27.8569 25.1988 27.8701C25.0956 27.932 24.9914 27.9911 24.885 28.0471C24.8605 28.0603 24.836 28.0736 24.8115 28.0868C24.6492 28.1742 24.4853 28.2543 24.3159 28.3272C24.2685 28.3478 24.2223 28.3698 24.1762 28.3935C24.1111 28.4265 24.0448 28.4532 23.9762 28.478C23.9643 28.4825 23.9525 28.4868 23.9402 28.4913C23.904 28.5046 23.8678 28.5179 23.8316 28.531C23.8206 28.535 23.8095 28.5391 23.7981 28.5432C23.6852 28.5847 23.5722 28.6243 23.4564 28.6576C23.4273 28.6662 23.3984 28.6756 23.3696 28.6854C23.1116 28.7703 22.846 28.8297 22.5797 28.882C22.5431 28.8892 22.5067 28.8965 22.4703 28.9042C22.3832 28.9227 22.2975 28.9346 22.2087 28.9416C22.1725 28.9439 22.1725 28.9439 22.1391 28.9631C22.1079 28.9665 22.0766 28.9693 22.0452 28.9717C21.9912 28.9757 21.9489 28.9804 21.8973 28.9976C21.8679 28.9992 21.8384 28.9998 21.8089 28.9998C21.7812 28.9998 21.7812 28.9998 21.753 28.9999C21.7326 28.9999 21.7122 28.9998 21.6912 28.9998C21.6588 28.9998 21.6588 28.9998 21.6256 28.9999C21.5651 28.9999 21.5047 28.9999 21.4442 28.9998C21.3786 28.9998 21.3129 28.9998 21.2472 28.9999C21.1321 29 21.0168 29 20.9017 28.9999C20.7303 28.9998 20.5591 28.9999 20.3878 28.9999C20.082 29 19.7761 29 19.4703 29C19.2026 28.9999 18.9349 28.9999 18.6672 28.9999C18.6495 28.9999 18.6318 28.9999 18.6135 28.9999C18.5416 28.9999 18.4696 28.9999 18.3976 28.9999C17.722 29 17.0465 29 16.3709 28.9999C15.7702 28.9998 15.1695 28.9998 14.5688 28.9999C13.8945 29 13.2202 29 12.5459 28.9999C12.4741 28.9999 12.4022 28.9999 12.3304 28.9999C12.3127 28.9999 12.295 28.9999 12.2768 28.9999C12.0092 28.9999 11.7417 28.9999 11.4742 29C11.1701 29 10.8659 29 10.5618 28.9999C10.3915 28.9999 10.2212 28.9999 10.0509 28.9999C9.93725 29 9.82354 28.9999 9.70994 28.9999C9.64509 28.9998 9.58024 28.9998 9.51539 28.9999C9.44572 28.9999 9.37605 28.9999 9.30639 28.9998C9.27584 28.9998 9.27584 28.9998 9.24462 28.9999C9.22622 28.9999 9.20771 28.9998 9.18873 28.9998C9.17283 28.9998 9.15684 28.9998 9.14046 28.9998C9.10027 28.9976 9.10027 28.9976 9.04853 28.9803C8.99515 28.975 8.94167 28.9716 8.88819 28.9679C8.84126 28.9631 8.84126 28.9631 8.80677 28.9458C8.78325 28.9422 8.75965 28.9394 8.73594 28.9371C8.72216 28.9357 8.70829 28.9342 8.69403 28.9328C8.66474 28.9299 8.63544 28.927 8.60624 28.9242C8.49765 28.9129 8.49765 28.9129 8.47857 28.8939C8.45188 28.8879 8.42499 28.8829 8.39801 28.8783C8.37325 28.874 8.37325 28.874 8.34791 28.8695C8.32179 28.865 8.3218 28.865 8.2951 28.8605C8.18728 28.8419 8.08254 28.8222 7.97779 28.7903C7.94291 28.7814 7.90803 28.7728 7.87305 28.7643C7.8031 28.747 7.73507 28.7276 7.66694 28.7038C7.63784 28.6951 7.60865 28.6864 7.57945 28.6779C7.52077 28.6604 7.46459 28.6407 7.40784 28.6174C7.37295 28.6058 7.33807 28.5941 7.30319 28.5826C7.23574 28.56 7.16848 28.537 7.10132 28.5137C7.0887 28.5094 7.07598 28.5051 7.06297 28.5007C6.99388 28.4766 6.935 28.4487 6.87247 28.4101C6.84183 28.3977 6.8109 28.3862 6.77968 28.3754C6.70548 28.3493 6.6335 28.3209 6.56162 28.289C6.56162 28.2777 6.56162 28.2662 6.56162 28.2545C6.54957 28.2527 6.53743 28.2508 6.525 28.2489C6.42122 28.2244 6.32746 28.1658 6.23352 28.1162C6.21424 28.1061 6.21424 28.1061 6.19468 28.0958C5.68842 27.828 5.18918 27.5043 4.76858 27.1131C4.71867 27.0681 4.66586 27.0277 4.612 26.9877C4.56777 26.952 4.52922 26.9122 4.48923 26.8719C4.45888 26.8417 4.42853 26.8116 4.39818 26.7814C4.37197 26.7552 4.34585 26.7292 4.31964 26.7031C4.30182 26.6853 4.28399 26.6676 4.26617 26.6498C4.16393 26.5484 4.06439 26.446 3.97112 26.3362C3.95849 26.3221 3.94587 26.308 3.93286 26.2935C3.92313 26.2826 3.9133 26.2717 3.90318 26.2605C3.89307 26.2493 3.88295 26.2381 3.87244 26.2266C3.85028 26.1979 3.85028 26.1979 3.85028 26.1633C3.83891 26.1633 3.82745 26.1633 3.81569 26.1633C3.7838 26.1258 3.75373 26.0881 3.72396 26.0488C3.70748 26.0273 3.691 26.0059 3.67452 25.9844C3.66643 25.9738 3.65834 25.9632 3.64995 25.9523C3.62721 25.9232 3.6037 25.895 3.57971 25.8669C3.54377 25.823 3.51602 25.7802 3.48759 25.7313C3.46562 25.7004 3.44326 25.6698 3.42072 25.6394C3.26307 25.4241 3.26307 25.4241 3.26307 25.3683C3.2517 25.3683 3.24033 25.3683 3.22858 25.3683C3.21856 25.3505 3.20863 25.3326 3.19832 25.3143C3.17404 25.2714 3.14879 25.2319 3.12066 25.1912C3.0904 25.1436 3.0904 25.1436 3.0904 25.0918C3.07903 25.0918 3.06756 25.0918 3.05581 25.0918C3.04588 25.0715 3.03586 25.0512 3.02565 25.0302C3.00146 24.9814 2.97583 24.9344 2.94789 24.8876C2.91773 24.8326 2.91773 24.8325 2.91773 24.7807C2.90626 24.7807 2.89489 24.7807 2.88313 24.7807C2.86569 24.7477 2.84844 24.7145 2.83139 24.6814C2.81693 24.6537 2.81694 24.6537 2.80219 24.6254C2.77955 24.5733 2.77955 24.5733 2.77955 24.5042C2.76818 24.5042 2.75671 24.5042 2.74495 24.5042C2.74081 24.4933 2.73667 24.4824 2.73233 24.4712C2.69899 24.386 2.66382 24.3041 2.6195 24.224C2.60687 24.1931 2.60687 24.1931 2.60687 24.124C2.59541 24.124 2.58404 24.124 2.57228 24.124C2.38255 23.6042 2.38255 23.6042 2.33919 23.4392C2.32464 23.3843 2.30913 23.3368 2.28629 23.2847C2.25892 23.2193 2.2463 23.1573 2.23435 23.0877C2.2303 23.0527 2.2303 23.0527 2.20959 23.0351C2.20718 23.0174 2.20467 22.9995 2.20207 22.9811C2.19407 22.9154 2.19407 22.9154 2.17605 22.858C2.15746 22.7918 2.14397 22.7257 2.13192 22.6582C2.12749 22.6338 2.12306 22.6093 2.11853 22.5849C2.11641 22.5731 2.11429 22.5615 2.11207 22.5494C2.10417 22.507 2.0954 22.4648 2.08654 22.4227C2.07276 22.3553 2.06447 22.2882 2.0585 22.2196C2.0557 22.1866 2.0557 22.1866 2.03691 22.1538C2.03344 22.1225 2.03065 22.0912 2.02834 22.0597C2.02429 22.0057 2.01957 21.9634 2.00242 21.9118C2.00078 21.8823 2.0002 21.8527 2.0002 21.8232C2.0002 21.7954 2.0002 21.7954 2.0001 21.7672C2.0001 21.7467 2.0002 21.7263 2.0002 21.7053C2.0002 21.6836 2.0002 21.6619 2.0001 21.6395C2.0001 21.579 2.0001 21.5183 2.0002 21.4577C2.0002 21.392 2.0002 21.3261 2.0001 21.2604C2.00001 21.1449 2.00001 21.0295 2.0001 20.9141C2.0002 20.7424 2.0001 20.5708 2.0001 20.3992C1.99999 20.0927 2 19.7862 2.00001 19.4797C2.0001 19.2114 2.0001 18.9433 2.0001 18.675C2.0001 18.6484 2.0001 18.6484 2.0001 18.6212C2.0001 18.5491 2.0001 18.4769 2.0001 18.4048C2.00001 17.7279 2.00001 17.0509 2.0001 16.3738C2.0002 15.7719 2.0002 15.17 2.0001 14.5681C2.00001 13.8923 2.00001 13.2167 2.0001 12.5409C2.0001 12.469 2.0001 12.3969 2.0001 12.325C2.0001 12.2984 2.0001 12.2984 2.0001 12.2713C2.0001 12.0032 2.0001 11.735 2.00001 11.467C1.99999 11.1623 2 10.8575 2.0001 10.5528C2.0001 10.3821 2.0001 10.2114 2.0001 10.0407C2.00001 9.92681 2.0001 9.81293 2.0001 9.69915C2.0002 9.63415 2.0002 9.56916 2.0001 9.50417C2.0001 9.43435 2.0001 9.36454 2.0002 9.29473C2.0002 9.27428 2.0001 9.25384 2.0001 9.23282C2.0001 9.2143 2.0002 9.19589 2.0002 9.17679C2.0002 9.16079 2.0002 9.14487 2.0002 9.12839C2.00242 9.08817 2.00242 9.08817 2.01967 9.03639C2.02487 8.98741 2.02843 8.93842 2.0321 8.88934C2.03691 8.84624 2.03691 8.84624 2.05416 8.81171C2.05975 8.7663 2.06476 8.72104 2.06929 8.67558C2.08105 8.56748 2.09926 8.4651 2.12797 8.36004C2.14618 8.28839 2.15688 8.21594 2.16767 8.14287C2.17509 8.1031 2.17509 8.1031 2.19234 8.08582C2.1961 8.05855 2.1961 8.05855 2.19995 8.03073C2.20901 7.96934 2.22433 7.91969 2.24418 7.86114C2.25266 7.82771 2.26085 7.79422 2.26904 7.76069C2.28773 7.68444 2.30913 7.61047 2.33495 7.53636C2.34873 7.49549 2.36068 7.45433 2.37263 7.41288C2.39392 7.34111 2.41975 7.27252 2.44827 7.20333C2.47486 7.13714 2.49982 7.07036 2.52478 7.0035C2.5295 6.99099 2.53412 6.97848 2.53894 6.96559C2.55012 6.93574 2.5612 6.90589 2.57228 6.87605C2.58365 6.87605 2.59512 6.87605 2.60687 6.87605C2.60976 6.85787 2.60976 6.85787 2.61285 6.83932C2.62518 6.78478 2.64416 6.73729 2.66623 6.68594C2.69311 6.6228 2.71981 6.55967 2.74495 6.49583C2.75642 6.49583 2.76779 6.49583 2.77955 6.49583C2.78244 6.47754 2.78244 6.47754 2.78543 6.45891C2.79786 6.40468 2.81742 6.35928 2.84102 6.30896C2.84893 6.29209 2.85673 6.27523 2.86492 6.25786C2.87388 6.23878 2.87388 6.23878 2.88313 6.21931C2.8946 6.21931 2.90597 6.21931 2.91773 6.21931C2.91965 6.20969 2.92168 6.20006 2.9237 6.19015C2.93652 6.14452 2.9554 6.10592 2.97708 6.06377C2.9845 6.04915 2.99202 6.03453 2.99963 6.01948C3.01042 5.99863 3.01042 5.99862 3.02131 5.97735C3.03287 5.95432 3.04434 5.93129 3.05581 5.90822C3.06727 5.90822 3.07864 5.90822 3.0904 5.90822C3.09213 5.89844 3.09397 5.88867 3.0958 5.87859C3.10986 5.83193 3.13145 5.80002 3.15949 5.76024C3.19061 5.71589 3.21133 5.68346 3.22858 5.6317C3.23995 5.6317 3.25132 5.6317 3.26307 5.6317C3.26741 5.61994 3.27165 5.60818 3.27608 5.59606C3.30181 5.53547 3.33332 5.48107 3.36676 5.42431C3.37813 5.42431 3.3895 5.42431 3.40125 5.42431C3.40588 5.41183 3.4105 5.39937 3.41532 5.38651C3.46812 5.26122 3.46813 5.26122 3.52218 5.2342C3.53953 5.20546 3.55677 5.17664 3.57393 5.14779C3.60457 5.10627 3.63675 5.06603 3.66894 5.02574C3.6857 5.00466 3.70237 4.98357 3.71914 4.96248C3.72694 4.9527 3.73475 4.94291 3.74284 4.93284C3.76038 4.91033 3.77715 4.88713 3.79362 4.86378C3.80095 4.85484 3.80817 4.84592 3.81569 4.83671C3.82716 4.83671 3.83853 4.83671 3.85028 4.83671C3.85452 4.82691 3.85886 4.8171 3.86329 4.80701C3.88815 4.7614 3.91764 4.72803 3.95281 4.68981C3.97391 4.66685 3.97391 4.66685 3.9954 4.64343C4.01756 4.61934 4.01756 4.61934 4.0402 4.59476C4.05418 4.57922 4.06805 4.5637 4.08241 4.5477C4.17887 4.44059 4.2786 4.33719 4.38025 4.23506C4.3923 4.22288 4.40444 4.21069 4.41687 4.19813C4.49579 4.11943 4.5776 4.04531 4.66191 3.97259C4.68301 3.95364 4.68301 3.95364 4.7045 3.93431C4.71539 3.92448 4.72628 3.91466 4.73755 3.90454C4.74873 3.8944 4.75991 3.88426 4.77137 3.87382C4.80009 3.85161 4.80009 3.85161 4.83468 3.85161C4.83468 3.8402 4.83468 3.8288 4.83468 3.81704C4.8712 3.78343 4.8712 3.78343 4.9188 3.74575C4.93451 3.73324 4.95012 3.72071 4.96621 3.70782C5.00735 3.67878 5.00735 3.67878 5.04185 3.67878C5.04185 3.66737 5.04185 3.65597 5.04185 3.64422C5.10227 3.59925 5.16095 3.56558 5.23187 3.54052C5.23187 3.52912 5.23187 3.51771 5.23187 3.50596C5.26868 3.47722 5.30539 3.45093 5.34413 3.42494C5.35627 3.41669 5.36851 3.40844 5.38103 3.39993C5.79239 3.12361 6.22716 2.8355 6.69247 2.65784C6.8029 2.61565 6.91197 2.56932 7.01932 2.51978C7.11173 2.4782 7.20779 2.44816 7.30425 2.41716C7.33017 2.40856 7.35609 2.39993 7.38201 2.39124C7.39444 2.38709 7.40697 2.38296 7.41978 2.37868C7.44802 2.36921 7.47625 2.35956 7.50439 2.34978C7.72274 2.27485 7.94561 2.21644 8.16993 2.16225C8.18487 2.15861 8.19971 2.15496 8.21513 2.15121C8.28306 2.13511 8.34974 2.12134 8.41912 2.11337C8.47558 2.11266 8.47558 2.11266 8.49591 2.0888C8.54737 2.0823 8.59863 2.07658 8.65019 2.07151C8.6788 2.0687 8.70742 2.06582 8.73594 2.06287C8.74866 2.06163 8.76148 2.06037 8.77458 2.05909C8.80821 2.0557 8.80821 2.0557 8.84126 2.03695C8.87537 2.03341 8.90958 2.03063 8.94379 2.02831C9.0281 2.02256 9.10442 2.00022 9.18873 2.00022ZM9.35938 2.98749C9.32306 2.99028 9.28673 2.9923 9.2504 2.99397C9.13689 3.00031 9.02502 3.0135 8.91247 3.02962C8.89002 3.03278 8.89002 3.03278 8.86718 3.03602C8.78268 3.04844 8.69981 3.064 8.61684 3.08383C8.58225 3.09119 8.54833 3.09545 8.51316 3.09875C8.44831 3.10591 8.39175 3.12538 8.33056 3.14728C8.28441 3.16163 8.23912 3.16982 8.19152 3.17759C8.11366 3.19056 8.05006 3.21458 7.97779 3.24672C7.95303 3.25264 7.92827 3.25801 7.90331 3.26292C7.83008 3.27787 7.76532 3.30315 7.69672 3.33205C7.64526 3.35211 7.59361 3.36751 7.54062 3.38282C7.43828 3.41328 7.34443 3.45447 7.24856 3.50131C7.20895 3.51944 7.17407 3.53206 7.13158 3.54052C7.13158 3.55193 7.13158 3.56334 7.13158 3.57509C7.10999 3.57743 7.10999 3.57743 7.08793 3.57982C7.01807 3.59445 6.96006 3.62224 6.89733 3.65502C6.87931 3.66423 6.87931 3.66423 6.8609 3.67363C6.76541 3.72272 6.67079 3.77341 6.57665 3.82494C6.52606 3.85217 6.47499 3.878 6.42353 3.90346C6.42353 3.91486 6.42353 3.92627 6.42353 3.93802C6.41187 3.93918 6.40022 3.94034 6.38817 3.94153C6.31899 3.96021 6.26917 3.99657 6.21087 4.0374C6.18784 4.05317 6.16491 4.06892 6.14188 4.08465C6.13089 4.09219 6.12 4.09973 6.10863 4.1075C6.07086 4.13302 6.03203 4.15663 5.99281 4.17998C5.9666 4.19709 5.9666 4.19709 5.93991 4.21454C5.93991 4.22595 5.93991 4.23735 5.93991 4.24911C5.92642 4.25445 5.91283 4.2598 5.89896 4.26531C5.85492 4.28243 5.85492 4.28243 5.81908 4.30095C5.81908 4.31236 5.81908 4.32376 5.81908 4.33552C5.79624 4.34122 5.7734 4.34693 5.74999 4.3528C5.74999 4.36421 5.74999 4.37561 5.74999 4.38737C5.73814 4.39104 5.72628 4.39472 5.71405 4.39851C5.64814 4.42911 5.60092 4.47203 5.54706 4.52023C5.52557 4.53907 5.50408 4.55788 5.48259 4.57667C5.47219 4.58574 5.46188 4.59482 5.45118 4.60417C5.40252 4.64587 5.35174 4.68449 5.30038 4.72269C5.25712 4.75785 5.21925 4.79715 5.18003 4.83671C5.15074 4.86584 5.12144 4.89496 5.09215 4.92407C5.0671 4.94905 5.04195 4.97404 5.01689 4.99902C4.99974 5.01606 4.98269 5.03309 4.96553 5.0501C4.82504 5.18857 4.82504 5.18857 4.6965 5.3379C4.6965 5.34931 4.6965 5.36072 4.6965 5.37246C4.68513 5.37246 4.67367 5.37246 4.66191 5.37246C4.60621 5.43244 4.55707 5.49823 4.50648 5.56257C4.49309 5.57944 4.4796 5.5963 4.46582 5.61368C4.29681 5.82888 4.14254 6.05565 4.00157 6.29013C3.97198 6.33893 3.94096 6.38655 3.90964 6.43426C3.85308 6.52276 3.80663 6.61472 3.76077 6.70916C3.74005 6.75159 3.71827 6.79317 3.69534 6.83446C3.61623 6.97677 3.55369 7.12056 3.49674 7.27307C3.47728 7.32507 3.45627 7.3756 3.43257 7.42584C3.39634 7.50422 3.3735 7.58616 3.34989 7.66908C3.33216 7.72288 3.33216 7.72288 3.30528 7.77615C3.28186 7.8236 3.27059 7.86115 3.26201 7.91299C3.25084 7.97921 3.23311 8.03959 3.21133 8.1031C3.17028 8.23555 3.13598 8.3662 3.11516 8.50336C3.10765 8.55275 3.09888 8.6017 3.08934 8.65074C3.08529 8.67169 3.08529 8.67169 3.08115 8.69307C3.07315 8.72527 3.07315 8.72527 3.05581 8.74255C3.05215 8.7663 3.04945 8.79031 3.04723 8.81422C3.04579 8.82878 3.04434 8.84334 3.0429 8.85829C3.04145 8.87352 3.04 8.88886 3.03856 8.90457C3.03576 8.93456 3.03287 8.96465 3.02998 8.99464C3.02806 9.0147 3.02806 9.0147 3.02613 9.03514C3.02131 9.07091 3.02131 9.07091 3.00406 9.12279C3.0005 9.16599 2.99761 9.2091 2.99539 9.25239C2.98913 9.37495 2.98913 9.37495 2.96947 9.43387C2.96793 9.46193 2.96735 9.49009 2.96735 9.51815C2.96725 9.5357 2.96725 9.55315 2.96725 9.57128C2.96725 9.59057 2.96725 9.60995 2.96735 9.62991C2.96735 9.65045 2.96725 9.67099 2.96725 9.6922C2.96716 9.74958 2.96725 9.80705 2.96725 9.86442C2.96735 9.92681 2.96725 9.9892 2.96725 10.0515C2.96716 10.1608 2.96716 10.2703 2.96725 10.3796C2.96725 10.5423 2.96725 10.7049 2.96716 10.8676C2.96706 11.158 2.96716 11.4485 2.96716 11.7389C2.96716 11.993 2.96725 12.2472 2.96716 12.5014C2.96716 12.5181 2.96716 12.535 2.96716 12.5524C2.96716 12.6206 2.96716 12.689 2.96716 12.7574C2.96716 13.3988 2.96716 14.0403 2.96725 14.6817C2.96735 15.2521 2.96735 15.8225 2.96725 16.3928C2.96716 17.0331 2.96716 17.6734 2.96716 18.3137C2.96716 18.3819 2.96716 18.45 2.96716 18.5183C2.96716 18.5351 2.96716 18.5519 2.96716 18.5691C2.96725 18.8232 2.96716 19.0772 2.96716 19.3313C2.96706 19.62 2.96716 19.9088 2.96725 20.1975C2.96725 20.3593 2.96725 20.521 2.96716 20.6828C2.96716 20.7907 2.96716 20.8986 2.96725 21.0065C2.96725 21.068 2.96735 21.1296 2.96725 21.1912C2.96716 21.2573 2.96725 21.3234 2.96735 21.3896C2.96725 21.409 2.96725 21.4283 2.96725 21.4483C2.96725 21.4745 2.96725 21.4745 2.96735 21.5013C2.96735 21.5165 2.96735 21.5316 2.96735 21.5472C2.96716 21.5845 2.96716 21.5845 2.98681 21.618C2.98999 21.654 2.99231 21.6899 2.99433 21.726C3.00271 21.8526 3.01871 21.9766 3.03856 22.1019C3.04058 22.1147 3.04261 22.1274 3.04463 22.1407C3.05118 22.1817 3.05783 22.2228 3.06448 22.2639C3.06756 22.2831 3.06756 22.2831 3.07065 22.3026C3.08471 22.3867 3.10331 22.4687 3.1249 22.5512C3.13068 22.5741 3.13646 22.5969 3.14224 22.6198C3.14504 22.631 3.14783 22.6423 3.15082 22.6538C3.17269 22.7411 3.19466 22.8283 3.21345 22.9163C3.22675 22.9753 3.24332 23.03 3.26307 23.087C3.27107 23.1144 3.27897 23.1417 3.28687 23.1691C3.30904 23.244 3.3365 23.3152 3.36627 23.3874C3.38506 23.4354 3.40077 23.4839 3.41638 23.5331C3.44789 23.6298 3.48846 23.7201 3.53211 23.8118C3.55254 23.8557 3.57017 23.8992 3.58693 23.9446C3.67713 24.1756 3.81097 24.3947 3.93662 24.6079C3.94693 24.6254 3.95734 24.6431 3.96803 24.6611C4.10274 24.885 4.25335 25.0992 4.40617 25.311C4.41408 25.3221 4.42198 25.3332 4.43007 25.3447C4.44896 25.3705 4.469 25.3954 4.48923 25.4202C4.5007 25.4202 4.51207 25.4202 4.52383 25.4202C4.5352 25.4486 4.54657 25.4772 4.55832 25.5066C4.56969 25.5066 4.58116 25.5066 4.59292 25.5066C4.60034 25.522 4.60034 25.522 4.60795 25.5379C4.62828 25.579 4.62828 25.579 4.66191 25.6275C4.67338 25.6275 4.68475 25.6275 4.6965 25.6275C4.70036 25.6369 4.70421 25.6462 4.70826 25.6559C4.73823 25.7095 4.77773 25.7516 4.81955 25.7961C4.82851 25.8056 4.83747 25.8153 4.84663 25.8252C4.92372 25.9072 5.00254 25.9874 5.08184 26.0671C5.09321 26.0786 5.10448 26.09 5.11624 26.1018C5.22811 26.2325 5.22811 26.2325 5.37005 26.3015C5.37573 26.3187 5.38142 26.3358 5.3873 26.3534C5.41543 26.3794 5.44482 26.404 5.47469 26.428C5.49184 26.4416 5.5089 26.4552 5.52653 26.4692C5.5433 26.4823 5.55997 26.4955 5.57722 26.509C5.59119 26.5199 5.60507 26.5308 5.61933 26.5421C5.6783 26.594 5.6783 26.594 5.74999 26.6126C5.74999 26.624 5.74999 26.6355 5.74999 26.6472C5.77273 26.6529 5.79557 26.6586 5.81908 26.6645C5.81908 26.6759 5.81908 26.6873 5.81908 26.699C5.87468 26.739 5.87468 26.739 5.93991 26.7509C5.93991 26.7623 5.93991 26.7738 5.93991 26.7854C5.9745 26.8117 5.9745 26.8117 6.01979 26.8384C6.07857 26.8745 6.13706 26.9109 6.19449 26.949C6.21068 26.9597 6.21068 26.9597 6.22716 26.9705C6.24845 26.9845 6.26965 26.9986 6.29075 27.0128C6.35184 27.0532 6.35184 27.0532 6.42353 27.062C6.42353 27.0734 6.42353 27.0848 6.42353 27.0965C6.45273 27.111 6.45273 27.1111 6.48251 27.1258C6.54919 27.1591 6.615 27.1938 6.68081 27.2288C6.81205 27.2987 6.94348 27.3653 7.07973 27.4249C7.11067 27.4393 7.1416 27.4537 7.17253 27.4681C7.3612 27.5608 7.3612 27.5608 7.56326 27.5977C7.56326 27.6091 7.56326 27.6206 7.56326 27.6323C7.57974 27.6369 7.59622 27.6415 7.61318 27.6462C7.63486 27.6523 7.65644 27.6584 7.6788 27.6647C7.70019 27.6707 7.72167 27.6767 7.74374 27.683C7.79462 27.6983 7.84231 27.7161 7.89146 27.736C7.9222 27.7451 7.95322 27.7538 7.98425 27.762C8.03628 27.7757 8.08803 27.7898 8.13968 27.8052C8.21927 27.8271 8.29963 27.8447 8.38029 27.8624C8.42683 27.8743 8.42682 27.8743 8.44407 27.8916C8.48387 27.8976 8.52386 27.9029 8.56385 27.9078C8.64036 27.9173 8.71619 27.9275 8.79164 27.9434C8.95603 27.9778 9.11906 27.999 9.28673 28.0066C9.37326 28.0108 9.37326 28.0108 9.41122 28.0298C9.43859 28.0315 9.46605 28.032 9.49351 28.032C9.51105 28.032 9.52859 28.0321 9.54661 28.0321C9.57571 28.0321 9.57571 28.032 9.60548 28.032C9.6261 28.032 9.64663 28.0321 9.66783 28.0321C9.72545 28.0321 9.78297 28.0321 9.8406 28.0321C9.90304 28.032 9.96557 28.0321 10.028 28.0321C10.1377 28.0321 10.2472 28.0321 10.3569 28.0321C10.5199 28.0321 10.683 28.0321 10.846 28.0321C11.1371 28.0322 11.4282 28.0321 11.7193 28.0321C11.974 28.0321 12.2287 28.0321 12.4835 28.0321C12.5088 28.0321 12.5088 28.0321 12.5346 28.0321C12.6031 28.0321 12.6716 28.0321 12.7401 28.0321C13.383 28.0321 14.0259 28.0321 14.6688 28.0321C15.2405 28.032 15.8122 28.032 16.3839 28.0321C17.0257 28.0321 17.6673 28.0321 18.3091 28.0321C18.3775 28.0321 18.4458 28.0321 18.5141 28.0321C18.531 28.0321 18.5478 28.0321 18.5652 28.0321C18.8198 28.0321 19.0744 28.0321 19.329 28.0321C19.6185 28.0322 19.9079 28.0321 20.1973 28.0321C20.3595 28.0321 20.5216 28.0321 20.6837 28.0321C20.7918 28.0321 20.8999 28.0321 21.0082 28.0321C21.0698 28.0321 21.1316 28.032 21.1933 28.0321C21.2596 28.0321 21.3258 28.032 21.3921 28.032C21.4116 28.032 21.4311 28.0321 21.451 28.0321C21.4773 28.0321 21.4773 28.032 21.5041 28.032C21.5193 28.032 21.5345 28.032 21.5502 28.032C21.5875 28.0321 21.5875 28.0321 21.621 28.0125C21.6602 28.0093 21.6994 28.007 21.7386 28.005C21.8448 27.9989 21.9484 27.9863 22.0534 27.9688C22.1007 27.9613 22.1476 27.9557 22.1952 27.951C22.2564 27.9506 22.2564 27.9506 22.2773 27.9261C22.3146 27.92 22.3521 27.9148 22.3895 27.9099C22.5785 27.8839 22.7563 27.8341 22.9389 27.7803C22.9509 27.7767 22.963 27.7732 22.9753 27.7696C23.0002 27.7622 23.025 27.7549 23.0499 27.7476C23.0766 27.7397 23.1033 27.7319 23.1301 27.7241C23.2394 27.6919 23.3467 27.6551 23.4537 27.6161C23.4699 27.6103 23.4861 27.6046 23.5028 27.5986C23.5883 27.5676 23.6696 27.5334 23.7503 27.4915C23.7875 27.4729 23.8254 27.46 23.865 27.4476C23.978 27.4079 24.0806 27.351 24.1855 27.2938C24.2442 27.2619 24.3037 27.2322 24.3636 27.2029C24.4699 27.15 24.57 27.0898 24.6703 27.0263C24.688 27.0152 24.7057 27.004 24.7239 26.9925C24.8899 26.8874 25.0533 26.7786 25.2131 26.6645C25.2322 26.6513 25.2322 26.6513 25.2517 26.6379C25.2618 26.6296 25.2718 26.6212 25.2822 26.6126C25.2822 26.6012 25.2822 26.5899 25.2822 26.5781C25.2915 26.5738 25.3007 26.5695 25.3103 26.5651C25.3613 26.5382 25.4083 26.5084 25.4549 26.4743C25.4549 26.463 25.4549 26.4516 25.4549 26.4398C25.4895 26.4226 25.524 26.4052 25.5586 26.3879C25.5586 26.3766 25.5586 26.3652 25.5586 26.3534C25.5722 26.348 25.5722 26.348 25.586 26.3426C25.6457 26.3086 25.6915 26.2624 25.741 26.2151C25.7607 26.1963 25.7806 26.1776 25.8003 26.1589C25.8091 26.1507 25.8178 26.1424 25.8267 26.1339C25.8521 26.1115 25.8521 26.1115 25.9039 26.0769C25.9039 26.0655 25.9039 26.0541 25.9039 26.0423C25.9211 26.0367 25.9381 26.0309 25.9558 26.025C25.9558 26.0136 25.9558 26.0022 25.9558 25.9905C25.9671 25.9905 25.9785 25.9905 25.9903 25.9905C26.0191 25.9674 26.0191 25.9674 26.0421 25.9386C26.0421 25.9272 26.0421 25.9158 26.0421 25.9041C26.0535 25.9041 26.0648 25.9041 26.0766 25.9041C26.1014 25.8802 26.1015 25.8802 26.1274 25.8478C26.173 25.794 26.2197 25.7415 26.2678 25.6898C26.3533 25.5978 26.4332 25.5036 26.5084 25.4028C26.5262 25.3796 26.544 25.3563 26.5618 25.333C26.581 25.3077 26.6003 25.2824 26.6196 25.257C26.6289 25.2448 26.6384 25.2324 26.6481 25.2198C26.6568 25.2082 26.6655 25.1967 26.6745 25.1847C26.6824 25.1743 26.6904 25.1639 26.6985 25.1532C26.7187 25.1268 26.7187 25.1268 26.7157 25.0918C26.727 25.0918 26.7384 25.0918 26.7502 25.0918C26.7764 25.0572 26.7764 25.0572 26.803 25.0118C26.8392 24.9531 26.8755 24.8946 26.9136 24.837C26.9242 24.8208 26.9242 24.8208 26.9351 24.8043C26.9491 24.7831 26.9632 24.7619 26.9774 24.7407C27.0177 24.6796 27.0177 24.6796 27.0265 24.6079C27.0379 24.6079 27.0492 24.6079 27.061 24.6079C27.0667 24.5793 27.0725 24.5508 27.0783 24.5215C27.0897 24.5215 27.1011 24.5215 27.1128 24.5215C27.12 24.5072 27.1271 24.4929 27.1344 24.4783C27.1444 24.4583 27.1544 24.4383 27.1647 24.4177C27.1701 24.4069 27.1755 24.396 27.1811 24.3848C27.2099 24.327 27.2389 24.2692 27.2683 24.2116C27.339 24.0722 27.4049 23.9315 27.4664 23.7877C27.487 23.7398 27.5084 23.6927 27.5306 23.6454C27.5658 23.5666 27.589 23.4847 27.6134 23.4019C27.634 23.3366 27.6595 23.2744 27.6873 23.2118C27.7017 23.1683 27.7023 23.1325 27.7001 23.087C27.7114 23.087 27.7228 23.087 27.7345 23.087C27.7392 23.0672 27.7437 23.0474 27.7484 23.027C27.7546 23.0005 27.7608 22.9741 27.7669 22.9477C27.7699 22.9346 27.7729 22.9216 27.7761 22.9083C27.7989 22.8103 27.8249 22.7139 27.8554 22.618C27.88 22.523 27.8937 22.4269 27.9083 22.3298C27.9143 22.2908 27.9202 22.2518 27.9262 22.2128C27.9288 22.1957 27.9314 22.1785 27.934 22.1609C27.9418 22.1191 27.9418 22.1191 27.9591 22.0846C27.9627 22.0543 27.9654 22.024 27.9677 21.9936C27.9691 21.9754 27.9705 21.9571 27.972 21.9383C27.9742 21.9097 27.9742 21.9097 27.9763 21.8805C27.9792 21.8429 27.982 21.8054 27.985 21.7678C27.9862 21.7511 27.9875 21.7344 27.9887 21.7171C27.9936 21.6699 27.9936 21.6699 28.0024 21.6292C28.0109 21.5833 28.013 21.5416 28.013 21.4951C28.0131 21.4775 28.0131 21.46 28.0132 21.4418C28.0131 21.4226 28.0131 21.4035 28.0131 21.3837C28.0131 21.3631 28.0131 21.3425 28.0132 21.3214C28.0132 21.2641 28.0132 21.2069 28.0132 21.1497C28.0131 21.0875 28.0132 21.0253 28.0133 20.9632C28.0134 20.854 28.0134 20.7449 28.0134 20.6359C28.0134 20.4737 28.0134 20.3115 28.0135 20.1493C28.0137 19.8428 28.0137 19.5361 28.0138 19.2296C28.0138 18.9927 28.0138 18.7559 28.0139 18.5191C28.0139 18.4509 28.0139 18.3828 28.0139 18.3147C28.0139 18.2893 28.0139 18.2893 28.0139 18.2634C28.014 17.7867 28.0141 17.3101 28.0141 16.8334C28.0141 16.8154 28.0141 16.7974 28.0141 16.7788C28.0141 16.6877 28.0141 16.5966 28.0141 16.5055C28.0141 16.4874 28.0141 16.4693 28.0141 16.4507C28.0141 16.414 28.0141 16.3774 28.0141 16.3409C28.0141 15.7717 28.0142 15.2026 28.0145 14.6335C28.0147 13.9943 28.0149 13.3549 28.0149 12.7156C28.0149 12.6474 28.0149 12.5792 28.0149 12.511C28.0149 12.4942 28.0149 12.4773 28.0149 12.4601C28.0149 12.19 28.015 11.92 28.015 11.6499C28.0152 11.3784 28.0152 11.1067 28.0151 10.8352C28.015 10.6739 28.0151 10.5126 28.0152 10.3514C28.0153 10.2436 28.0153 10.1357 28.0152 10.0278C28.0151 9.96645 28.0151 9.90512 28.0152 9.84369C28.0157 9.61622 28.0152 9.39154 27.9845 9.1658C27.9773 9.11219 27.9723 9.05905 27.9688 9.00505C27.9613 8.9175 27.9412 8.83476 27.9203 8.74964C27.9065 8.68768 27.8973 8.62615 27.8889 8.56325C27.8779 8.48169 27.8629 8.40641 27.8381 8.32777C27.8298 8.29505 27.8215 8.26228 27.8134 8.22948C27.8068 8.20305 27.8068 8.20305 27.8002 8.17608C27.7955 8.1577 27.791 8.13932 27.7864 8.12038C27.7767 8.08149 27.7669 8.04261 27.7572 8.00373C27.7497 7.97348 27.7421 7.94324 27.7345 7.91299C27.7232 7.91299 27.7117 7.91299 27.7001 7.91299C27.6983 7.89667 27.6966 7.88033 27.6948 7.8635C27.6826 7.77772 27.6546 7.69772 27.6266 7.61595C27.6211 7.59979 27.6156 7.58364 27.6101 7.56699C27.5431 7.37115 27.4595 7.18455 27.3712 6.99763C27.3539 6.96093 27.3369 6.92413 27.3198 6.88732C27.2554 6.74834 27.1888 6.61176 27.1128 6.47855C27.1015 6.47855 27.09 6.47855 27.0783 6.47855C27.0726 6.45003 27.0669 6.42151 27.061 6.39214C27.0496 6.39214 27.0383 6.39214 27.0265 6.39214C27.025 6.38289 27.0233 6.37364 27.0218 6.36412C27.005 6.30928 26.9771 6.26674 26.9466 6.21823C26.9405 6.20848 26.9344 6.19873 26.928 6.18868C26.9154 6.16852 26.9027 6.14839 26.8899 6.12827C26.8718 6.09946 26.854 6.07041 26.8362 6.04135C26.8257 6.02416 26.8151 6.00695 26.8041 5.98924C26.7946 5.97362 26.785 5.958 26.7751 5.94191C26.7669 5.93079 26.7586 5.91968 26.7502 5.90822C26.7388 5.90822 26.7274 5.90822 26.7157 5.90822C26.7098 5.89038 26.7098 5.89038 26.7038 5.87218C26.6757 5.8098 26.6364 5.76007 26.5937 5.70731C26.5851 5.69666 26.5766 5.68599 26.5678 5.67501C26.5505 5.65335 26.5331 5.63173 26.5156 5.61015C26.4942 5.58367 26.473 5.557 26.4519 5.53031C26.368 5.42523 26.2786 5.32633 26.1862 5.22871C26.1769 5.21894 26.1677 5.20917 26.1582 5.1991C26.1499 5.19044 26.1417 5.1818 26.1333 5.17288C26.1112 5.14779 26.1112 5.14779 26.0766 5.09594C26.0652 5.09594 26.0539 5.09594 26.0421 5.09594C26.0364 5.07884 26.0307 5.06173 26.0249 5.04409C26.0134 5.04409 26.002 5.04409 25.9903 5.04409C25.9903 5.0327 25.9903 5.02129 25.9903 5.00953C25.9789 5.00953 25.9675 5.00953 25.9558 5.00953C25.9501 4.99243 25.9443 4.97531 25.9385 4.95769C25.9271 4.95769 25.9157 4.95769 25.9039 4.95769C25.9039 4.94628 25.9039 4.93487 25.9039 4.92313C25.8792 4.90177 25.8542 4.88051 25.8287 4.86007C25.7876 4.82627 25.7515 4.78787 25.714 4.7503C25.6929 4.73099 25.6717 4.71192 25.6503 4.69305C25.6403 4.6842 25.6302 4.67536 25.6199 4.66625C25.5939 4.64319 25.5939 4.64319 25.5586 4.64661C25.5586 4.6352 25.5586 4.62379 25.5586 4.61204C25.513 4.57059 25.513 4.57059 25.4549 4.56019C25.4549 4.54878 25.4549 4.53737 25.4549 4.52563C25.4253 4.49817 25.4253 4.49817 25.388 4.47162C25.3756 4.4623 25.3632 4.453 25.3504 4.4434C25.3186 4.41883 25.3186 4.41883 25.2822 4.42193C25.2822 4.41052 25.2822 4.39911 25.2822 4.38737C25.2419 4.35545 25.2015 4.32585 25.1592 4.29663C25.1462 4.28755 25.1332 4.27846 25.1197 4.2691C24.9527 4.15364 24.7813 4.04499 24.6087 3.93802C24.5954 3.92977 24.5822 3.92152 24.5685 3.91302C24.3926 3.80448 24.2119 3.71234 24.024 3.6266C23.991 3.61149 23.9583 3.59605 23.9255 3.58056C23.6976 3.47299 23.4651 3.38686 23.2257 3.30937C23.1963 3.29978 23.167 3.28988 23.1376 3.27993C23.09 3.26435 23.0424 3.25088 22.994 3.23808C22.945 3.22511 22.8971 3.21149 22.8491 3.19494C22.769 3.16907 22.687 3.1542 22.6045 3.13756C22.5535 3.12575 22.5535 3.12575 22.5363 3.10847C22.4931 3.102 22.4502 3.09628 22.4068 3.09118C22.2796 3.07623 22.2796 3.07623 22.2599 3.05662C22.2347 3.05168 22.2093 3.04772 22.1837 3.0442C22.1599 3.0409 22.1599 3.0409 22.1356 3.03753C22.1186 3.03528 22.1016 3.03302 22.0841 3.0307C22.0583 3.0272 22.0583 3.0272 22.032 3.02365C21.9157 3.00832 21.8001 2.99709 21.6829 2.99113C21.6382 2.98749 21.6382 2.98749 21.5865 2.97021C21.5583 2.96862 21.5301 2.96804 21.5019 2.96804C21.4843 2.96799 21.4667 2.96795 21.4486 2.9679C21.4291 2.96795 21.4098 2.96799 21.3897 2.96803C21.3691 2.968 21.3485 2.96798 21.3272 2.96795C21.2696 2.9679 21.212 2.96792 21.1543 2.96798C21.0918 2.96803 21.0293 2.96797 20.9666 2.96793C20.8569 2.96786 20.7471 2.96786 20.6374 2.96791C20.4741 2.96798 20.3109 2.96794 20.1477 2.96789C19.8562 2.96779 19.5648 2.9678 19.2733 2.96785C19.0183 2.9679 18.7632 2.96791 18.5081 2.96789C18.4913 2.96789 18.4744 2.96789 18.457 2.96788C18.3884 2.96788 18.3198 2.96787 18.2512 2.96787C17.6075 2.96781 16.9638 2.96786 16.32 2.96796C15.7477 2.96804 15.1753 2.96804 14.6029 2.96795C13.9603 2.96785 13.3178 2.96782 12.6753 2.96787C12.6068 2.96788 12.5383 2.96788 12.4699 2.96789C12.4446 2.96789 12.4446 2.96789 12.4189 2.96789C12.1639 2.96791 11.9089 2.96789 11.654 2.96784C11.3642 2.96779 11.0745 2.9678 10.7847 2.9679C10.6224 2.96796 10.46 2.96796 10.2977 2.96789C10.1894 2.96785 10.0812 2.96788 9.9729 2.96795C9.91113 2.968 9.84937 2.96801 9.7875 2.96795C9.72121 2.96788 9.65482 2.96795 9.58843 2.96803C9.56896 2.96799 9.5495 2.96795 9.52945 2.9679C9.50315 2.96797 9.50315 2.96797 9.47636 2.96804C9.45352 2.96804 9.45352 2.96804 9.4303 2.96804C9.39291 2.96787 9.39292 2.96787 9.35938 2.98749Z" fill="#ABAFAD"/>
<path d="M5.6809 12.5089C6.33633 12.5089 6.99166 12.5089 7.66694 12.5089C7.68419 12.5261 7.68419 12.5261 7.68631 12.5712C7.68631 12.5914 7.68631 12.6117 7.68631 12.6325C7.68631 12.6438 7.68631 12.6551 7.68631 12.6666C7.68641 12.7045 7.68631 12.7424 7.68622 12.7803C7.68622 12.8074 7.68622 12.8345 7.68622 12.8616C7.68622 12.9353 7.68612 13.0091 7.68602 13.0828C7.68583 13.1598 7.68583 13.2367 7.68583 13.3137C7.68583 13.4596 7.68564 13.6054 7.68544 13.7513C7.68525 13.9483 7.68516 14.1453 7.68506 14.3424C7.68487 14.6529 7.68458 14.9635 7.68419 15.2741C8.15153 15.2798 8.61887 15.2854 9.10037 15.2913C9.10037 14.3731 9.10037 13.4549 9.10037 12.5089C9.76149 12.5089 10.4225 12.5089 11.1037 12.5089C11.1037 14.9442 11.1037 17.3794 11.1037 19.8885C10.4425 19.8885 9.78153 19.8885 9.10037 19.8885C9.10037 18.8505 9.10037 17.8125 9.10037 16.7431C9.089 16.7487 9.07753 16.7544 9.06578 16.7603C8.61559 16.7603 8.16541 16.7603 7.70154 16.7603C7.69575 17.7927 7.69007 18.825 7.68419 19.8885C7.02317 19.8885 6.36206 19.8885 5.6809 19.8885C5.6809 17.4533 5.6809 15.018 5.6809 12.5089Z" fill="#ABAFAD"/>
<path d="M15.7969 12.6642C15.8252 12.6642 15.8252 12.6642 15.8541 12.6642C15.8939 12.6642 15.9336 12.6642 15.9733 12.6643C16.0337 12.6644 16.0941 12.6643 16.1544 12.6641C16.1932 12.6642 16.232 12.6642 16.2708 12.6642C16.2886 12.6642 16.3064 12.6641 16.3248 12.6641C16.5579 12.6649 16.7671 12.7074 16.9913 12.7681C17.0073 12.7723 17.0232 12.7765 17.0396 12.7808C17.2119 12.8275 17.372 12.8975 17.5341 12.9712C17.5493 12.978 17.5644 12.9848 17.58 12.9918C17.6437 13.0206 17.7071 13.0497 17.7695 13.0813C17.7695 13.0928 17.7695 13.1041 17.7695 13.1159C17.7817 13.1174 17.7939 13.119 17.8065 13.1206C17.8657 13.1357 17.9038 13.161 17.9541 13.1958C17.981 13.2144 17.981 13.2144 18.0085 13.2333C18.0355 13.2522 18.0355 13.2522 18.0631 13.2714C18.0802 13.2829 18.0973 13.2944 18.1149 13.3062C18.1306 13.3169 18.1462 13.3275 18.1624 13.3384C18.1765 13.348 18.1906 13.3575 18.2053 13.3674C18.2153 13.3757 18.2254 13.3839 18.2357 13.3924C18.2357 13.4038 18.2357 13.4152 18.2357 13.427C18.2464 13.4323 18.2571 13.4377 18.2681 13.4432C18.2919 13.455 18.3156 13.4669 18.3394 13.4789C18.3394 13.4902 18.3394 13.5016 18.3394 13.5134C18.349 13.5176 18.3586 13.522 18.3685 13.5263C18.4158 13.5519 18.4547 13.5814 18.4948 13.617C18.4948 13.6285 18.4948 13.6399 18.4948 13.6517C18.5119 13.6573 18.5289 13.663 18.5466 13.6689C18.5466 13.6803 18.5466 13.6918 18.5466 13.7035C18.558 13.7035 18.5694 13.7035 18.5812 13.7035C18.6092 13.7273 18.6092 13.7273 18.6329 13.7553C18.6329 13.7667 18.6329 13.7782 18.6329 13.7899C18.6444 13.7899 18.6558 13.7899 18.6675 13.7899C18.6951 13.8198 18.6951 13.8198 18.7279 13.8623C18.7402 13.878 18.7524 13.8937 18.765 13.9099C18.7784 13.9273 18.7918 13.9448 18.8057 13.9627C18.8204 13.9816 18.8353 14.0005 18.8501 14.0193C19.0647 14.2937 19.0647 14.2937 19.0647 14.3602C19.0761 14.3602 19.0875 14.3602 19.0993 14.3602C19.1109 14.3821 19.1224 14.4041 19.1338 14.4261C19.1402 14.4383 19.1466 14.4506 19.1533 14.4632C19.1683 14.4985 19.1683 14.4985 19.1683 14.5504C19.1798 14.5504 19.1911 14.5504 19.2029 14.5504C19.314 14.7936 19.4121 15.0339 19.4791 15.2935C19.4852 15.3142 19.4913 15.3348 19.4975 15.3561C19.6265 15.8206 19.6445 16.3582 19.5482 16.8316C19.5425 16.8374 19.5369 16.8431 19.531 16.8489C19.5254 16.8837 19.5205 16.9187 19.5159 16.9537C19.5041 17.0344 19.4884 17.1045 19.4569 17.1794C19.4436 17.2146 19.4365 17.2483 19.4295 17.2853C19.4085 17.3873 19.3653 17.4798 19.3237 17.5748C19.3141 17.5989 19.3043 17.623 19.2946 17.6472C19.272 17.6958 19.272 17.6958 19.2374 17.713C19.231 17.7359 19.2253 17.759 19.2201 17.7822C19.2088 17.8098 19.1969 17.8371 19.1845 17.8642C19.1783 17.878 19.172 17.8919 19.1656 17.9061C19.1608 17.9165 19.156 17.9269 19.151 17.9377C19.1397 17.9377 19.1283 17.9377 19.1165 17.9377C19.1146 17.9504 19.1128 17.9632 19.1108 17.9762C19.0986 18.0267 19.0821 18.0564 19.0527 18.0989C19.0432 18.1127 19.0337 18.1266 19.0238 18.1408C19.0138 18.1551 19.0038 18.1693 18.9935 18.184C18.9839 18.198 18.9742 18.212 18.9643 18.2263C18.914 18.2988 18.8623 18.3703 18.8091 18.4408C18.7993 18.4537 18.7895 18.4666 18.7795 18.4799C18.7668 18.4938 18.7668 18.4938 18.7538 18.508C18.7425 18.508 18.731 18.508 18.7194 18.508C18.715 18.5179 18.7107 18.5279 18.7062 18.5382C18.6819 18.5824 18.654 18.6124 18.6184 18.6482C18.6055 18.6612 18.5924 18.6742 18.5791 18.6876C18.5655 18.7011 18.552 18.7145 18.538 18.7283C18.5177 18.749 18.5177 18.749 18.4969 18.7699C18.4839 18.7828 18.4709 18.7957 18.4575 18.8091C18.4457 18.821 18.4337 18.8329 18.4215 18.8451C18.3912 18.871 18.3912 18.871 18.3567 18.871C18.3567 18.8823 18.3567 18.8938 18.3567 18.9055C18.3174 18.9385 18.278 18.9692 18.2368 18.9995C18.2246 19.0086 18.2123 19.0177 18.1997 19.0271C18.1081 19.0943 18.0146 19.1586 17.9195 19.2209C17.907 19.2292 17.8945 19.2375 17.8817 19.246C17.7931 19.303 17.7931 19.303 17.735 19.303C17.735 19.3144 17.735 19.3258 17.735 19.3376C17.7167 19.3455 17.6986 19.3535 17.6799 19.3616C17.6683 19.3667 17.6566 19.3718 17.6446 19.3771C17.619 19.3883 17.5934 19.3995 17.5679 19.4106C17.5041 19.4384 17.4407 19.4669 17.3777 19.4964C17.2981 19.5321 17.2151 19.5559 17.1316 19.5806C17.0893 19.5936 17.0493 19.608 17.0085 19.6249C16.9333 19.6546 16.8552 19.6645 16.7754 19.6758C16.7343 19.6789 16.7343 19.6789 16.716 19.7005C16.2468 19.8069 15.6942 19.7885 15.2308 19.6659C15.2047 19.6595 15.2047 19.6595 15.178 19.6531C15.1264 19.6404 15.075 19.6273 15.0235 19.6141C15.0091 19.6104 14.9946 19.6067 14.9798 19.6029C14.8747 19.5738 14.7792 19.5308 14.6809 19.4839C14.634 19.4622 14.5873 19.4432 14.5389 19.425C14.4505 19.3909 14.3716 19.3434 14.2907 19.2942C14.2466 19.2666 14.2466 19.2666 14.1946 19.2512C14.1946 19.2398 14.1946 19.2283 14.1946 19.2166C14.1806 19.2141 14.1806 19.2141 14.1662 19.2116C14.1134 19.1956 14.0728 19.1695 14.0262 19.1399C14.0092 19.1293 13.9922 19.1186 13.9747 19.1076C13.9618 19.0979 13.9488 19.0883 13.9355 19.0784C13.9355 19.0669 13.9355 19.0555 13.9355 19.0437C13.9263 19.0395 13.917 19.0353 13.9075 19.0308C13.8564 19.0039 13.8095 18.974 13.7629 18.9401C13.7629 18.9287 13.7629 18.9172 13.7629 18.9055C13.7534 18.9016 13.7441 18.8977 13.7343 18.8936C13.6819 18.8644 13.6403 18.8263 13.5966 18.7856C13.5877 18.7773 13.5786 18.769 13.5694 18.7604C13.4793 18.6759 13.3909 18.5875 13.3138 18.4907C13.3138 18.4794 13.3138 18.4679 13.3138 18.4562C13.3025 18.4562 13.291 18.4562 13.2792 18.4562C13.219 18.3902 13.168 18.3174 13.1412 18.2315C13.1297 18.2315 13.1183 18.2315 13.1066 18.2315C13.0221 18.1134 12.9536 17.9832 12.8906 17.8526C12.8728 17.8159 12.8543 17.7796 12.8352 17.7436C12.7314 17.546 12.6664 17.3397 12.6058 17.1254C12.5972 17.0978 12.5972 17.0978 12.5885 17.0697C12.5367 16.8934 12.5187 16.7194 12.5062 16.5364C12.5038 16.5018 12.5038 16.5018 12.4849 16.4687C12.4834 16.4271 12.4828 16.386 12.4832 16.3443C12.4832 16.3321 12.4832 16.3198 12.4832 16.3073C12.4833 16.2681 12.4836 16.2291 12.4838 16.19C12.4839 16.1635 12.484 16.137 12.484 16.1106C12.4842 16.0456 12.4845 15.9806 12.4849 15.9156C12.4962 15.9156 12.5077 15.9156 12.5195 15.9156C12.5188 15.9002 12.5182 15.8847 12.5176 15.8686C12.5139 15.699 12.5341 15.5452 12.5712 15.3798C12.5775 15.3515 12.5775 15.3515 12.5837 15.3225C12.6064 15.2255 12.6357 15.1351 12.6746 15.0435C12.693 14.9974 12.7071 14.9511 12.7212 14.9036C12.7643 14.7716 12.8315 14.653 12.8983 14.532C12.9139 14.5035 12.9289 14.4748 12.9436 14.4459C13.0564 14.2281 13.2298 13.9491 13.4174 13.7899C13.4289 13.7899 13.4403 13.7899 13.452 13.7899C13.4563 13.7798 13.4605 13.7697 13.4648 13.7593C13.4899 13.7148 13.5174 13.6904 13.5567 13.6581C13.6071 13.6179 13.6071 13.6179 13.6419 13.5653C13.6533 13.5653 13.6648 13.5653 13.6765 13.5653C13.6765 13.5538 13.6765 13.5424 13.6765 13.5306C13.701 13.5078 13.701 13.5078 13.7352 13.4817C13.7477 13.4723 13.7602 13.4628 13.773 13.453C13.7931 13.438 13.7931 13.438 13.8136 13.4226C13.8269 13.4125 13.8404 13.4024 13.8542 13.392C14.1068 13.2023 14.1068 13.2023 14.1601 13.2023C14.1601 13.1909 14.1601 13.1794 14.1601 13.1678C14.1848 13.1532 14.2097 13.1388 14.2345 13.1245C14.2483 13.1165 14.2622 13.1085 14.2765 13.1002C14.3155 13.0813 14.3155 13.0813 14.3673 13.0813C14.3673 13.0699 14.3673 13.0585 14.3673 13.0468C14.3854 13.0389 14.4036 13.0308 14.4222 13.0227C14.4339 13.0176 14.4457 13.0125 14.4576 13.0072C14.4831 12.9961 14.5087 12.9849 14.5342 12.9738C14.5994 12.9453 14.6642 12.9165 14.7289 12.8869C14.8534 12.8316 14.9814 12.7969 15.1134 12.7649C15.1518 12.7554 15.1897 12.7446 15.2275 12.7335C15.2859 12.7175 15.3436 12.7095 15.4035 12.7011C15.4092 12.6954 15.4149 12.6897 15.4207 12.6838C15.545 12.6631 15.6713 12.664 15.7969 12.6642ZM16.5433 13.6862C16.5296 13.9986 16.5235 14.3104 16.5241 14.6231C16.5241 14.6679 16.5241 14.7128 16.524 14.7576C16.524 14.8531 16.5241 14.9485 16.5242 15.044C16.5243 15.182 16.5244 15.32 16.5244 15.458C16.5244 15.682 16.5246 15.906 16.5247 16.13C16.5249 16.3472 16.525 16.5646 16.5251 16.7818C16.5251 16.7952 16.5251 16.8087 16.5251 16.8226C16.5251 16.8901 16.5252 16.9576 16.5252 17.0251C16.5254 17.5828 16.5257 18.1405 16.526 18.6982C16.5594 18.6958 16.5927 18.6933 16.626 18.6908C16.6446 18.6895 16.6632 18.6881 16.6822 18.6868C16.7328 18.6809 16.7732 18.6684 16.8188 18.6455C16.8898 18.6123 16.965 18.589 17.0389 18.5631C17.0871 18.5457 17.1348 18.5275 17.1822 18.508C17.1822 18.4966 17.1822 18.4852 17.1822 18.4735C17.1952 18.4713 17.208 18.4691 17.2212 18.467C17.2652 18.457 17.2985 18.4435 17.3378 18.4216C17.3378 18.4102 17.3378 18.3988 17.3378 18.3871C17.3662 18.3814 17.3947 18.3756 17.4241 18.3697C17.4241 18.3583 17.4241 18.347 17.4241 18.3352C17.4432 18.3283 17.4432 18.3282 17.4627 18.3212C17.6063 18.2592 17.7255 18.1295 17.8385 18.0241C17.8501 18.0135 17.8616 18.0029 17.8735 17.992C18.1188 17.7575 18.2915 17.4732 18.4128 17.1584C18.4301 17.1142 18.4491 17.0707 18.4679 17.0271C18.4924 16.9658 18.5019 16.9158 18.4948 16.8489C18.5062 16.8489 18.5176 16.8489 18.5293 16.8489C18.6105 16.4684 18.6439 16.0372 18.5466 15.6564C18.5416 15.6347 18.5366 15.613 18.5315 15.5907C18.3896 14.9849 18.008 14.4326 17.4932 14.0837C17.4463 14.0622 17.4463 14.0622 17.4068 14.0491C17.4068 14.0378 17.4068 14.0263 17.4068 14.0146C17.3746 13.9984 17.3423 13.9823 17.31 13.9662C17.2827 13.9525 17.2555 13.9386 17.2283 13.9246C17.0567 13.8368 16.8857 13.7679 16.6987 13.7208C16.6753 13.714 16.6519 13.7072 16.6286 13.7003C16.5811 13.6846 16.5811 13.6846 16.5433 13.6862ZM15.1099 13.8072C15.0901 13.8145 15.0901 13.8145 15.07 13.8221C14.6491 13.9793 14.2727 14.2778 14.0046 14.6368C13.9973 14.6465 13.99 14.6563 13.9825 14.6663C13.83 14.8507 13.83 14.8507 13.7629 15.0688C13.7515 15.0688 13.74 15.0688 13.7283 15.0688C13.7028 15.1365 13.6775 15.2042 13.6522 15.2719C13.6363 15.3144 13.6203 15.3566 13.6037 15.3987C13.5649 15.4986 13.5427 15.5946 13.5278 15.7008C13.5211 15.7428 13.5211 15.7428 13.5038 15.7774C13.4839 15.9144 13.4839 16.0528 13.4844 16.1911C13.4843 16.2099 13.4842 16.2288 13.4842 16.2482C13.4845 16.4868 13.5144 16.6997 13.5805 16.9277C13.584 16.94 13.5875 16.9522 13.5912 16.9648C13.616 17.0487 13.645 17.1302 13.6765 17.2118C13.6879 17.2118 13.6993 17.2118 13.711 17.2118C13.7131 17.2333 13.7131 17.2333 13.7153 17.2552C13.7313 17.3292 13.7617 17.386 13.7984 17.4516C13.805 17.4635 13.8115 17.4754 13.8182 17.4877C13.8342 17.5168 13.8503 17.5458 13.8665 17.5748C13.8778 17.5748 13.8893 17.5748 13.901 17.5748C13.9027 17.5846 13.9044 17.5945 13.9062 17.6047C13.9208 17.6521 13.9431 17.6801 13.9744 17.7184C14.0127 17.7662 14.0498 17.8138 14.0845 17.8642C14.1331 17.933 14.1894 17.9888 14.2551 18.0414C14.2982 18.076 14.2982 18.076 14.3446 18.1235C14.3794 18.1663 14.3794 18.1663 14.4191 18.1624C14.4191 18.1738 14.4191 18.1852 14.4191 18.1969C14.4427 18.2183 14.4427 18.2183 14.4741 18.2389C14.4916 18.2509 14.4916 18.2509 14.5095 18.2632C14.5221 18.2716 14.5346 18.28 14.5475 18.2887C14.5602 18.2974 14.573 18.306 14.5861 18.3148C14.672 18.3726 14.7584 18.4267 14.8509 18.4735C14.864 18.4804 14.8772 18.4875 14.8906 18.4947C15.0907 18.5989 15.3138 18.6982 15.5416 18.6982C15.5473 17.0442 15.553 15.3903 15.5589 13.6862C15.4032 13.6862 15.2511 13.7465 15.1099 13.8072Z" fill="#ABAFAD"/>
<path d="M21.0338 12.545C22.5554 12.545 24.0771 12.545 25.6448 12.545C25.6448 13.0126 25.6448 13.4803 25.6448 13.9622C24.7729 13.9622 23.9009 13.9622 23.0026 13.9622C23.0083 13.9735 23.014 13.985 23.0198 13.9968C23.0214 14.0426 23.0219 14.088 23.0218 14.1339C23.0218 14.1483 23.0218 14.1627 23.0218 14.1776C23.0218 14.2242 23.0217 14.2709 23.0215 14.3177C23.0215 14.3464 23.0215 14.3753 23.0215 14.4041C23.0214 14.5109 23.0211 14.6179 23.0209 14.7247C23.0205 14.9636 23.0202 15.2024 23.0198 15.4484C23.829 15.4542 24.6384 15.4599 25.4722 15.4658C25.4722 15.9277 25.4722 16.3896 25.4722 16.8656C24.2582 16.8742 24.2582 16.8742 23.0198 16.8829C23.02 17.0958 23.0202 17.3088 23.0204 17.5282C23.0205 17.6627 23.0206 17.7972 23.0206 17.9317C23.0208 18.1455 23.0209 18.3592 23.0211 18.573C23.0213 18.7286 23.0214 18.8843 23.0215 19.0399C23.0215 19.1223 23.0215 19.2048 23.0217 19.2872C23.0218 19.3648 23.0218 19.4423 23.0218 19.5198C23.0218 19.5484 23.0218 19.5769 23.0219 19.6054C23.0219 19.6442 23.0219 19.6831 23.0219 19.7218C23.0219 19.7436 23.0219 19.7654 23.0219 19.7878C23.0198 19.8382 23.0198 19.8382 23.0026 19.8727C22.7484 19.8731 22.4942 19.8735 22.2401 19.8737C22.1221 19.8737 22.0041 19.8739 21.8861 19.8741C21.7724 19.8743 21.6586 19.8744 21.5448 19.8744C21.5013 19.8745 21.4578 19.8745 21.4143 19.8746C21.3536 19.8748 21.2929 19.8748 21.2321 19.8748C21.214 19.8748 21.1958 19.8749 21.1771 19.875C21.1606 19.8749 21.1441 19.8749 21.1272 19.8749C21.1057 19.8749 21.1057 19.8749 21.0836 19.8749C21.051 19.8727 21.051 19.8727 21.0338 19.8555C21.0321 19.8167 21.0317 19.778 21.0317 19.7392C21.0317 19.7269 21.0316 19.7145 21.0316 19.7017C21.0316 19.6597 21.0316 19.6178 21.0317 19.5758C21.0317 19.5457 21.0317 19.5156 21.0317 19.4854C21.0316 19.4021 21.0317 19.3188 21.0318 19.2355C21.0319 19.1458 21.0318 19.0561 21.0318 18.9664C21.0318 18.8109 21.0319 18.6553 21.032 18.4998C21.0321 18.2749 21.0321 18.0501 21.0321 17.8252C21.0321 17.4604 21.0323 17.0956 21.0324 16.7308C21.0326 16.3763 21.0327 16.0219 21.0328 15.6674C21.0328 15.6343 21.0328 15.6343 21.0328 15.6006C21.0328 15.4282 21.0329 15.2556 21.0329 15.0831C21.0331 14.2371 21.0334 13.3911 21.0338 12.545Z" fill="#ABAFAD"/>
</svg>
