<svg width="90" height="76" viewBox="0 0 90 76" fill="none" xmlns="http://www.w3.org/2000/svg">
<g filter="url(#filter0_f_660_6948)">
<ellipse cx="44.7127" cy="37.8062" rx="23.8963" ry="16.9898" fill="#00CC66" fill-opacity="0.7"/>
</g>
<path d="M44.9832 41.1085C44.7554 41.1085 44.5325 41.0093 44.3325 40.9051C44.3191 40.898 44.306 40.8913 44.293 40.8844C44.2005 40.8376 44.1133 40.783 44.0274 40.7252C44.0145 40.7165 44.0014 40.7083 43.9888 40.6998C43.9759 40.6912 43.9636 40.6828 43.9512 40.6744C43.9333 40.6621 43.9328 40.6619 43.9154 40.6499C43.8842 40.6295 43.8842 40.6289 43.8607 40.6075V40.5736C43.8212 40.5777 43.8211 40.5769 43.7864 40.5341C43.7402 40.4868 43.74 40.4866 43.6969 40.4521C43.6312 40.3996 43.575 40.3438 43.5265 40.2751C43.4919 40.2248 43.4545 40.1777 43.4163 40.1301C43.3849 40.0918 43.3622 40.0635 43.3475 40.0162C43.3458 40.006 43.3445 39.9959 43.3428 39.986H43.308C43.2919 39.9572 43.2759 39.9283 43.26 39.8994C43.2532 39.8871 43.2466 39.8745 43.2402 39.8626C43.2035 39.7973 43.1733 39.7406 43.1573 39.6668C43.1551 39.6449 43.1547 39.6449 43.1526 39.6235H43.1177C43.0863 39.542 43.0578 39.4605 43.033 39.3767C43.0294 39.3642 43.0252 39.3521 43.0217 39.34C42.9556 39.112 42.9259 38.8985 42.9256 38.6601C42.9257 38.6409 42.9255 38.6223 42.9256 38.6037C42.9252 38.4656 42.9255 38.3272 42.9454 38.1902C42.9627 38.1558 42.9631 38.1556 42.9699 38.1139C42.9846 38.0078 43.0065 37.9115 43.0452 37.8117C43.0619 37.7696 43.0784 37.7269 43.0942 37.6845C43.1194 37.617 43.1451 37.5495 43.1705 37.4821H43.2044C43.2715 37.2643 43.2715 37.264 43.4238 37.08L43.4463 37.0498C43.7144 36.6913 44.0908 36.3933 44.5114 36.2362C44.5317 36.2287 44.5321 36.2285 44.5519 36.2211C44.6929 36.1606 44.8448 36.1008 45.0002 36.1006C44.9943 37.8033 44.9889 39.4559 44.9832 41.1085Z" fill="#65E1A1"/>
<path d="M46.07 36.1147C46.0933 36.1217 46.1171 36.1278 46.1406 36.1345C46.3275 36.1816 46.4982 36.2511 46.6698 36.3388C46.697 36.3528 46.7244 36.3666 46.7517 36.3803C46.7839 36.3964 46.8164 36.4122 46.8487 36.4283V36.4631C46.8879 36.4762 46.8878 36.4766 46.9344 36.4981C47.4493 36.8467 47.8312 37.3984 47.9731 38.0038C47.9782 38.0259 47.9832 38.0473 47.9881 38.0688C48.0854 38.4493 48.0524 38.8808 47.9712 39.2609H47.9363C47.9434 39.3277 47.9345 39.3777 47.91 39.4389C47.8913 39.4824 47.8717 39.5257 47.8544 39.5698C47.7331 39.8843 47.5602 40.1689 47.3149 40.4032L47.28 40.4352C47.167 40.5404 47.0478 40.6699 46.9043 40.7318C46.8848 40.7389 46.8848 40.7391 46.8656 40.7459V40.7808C46.8364 40.7866 46.8075 40.792 46.779 40.7977V40.8326C46.7401 40.8542 46.707 40.8678 46.6632 40.8777L46.6237 40.8844V40.9182C46.5762 40.9377 46.5288 40.9565 46.4805 40.9739C46.4067 40.9997 46.3311 41.0226 46.2601 41.0557C46.2146 41.0786 46.1741 41.0913 46.1236 41.0972C46.1047 41.0986 46.0864 41.0996 46.068 41.101C46.0347 41.1035 46.0006 41.1062 45.9673 41.1085C45.9669 40.5513 45.9675 39.9942 45.9673 39.437C45.9673 39.3696 45.9664 39.302 45.9663 39.2345V37.4576C45.9662 37.3623 45.9653 37.2666 45.9654 37.1713C45.9654 37.1265 45.9654 37.0814 45.9654 37.0367C45.9649 36.7243 45.9714 36.4128 45.9852 36.1006C46.0227 36.0991 46.0227 36.0993 46.07 36.1147Z" fill="#65E1A1"/>
<path fill-rule="evenodd" clip-rule="evenodd" d="M49.2783 24.8164C54.3376 24.8164 58.439 28.9178 58.439 33.9771V42.6557C58.439 47.715 54.3376 51.8164 49.2783 51.8164H40.5997C35.5404 51.8164 31.439 47.715 31.439 42.6557V33.9771C31.439 28.9178 35.5404 24.8164 40.5997 24.8164H49.2783ZM34.814 42.3158H36.8169C36.8228 41.2529 36.8291 40.2209 36.8348 39.1894H38.1993L38.2332 39.1724V42.3158H40.2371V34.9414H38.2332V37.7222C37.7518 37.7163 37.2842 37.71 36.8169 37.7043C36.8173 37.3942 36.8177 37.084 36.8178 36.7739C36.8179 36.577 36.8186 36.3794 36.8188 36.1825V35.2126C36.8189 35.1748 36.8198 35.1366 36.8198 35.0987V35.0036C36.8177 34.9587 36.8173 34.9587 36.8 34.9414H34.814V42.3158ZM50.7397 34.9659C50.7394 35.8112 50.7389 36.6565 50.7388 37.5019V40.2422C50.7388 40.4669 50.738 40.6917 50.7379 40.9164V42.1547C50.7379 42.1933 50.7381 42.232 50.7397 42.2706C50.757 42.2878 50.7573 42.2882 50.7897 42.2903H51.2511C51.3647 42.2902 51.4784 42.2896 51.592 42.2894C51.7099 42.2892 51.8281 42.2895 51.946 42.2894C52.2002 42.2892 52.4547 42.2889 52.7088 42.2884C52.7261 42.254 52.7264 42.2538 52.7286 42.2036C52.7286 42.1814 52.7277 42.1594 52.7276 42.1378V40.9899C52.7274 40.7763 52.7268 40.5621 52.7267 40.3485C52.7266 40.2142 52.7268 40.0799 52.7267 39.9456C52.7265 39.7263 52.726 39.5133 52.7258 39.3005C53.964 39.2918 53.9645 39.2921 55.1779 39.2835V37.8842C54.3443 37.8783 53.5349 37.8729 52.7258 37.8672C52.7262 37.6213 52.7263 37.3827 52.7267 37.144C52.7269 37.0373 52.7276 36.9305 52.7276 36.8238V36.5536C52.7279 36.5077 52.7274 36.4619 52.7258 36.4161L52.7088 36.3821H55.3512V34.9659H50.7397ZM45.2384 35.0789C45.113 35.0786 44.9868 35.078 44.8627 35.0987C44.8568 35.1046 44.8504 35.11 44.8448 35.1157C44.7852 35.1239 44.7278 35.1326 44.6696 35.1485C44.6318 35.1597 44.5931 35.1701 44.5548 35.1797C44.4228 35.2116 44.2949 35.247 44.1705 35.302C44.1059 35.3316 44.0407 35.3603 43.9756 35.3887C43.9503 35.3998 43.9247 35.4105 43.8994 35.4216C43.8873 35.4269 43.8753 35.4326 43.8636 35.4376C43.8451 35.4457 43.8269 35.4533 43.8089 35.4613V35.4961C43.7573 35.4961 43.7572 35.4962 43.7186 35.5149C43.7043 35.5232 43.69 35.5314 43.6761 35.5394C43.6514 35.5536 43.6265 35.5682 43.6018 35.5827V35.6166C43.5485 35.6166 43.5483 35.6173 43.2957 35.8069L43.2147 35.8671C43.2019 35.8769 43.1896 35.8868 43.1771 35.8962C43.1428 35.9223 43.1422 35.9224 43.1177 35.9452V35.9792H43.0839C43.049 36.0317 43.0485 36.0321 42.9981 36.0724C42.9591 36.1045 42.9317 36.129 42.9068 36.1731C42.9024 36.1835 42.8979 36.1941 42.8936 36.2042H42.8588C42.6713 36.3634 42.4978 36.642 42.3852 36.8597C42.3703 36.8883 42.3554 36.9169 42.3399 36.9453C42.273 37.0663 42.2059 37.1854 42.1629 37.3173C42.1487 37.3646 42.1351 37.4108 42.1167 37.4566C42.0778 37.5482 42.0479 37.6385 42.0254 37.7354C42.0191 37.7644 42.0193 37.7645 42.0131 37.7928C41.9761 37.9581 41.9558 38.112 41.9595 38.2816C41.9601 38.2974 41.9608 38.3132 41.9613 38.3287H41.9265C41.9262 38.3934 41.9258 38.458 41.9256 38.5227C41.9255 38.5491 41.9257 38.5762 41.9256 38.6027C41.9254 38.6416 41.9247 38.6805 41.9246 38.7195C41.9246 38.7319 41.9246 38.7441 41.9246 38.7562C41.9243 38.7976 41.925 38.839 41.9265 38.8805C41.9454 38.9135 41.9458 38.914 41.9481 38.9483C41.9607 39.1311 41.9783 39.3052 42.0301 39.4813C42.0388 39.5092 42.0386 39.5096 42.0471 39.5368C42.1076 39.7508 42.1731 39.9572 42.2769 40.1545C42.296 40.1906 42.3146 40.2272 42.3324 40.2638C42.3953 40.3943 42.4635 40.5244 42.548 40.6424H42.5828C42.6096 40.7281 42.661 40.8005 42.7213 40.8665H42.7552V40.9014C42.8323 40.9981 42.9212 41.0861 43.0114 41.1707C43.0206 41.1792 43.0297 41.1878 43.0386 41.1961C43.0822 41.2367 43.1238 41.2752 43.1762 41.3043C43.1857 41.3084 43.1951 41.3118 43.2044 41.3157V41.3505C43.2511 41.3845 43.2983 41.4141 43.3494 41.4409C43.3589 41.4453 43.3684 41.4499 43.3777 41.4541V41.4889C43.3908 41.4987 43.4034 41.5086 43.4163 41.5181C43.4338 41.5291 43.4511 41.5395 43.468 41.5501C43.5145 41.5797 43.5556 41.6058 43.6083 41.6217C43.6223 41.6241 43.6227 41.624 43.6366 41.6264V41.6613C43.6884 41.6766 43.6887 41.677 43.7326 41.7046C43.8134 41.7537 43.8921 41.8013 43.9804 41.8355C44.0287 41.8535 44.0756 41.8721 44.1225 41.8939C44.2206 41.9407 44.3162 41.9835 44.421 42.0125C44.4359 42.0164 44.4508 42.0201 44.4653 42.0238C44.5167 42.0371 44.5682 42.0507 44.6197 42.0633C44.6462 42.0699 44.6465 42.0692 44.6724 42.0756C45.1358 42.1979 45.6884 42.2167 46.1575 42.1105C46.1758 42.0889 46.176 42.089 46.2168 42.086C46.2966 42.0746 46.3752 42.0648 46.4504 42.0351C46.4912 42.0182 46.5315 42.0038 46.5737 41.9908C46.6572 41.9662 46.74 41.9417 46.8195 41.9062C46.8825 41.8766 46.946 41.8482 47.0098 41.8204C47.0351 41.8093 47.0606 41.7985 47.086 41.7875C47.098 41.7822 47.1101 41.7766 47.1218 41.7714C47.1403 41.7633 47.1585 41.7557 47.1764 41.7479V41.7131C47.2344 41.7131 47.2349 41.7134 47.3234 41.6566C47.3361 41.6481 47.3485 41.6393 47.361 41.6311C47.456 41.5688 47.55 41.5043 47.6416 41.4371C47.6541 41.4279 47.6662 41.4188 47.6783 41.4098C47.7195 41.3796 47.7587 41.3485 47.7979 41.3157V41.2818C47.8324 41.2818 47.8327 41.2812 47.8629 41.2555C47.8751 41.2432 47.8878 41.2314 47.8996 41.2196C47.9129 41.2064 47.9254 41.193 47.9383 41.18C47.959 41.1591 47.9593 41.1592 47.9796 41.1387C47.9936 41.1249 48.0076 41.1115 48.0211 41.0982C48.0343 41.0849 48.0469 41.0715 48.0597 41.0586C48.0954 41.0229 48.1239 40.9927 48.1482 40.9484C48.1526 40.9383 48.1572 40.9281 48.1614 40.9182H48.1954C48.208 40.9044 48.2085 40.9045 48.2207 40.891C48.2307 40.8776 48.2412 40.8643 48.2509 40.8514C48.304 40.7811 48.356 40.7101 48.4062 40.6376C48.4161 40.6234 48.4258 40.6092 48.4355 40.5953C48.4458 40.5806 48.4556 40.5662 48.4656 40.552C48.4754 40.5377 48.4852 40.5235 48.4948 40.5096C48.5241 40.4673 48.5401 40.4375 48.5522 40.3872C48.5542 40.3741 48.556 40.3613 48.5578 40.3485H48.5927C48.5976 40.338 48.6021 40.3277 48.6068 40.3175C48.6133 40.3032 48.6203 40.2889 48.6266 40.2751C48.6389 40.2482 48.6501 40.2206 48.6615 40.1932C48.6667 40.1701 48.673 40.1472 48.6793 40.1244C48.7138 40.1073 48.7141 40.107 48.7368 40.0585C48.7464 40.0345 48.7553 40.0101 48.7651 39.986C48.8066 39.8911 48.8505 39.7989 48.8714 39.6969C48.8784 39.6601 48.8855 39.6265 48.8987 39.5915C48.9302 39.5166 48.9454 39.4461 48.9571 39.3655C48.9617 39.3304 48.9676 39.2957 48.9732 39.2609L48.9901 39.244C49.0864 38.771 49.0681 38.2334 48.9392 37.7693C48.933 37.748 48.9274 37.7268 48.9214 37.7062C48.8543 37.4469 48.7555 37.2071 48.6445 36.9642H48.6096C48.6096 36.9123 48.6097 36.9118 48.5946 36.8765C48.5881 36.8642 48.582 36.8519 48.5758 36.8399C48.5643 36.8178 48.5525 36.7958 48.541 36.7739H48.5061C48.5061 36.7074 48.506 36.7071 48.2914 36.4331C48.2766 36.4144 48.2618 36.3953 48.2471 36.3766C48.2333 36.3587 48.2199 36.3412 48.2066 36.3238C48.1941 36.3078 48.182 36.2923 48.1699 36.2767C48.1371 36.2344 48.1368 36.2338 48.1096 36.2042H48.0748V36.1693C48.0511 36.1414 48.051 36.1413 48.0229 36.1175H47.9881V36.0827C47.9706 36.0769 47.9533 36.0715 47.9363 36.0658V36.031C47.8963 35.9954 47.8573 35.9661 47.8101 35.9405C47.8003 35.9362 47.7906 35.9316 47.781 35.9274V35.8934L47.6773 35.8417V35.8069C47.6672 35.7985 47.6572 35.7905 47.6473 35.7824C47.6327 35.7725 47.618 35.7627 47.604 35.7531C47.588 35.7423 47.5724 35.7316 47.5568 35.7211C47.5394 35.7094 47.5221 35.6977 47.505 35.6863C47.4775 35.6671 47.4774 35.6665 47.4504 35.6476C47.423 35.6287 47.4228 35.6286 47.3959 35.61C47.3456 35.5753 47.3072 35.5506 47.2479 35.5356C47.2355 35.5341 47.2234 35.5324 47.2112 35.5309V35.4961C47.1489 35.4645 47.0857 35.4353 47.022 35.4066C47.0064 35.3995 46.991 35.3927 46.9758 35.3858C46.8136 35.3123 46.6538 35.2423 46.4814 35.1957C46.4649 35.1913 46.4485 35.1876 46.4325 35.1834C46.2085 35.1228 45.9997 35.0797 45.7667 35.0789H45.2384Z" fill="#65E1A1"/>
<defs>
<filter id="filter0_f_660_6948" x="7.82013e-05" y="7.82013e-05" width="89.4251" height="75.6121" filterUnits="userSpaceOnUse" color-interpolation-filters="sRGB">
<feFlood flood-opacity="0" result="BackgroundImageFix"/>
<feBlend mode="normal" in="SourceGraphic" in2="BackgroundImageFix" result="shape"/>
<feGaussianBlur stdDeviation="10.4082" result="effect1_foregroundBlur_660_6948"/>
</filter>
</defs>
</svg>
