<svg width="90" height="76" viewBox="0 0 90 76" fill="none" xmlns="http://www.w3.org/2000/svg">
<g filter="url(#filter0_f_660_6947)">
<ellipse cx="44.7127" cy="37.8062" rx="23.8963" ry="16.9898" fill="#00CC66" fill-opacity="0.7"/>
</g>
<path d="M55.0156 39.8057C55.053 39.843 55.0903 39.8782 55.1289 39.9131V47.6602C55.1289 48.9539 54.0789 50.0039 52.7852 50.0039H48.5664C48.3178 50.0039 48.0791 49.9053 47.9033 49.7295C47.7275 49.5537 47.6289 49.315 47.6289 49.0664V43.4414C47.6289 43.1928 47.5303 42.9541 47.3545 42.7783C47.1787 42.6025 46.94 42.5039 46.6914 42.5039H42.9414C42.6928 42.5039 42.4541 42.6025 42.2783 42.7783C42.1025 42.9541 42.0039 43.1928 42.0039 43.4414V49.0664C42.0039 49.315 41.9053 49.5537 41.7295 49.7295C41.5537 49.9053 41.315 50.0039 41.0664 50.0039H36.8477C36.2261 50.0039 35.63 49.7569 35.1904 49.3174C34.7509 48.8778 34.5039 48.2817 34.5039 47.6602V39.9131C34.5428 39.8783 34.5812 39.8425 34.6182 39.8057L44.8164 29.6064L55.0156 39.8057ZM44.8164 25.4678C45.1857 25.4678 45.5514 25.5403 45.8926 25.6816C46.2338 25.823 46.5435 26.0308 46.8047 26.292L57.666 37.1543C57.7556 37.2407 57.8278 37.3437 57.877 37.458C57.9261 37.5724 57.952 37.6958 57.9531 37.8203C57.9542 37.9447 57.9299 38.0684 57.8828 38.1836C57.8357 38.2986 57.7665 38.4033 57.6787 38.4912C57.5908 38.5792 57.4862 38.6491 57.3711 38.6963C57.2559 38.7435 57.1322 38.7676 57.0078 38.7666C56.8833 38.7656 56.7599 38.7395 56.6455 38.6904C56.5313 38.6414 56.4282 38.5698 56.3418 38.4805L45.4785 27.6182C45.3027 27.4426 45.0648 27.3438 44.8164 27.3438C44.568 27.3438 44.3301 27.4426 44.1543 27.6182L33.291 38.4795C33.2047 38.5689 33.1015 38.6403 32.9873 38.6895C32.8729 38.7386 32.7495 38.7645 32.625 38.7656C32.5006 38.7667 32.3769 38.7433 32.2617 38.6963C32.1466 38.6492 32.0421 38.5791 31.9541 38.4912C31.8661 38.4032 31.7962 38.2987 31.749 38.1836C31.7018 38.0684 31.6787 37.9448 31.6797 37.8203C31.6807 37.6959 31.7058 37.5724 31.7549 37.458C31.8039 37.3438 31.8755 37.2407 31.9648 37.1543L42.8271 26.292C43.0883 26.0308 43.399 25.823 43.7402 25.6816C44.0814 25.5404 44.4471 25.4678 44.8164 25.4678Z" fill="#65E1A1"/>
<defs>
<filter id="filter0_f_660_6947" x="7.82013e-05" y="7.82013e-05" width="89.4251" height="75.6121" filterUnits="userSpaceOnUse" color-interpolation-filters="sRGB">
<feFlood flood-opacity="0" result="BackgroundImageFix"/>
<feBlend mode="normal" in="SourceGraphic" in2="BackgroundImageFix" result="shape"/>
<feGaussianBlur stdDeviation="10.4082" result="effect1_foregroundBlur_660_6947"/>
</filter>
</defs>
</svg>
