<svg width="31" height="30" viewBox="0 0 31 30" fill="none" xmlns="http://www.w3.org/2000/svg">
<path d="M5 19.6676C5 19.3799 5.23325 19.1467 5.52089 19.1467H9.91239C10.2001 19.1467 10.4333 19.3799 10.4333 19.6676V27.84H5V19.6676Z" stroke="#ABAFAD" stroke-width="1.2"/>
<path d="M12.6066 16.4077C12.6066 16.1199 12.8399 15.8868 13.1275 15.8868H17.5191C17.8068 15.8868 18.04 16.1199 18.04 16.4077V27.84H12.6066V16.4077Z" stroke="#ABAFAD" stroke-width="1.2"/>
<path d="M20.0926 23.6779C20.0926 23.3902 20.3258 23.157 20.6135 23.157H25.6088C25.8965 23.157 26.1297 23.3902 26.1297 23.6779V27.6848H20.0926V23.6779Z" stroke="#ABAFAD" stroke-width="1.2"/>
<path d="M15.2946 3.15524C15.4152 2.94825 15.7142 2.94825 15.8348 3.15524L17.2262 5.54417C17.2557 5.59472 17.305 5.63056 17.3621 5.64293L20.0642 6.22805C20.2983 6.27874 20.3907 6.56312 20.2311 6.74174L18.389 8.80332C18.35 8.84686 18.3312 8.90489 18.3371 8.96312L18.6156 11.7136C18.6398 11.952 18.3979 12.1277 18.1787 12.0312L15.6487 10.9162C15.5952 10.8927 15.5342 10.8927 15.4807 10.9162L12.9507 12.0312C12.7315 12.1277 12.4896 11.952 12.5138 11.7136L12.7923 8.96312C12.7982 8.90489 12.7794 8.84686 12.7404 8.80332L10.8983 6.74174C10.7387 6.56312 10.8311 6.27874 11.0652 6.22805L13.7673 5.64293C13.8244 5.63056 13.8737 5.59472 13.9032 5.54417L15.2946 3.15524Z" stroke="#ABAFAD" stroke-width="1.2"/>
</svg>
