<svg width="90" height="76" viewBox="0 0 90 76" fill="none" xmlns="http://www.w3.org/2000/svg">
<g filter="url(#filter0_f_660_6953)">
<ellipse cx="44.7127" cy="37.8062" rx="23.8963" ry="16.9898" fill="#00CC66" fill-opacity="0.7"/>
</g>
<path d="M34.439 42.484C34.439 42.1964 34.6748 41.9631 34.9657 41.9631H39.4065C39.6975 41.9631 39.9333 42.1964 39.9333 42.484V50.6564H34.439V42.484Z" fill="#65E1A1"/>
<path d="M42.1311 39.2241C42.1311 38.9363 42.3669 38.7032 42.6578 38.7032H47.0987C47.3896 38.7032 47.6255 38.9363 47.6255 39.2241V50.6564H42.1311V39.2241Z" fill="#65E1A1"/>
<path d="M49.7012 46.4943C49.7012 46.2066 49.9369 45.9734 50.2279 45.9734H55.2793C55.5702 45.9734 55.8061 46.2066 55.8061 46.4943V50.5012H49.7012V46.4943Z" fill="#65E1A1"/>
<path d="M44.8492 25.9717C44.9711 25.7647 45.2736 25.7647 45.3955 25.9717L46.8025 28.3606C46.8323 28.4112 46.8823 28.447 46.94 28.4594L49.6724 29.0445C49.9091 29.0952 50.0026 29.3795 49.8412 29.5582L47.9784 31.6197C47.939 31.6633 47.9199 31.7213 47.9259 31.7795L48.2075 34.53C48.232 34.7684 47.9874 34.9442 47.7657 34.8476L45.2073 33.7327C45.1532 33.7091 45.0915 33.7091 45.0374 33.7327L42.479 34.8476C42.2574 34.9442 42.0128 34.7684 42.0372 34.53L42.3188 31.7795C42.3248 31.7213 42.3057 31.6633 42.2663 31.6197L40.4036 29.5582C40.2422 29.3795 40.3356 29.0952 40.5723 29.0445L43.3047 28.4594C43.3625 28.447 43.4124 28.4112 43.4422 28.3606L44.8492 25.9717Z" fill="#65E1A1"/>
<defs>
<filter id="filter0_f_660_6953" x="7.82013e-05" y="7.82013e-05" width="89.4251" height="75.6121" filterUnits="userSpaceOnUse" color-interpolation-filters="sRGB">
<feFlood flood-opacity="0" result="BackgroundImageFix"/>
<feBlend mode="normal" in="SourceGraphic" in2="BackgroundImageFix" result="shape"/>
<feGaussianBlur stdDeviation="10.4082" result="effect1_foregroundBlur_660_6953"/>
</filter>
</defs>
</svg>
